<?xml version="1.0" encoding="UTF-8" standalone="no"?>


<svg
   width="100"
   height="60"
   viewBox="0 0 100 60"
   version="1.1"
   xmlns="http://www.w3.org/2000/svg"
   xmlns:svg="http://www.w3.org/2000/svg">

   <path
      d="m 93.772955,31.512839 q -4.489317,-0.197334 -9.011526,-0.345333 l 0.630368,-0.120592 0.630368,-0.04385 q 2.905174,0 5.821312,-0.08771 c 0.723555,0 1.326517,-0.180888 1.364888,-0.438518 0.03838,-0.257628 -0.548149,-0.443998 -1.227852,-0.465923 l 0.339848,-0.04385 c 0.115114,0 0.191857,-0.06029 0.16445,-0.09867 a 0.47688718,0.47688718 0 0 0 -0.301485,-0.06029 l -1.216881,0.175406 c -3.689027,-0.0877 -7.389013,-0.06029 -11.083517,0 3.974059,-0.290516 8.008415,-0.493331 12.059213,-0.548145 -0.08222,0.0274 -0.09319,0.08222 0,0.11511 a 0.71259001,0.71259001 0 0 0 0.339856,0 c 0.09867,-0.03837 0.08223,-0.08771 0,-0.120591 v 0 q 3.288874,-0.06029 6.577761,0 c 0.12606,0 0.23569,-0.03289 0.23569,-0.08223 0,-0.04934 -0.12059,-0.0877 -0.2631,-0.0877 -7.262941,-0.11511 -14.471067,0.208295 -21.509262,0.789331 h -1.151108 v 0 a 1.5238463,1.5238463 0 0 0 -0.723553,-0.493339 c 2.494065,-0.08222 4.971686,-0.180888 7.454788,-0.295999 l 6.221461,0.04385 c 0.301477,0 0.548147,-0.07673 0.548147,-0.186369 0,-0.109629 -0.241185,-0.18637 -0.548147,-0.191851 h -1.52933 c 0.42207,-0.131556 0.696148,-0.317925 0.723555,-0.548146 0.02739,-0.230221 -0.180892,-0.383703 -0.548148,-0.548147 2.24192,-0.191851 4.467389,-0.400147 6.638053,-0.685183 0.126072,0 0.197324,-0.05481 0.147998,-0.09867 a 0.42755402,0.42755402 0 0 0 -0.301485,-0.05481 c -3.157315,0.120592 -6.270788,0.301481 -9.395222,0.438517 -2.466657,-0.241184 -4.878501,-0.509775 -7.542492,-0.608442 a 103.3968,103.3968 0 0 0 -11.171219,0.389184 q -1.962362,-0.09867 -3.908281,-0.148 c 0.180888,-0.09319 0.290518,-0.208295 0.290518,-0.334368 a 0.19185115,0.19185115 0 0 0 -0.03289,-0.0877 l 3.453322,0.03837 c 10.803961,0.10963 20.950148,-0.734516 31.282701,-1.436143 0.663262,-0.02741 1.140144,-0.235703 1.05792,-0.460442 -0.08221,-0.224742 -0.685179,-0.389185 -1.342957,-0.361778 -4.933314,0 -9.526781,0.394666 -14.542316,0.783849 -3.568432,0.274073 -6.703828,0.476887 -10.288704,0.668739 -4.198799,0.219258 -8.107082,0.169926 -12.218178,0.164444 A 10.08589,10.08589 0 0 0 58.675152,25.993 l -1.23881,0.03837 c -3.217617,-0.03289 -6.374939,-0.175407 -9.521298,-0.33437 3.760282,-0.137037 7.515083,-0.30148 11.215071,-0.608442 0.268591,0 0.443998,-0.09867 0.41659,-0.186369 -0.0274,-0.08771 -0.290516,-0.148 -0.548146,-0.137037 -5.158055,0.191851 -10.338036,0.268592 -15.507054,0.361776 -1.408737,-0.783849 -4.38517,-1.244291 -7.065605,-1.271699 a 18.182009,18.182009 0 0 0 -2.817475,0.202812 l 1.277182,0.09319 a 19.327634,19.327634 0 0 0 -3.414951,0.438516 l -0.290517,-0.0274 c -2.483104,-0.427547 -5.382798,-0.345323 -8.063234,-0.548138 0.05481,0.09867 0.126074,0.197333 0.180889,0.295999 -0.493331,-0.07674 -0.783849,-0.252147 -1.326513,-0.306962 l 0.449479,0.21926 H 22.38788 A 7.8165644,7.8165644 0 0 0 20.376183,23.981309 28.5036,28.5036 0 0 0 14.598722,23.137165 3.2559882,3.2559882 0 0 0 13.442135,22.917906 4.4509468,4.4509468 0 0 1 12.855618,22.802797 23.192065,23.192065 0 0 0 8.1744496,21.706504 L 9.210446,21.980576 A 11.828994,11.828994 0 0 0 7.6263034,21.821614 c 0.060294,0.0603 0.1370359,0.115111 0.1973327,0.175407 -1.7595483,-0.41659 -4.1713914,-0.268592 -5.3827944,0.328888 -1.211403,0.597479 -0.7893306,1.42518 0.9647365,1.841771 l 0.2576286,0.06578 a 4.4838357,4.4838357 0 0 0 -2.1268066,0.630368 c -0.2357026,0.191851 -0.02741,0.433037 0,0.652294 -0.038369,0.345332 0.657775,0.624887 1.6060683,0.652295 a 5.1032409,5.1032409 0 0 0 0.7235529,-0.03837 c 1.0962923,0.115111 2.1925845,0.208296 3.2505059,0.350814 a 0.926367,0.926367 0 0 0 0.5481461,-0.06578 c 0.093185,-0.07673 0,-0.164444 -0.2137767,-0.197333 -0.7564426,-0.148 -1.4964386,-0.306962 -2.2309544,-0.465925 l -0.1808887,0.05482 a 0.45496133,0.45496133 0 0 1 0.098667,-0.07126 l -0.1973326,-0.04385 0.1534807,-0.04385 h 0.1644438 a 2.4611764,2.4611764 0 0 1 0.3234064,-0.109629 c 1.31555,0.109629 2.6201379,0.235703 3.8370231,0.44948 0.07125,0 -0.04934,0.15348 0.08222,0.208296 L 9.709257,26.26709 9.00763,26.19035 7.4618576,26.524719 v 0 h -0.071252 l -0.3562954,0.07673 v 0 H 6.9411267 L 6.5190544,26.574038 A 0.72355296,0.72355296 0 0 0 6.1298719,26.628858 1.5128834,1.5128834 0 0 0 5.9380202,26.52471 L 4.2935819,26.387673 a 0.285036,0.285036 0 0 0 0.032885,0.0877 3.4368765,3.4368765 0 0 1 -0.6303671,0.02741 8.3318217,8.3318217 0 0 1 -1.0962931,-0.05481 l 0.3727394,0.142518 -0.3234056,-0.09867 0.08222,0.158963 L 2.5833607,26.47538 2.4408428,26.606936 1.79403,26.223233 1.3226248,26.299977 a 0.94281137,0.94281137 0 0 0 -0.1479999,0.08222 c 0,0.04385 0,0.04385 -0.26311053,0.213777 a 0.21925847,0.21925847 0 0 0 0,0.109629 c 0.076746,0.05481 0.076746,0.05481 0.098667,0.208295 A 1.3484395,1.3484395 0 0 0 1.22944,27.018046 c 0.1205918,0.02741 0.1534808,0.03837 0.6139231,0.131556 l -0.109629,0.07673 c -0.087704,0.279555 -0.087704,0.279555 0.4878503,0.926368 a 3.6945052,3.6945052 0 0 0 0.9208855,0.367257 c 0.6029601,0.06578 0.6029601,0.06578 1.3045879,0.126074 0,0 0.1479988,0.0274 0.4111094,0.05481 0.2631105,0.02742 0.2411845,0.137037 0.3837024,0.230222 v 0 a 1.8417712,1.8417712 0 0 0 -0.3727394,0.05481 c -0.3179246,0.09319 -0.3617765,0.246666 -0.093185,0.356295 -0.3508133,0.427553 -0.1425177,0.816738 0.2959996,1.183995 A 0.54814616,0.54814616 0 0 0 4.8965371,30.97565 2.3953988,2.3953988 0 0 0 3.9098746,32.148683 l -0.060294,0.356294 a 2.0719925,2.0719925 0 0 0 1.216884,0.811257 l 0.1973328,0.0877 -0.1863697,0.295999 c 0.8222187,0.794812 2.444731,1.430662 3.4478383,2.192585 l 0.75096,0.400151 a 6.4187916,6.4187916 0 0 0 2.43377,0.668739 l 1.096292,0.115111 h 0.679701 c -1.145625,0.372739 -1.775993,0.915403 -1.567698,1.490958 0.361777,0.948292 2.910655,1.644438 5.695238,1.490957 7.427378,-0.03837 14.602611,-0.09867 22.194435,-0.49333 5.618498,-0.285036 10.716258,-0.674219 16.230608,-0.674219 5.267685,-0.41111 10.349,-0.942812 15.490611,-1.57318 4.319392,-0.548147 7.624712,-1.595106 11.445292,-2.400881 0.115112,0 0.126074,-0.07673 0.06578,-0.115111 a 0.6139237,0.6139237 0 0 0 -0.345332,0 c -6.100867,0.696147 -12.185288,1.304589 -18.708228,1.447107 -0.745478,0 -1.474514,0 -2.192585,0 H 61.531 l -1.978808,-0.126073 h 0.690665 c 0.454961,0 0.849626,-0.109631 0.877033,-0.274074 0,-0.06578 -0.06029,-0.126074 -0.164443,-0.180889 1.688289,-0.169924 3.338209,-0.389184 4.98813,-0.619404 a 7.7178977,7.7178977 0 0 0 1.331994,-0.158962 c 1.907549,0.115111 3.837024,0.202813 5.73361,0.306961 l 0.476887,0.04934 a 2.9983595,2.9983595 0 0 0 1.53481,-0.252147 0.44947986,0.44947986 0 0 0 0.186369,-0.175407 c 4.357762,-0.328887 8.770338,-0.581035 12.90884,-1.20044 0.2083,-0.03289 0.317928,-0.09867 0.285035,-0.175407 a 0.65229395,0.65229395 0 0 0 0.274077,0 12.124993,12.124993 0 0 1 1.61703,-0.268591 c 0.126078,-0.0274 0.197335,-0.07126 0.137034,-0.109629 a 0.47688718,0.47688718 0 0 0 -0.31792,-0.04934 c -0.591997,0.07673 -1.173038,0.164443 -1.704735,0.285035 a 0.15348093,0.15348093 0 0 0 -0.10415,0.0603 1.2059216,1.2059216 0 0 0 -0.487847,-0.04934 c -4.259098,0.213776 -8.381158,0.679701 -12.678623,0.783849 2.104881,-0.285037 4.253614,-0.482369 6.517457,-0.701627 2.740731,-0.257628 5.240275,-0.630368 7.991972,-0.778368 0.142521,0 0.241185,-0.04385 0.224742,-0.08771 -0.01647,-0.04385 -0.137035,-0.08222 -0.279557,-0.07125 -5.634942,0.22474 -10.579222,1.304588 -16.400534,1.304588 h -0.68518 c 1.797919,-0.37822 3.557468,-0.761922 5.317018,-1.140143 5.355388,-0.158963 10.694332,-0.400147 15.962018,-0.756442 0.257627,0 0.46592,-0.07673 0.460441,-0.164445 -0.0057,-0.0877 -0.213779,-0.191851 -0.471405,-0.186369 z M 4.1236473,27.533297 A 1.0962924,1.0962924 0 0 1 4.337424,27.637445 Z M 17.098266,27.341446 c -1.068884,-0.06578 -2.154214,-0.115111 -3.288877,-0.137037 a 9.7844091,9.7844091 0 0 0 -1.211403,0.04385 8.1618967,8.1618967 0 0 0 -1.496439,-0.652293 c 0.997626,0.142518 2.132289,0.197333 3.179248,0.295999 l 3.442358,0.295998 -0.400147,0.0274 c -0.109629,0.01644 -0.367258,0 -0.22474,0.126073 z m 2.378955,-2.422807 0.613923,0.263111 h -0.0877 l -0.811256,-0.10963 0.147999,0.07125 q -1.567696,-0.0877 -3.135395,-0.197332 a 41.494666,41.494666 0 0 0 -4.741464,-0.460443 c 0.471407,-0.09867 0.920886,-0.208296 1.337478,-0.323406 2.077473,0.252147 4.072725,0.591998 6.248865,0.685182 z m -10.518925,4.3468 v 0 L 8.656815,29.068106 Z M 5.3953464,33.184684 5.3350519,33.146318 5.970901,32.241876 Z M 91.196665,29.512105 c -0.09867,0.03837 -0.09867,0.08771 0,0.120592 a 0.59747932,0.59747932 0 0 0 0.339849,0 c 0.08222,-0.02742 0.08222,-0.08771 0,-0.11511 a 0.64681248,0.64681248 0 0 0 -0.339849,-0.0055 z M 60.231888,24.896713 q 6.199533,0.235703 12.431954,0.345333 c 0.137037,0 0.25763,-0.03289 0.263111,-0.07674 0.0055,-0.04385 -0.09867,-0.08223 -0.230222,-0.08223 -4.149465,-0.0877 -8.277007,-0.191851 -12.410029,-0.350814 -0.137036,0 -0.252147,0.0274 -0.274073,0.07126 -0.02192,0.04385 0.09319,0.0877 0.219259,0.09319 z m -58.339196,1.375848 -0.1808877,-0.04934 0.1205918,0.07126 h 0.032885 z m 0.8605897,0.05481 A 2.0281409,2.0281409 0 0 0 2.0461729,26.21774 l -0.1315549,0.05481 0.4220723,0.131555 c 0.2576286,0.09319 0.4385173,0.02192 0.4165914,-0.07673 z m 2.483102,-0.548145 0.1973326,-0.0603 H 5.2747545 a 0.84962653,0.84962653 0 0 0 -0.1205928,0.06578 z"
      style="fill:#c1d2db;stroke-width:0.548147" />
   <path
      style="fill:#232020;stroke:#c1d2db;stroke-width:0;stroke-linecap:round;stroke-linejoin:round"
      d="m 73.832152,47.962101 a 1.5001275,1.5001275 0 0 1 -0.455167,-1.12189 1.4808951,1.4808951 0 0 1 0.455167,-1.12189 1.6091112,1.6091112 0 0 1 2.218138,0 1.5001275,1.5001275 0 0 1 0.448756,1.12189 1.5706464,1.5706464 0 0 1 -2.666894,1.12189 z m 1.692452,-0.48722 a 1.0449606,1.0449606 0 0 0 0,-1.28216 0.84622583,0.84622583 0 0 0 -1.173177,0 1.0449606,1.0449606 0 0 0 0,1.28216 0.84622583,0.84622583 0 0 0 1.173177,0 z m -5.353019,0.897512 v -3.051542 h 0.743653 v 3.051542 z m -4.128557,-3.051542 a 1.7245056,1.7245056 0 0 1 1.19882,0.423113 1.5257708,1.5257708 0 0 1 0,2.198905 1.6988624,1.6988624 0 0 1 -1.19882,0.429524 h -1.070603 v -3.051542 z m -0.333361,2.487391 h 0.333361 a 0.87186903,0.87186903 0 0 0 0.641081,-0.262842 1.1218903,1.1218903 0 0 0 0,-1.397556 0.87186903,0.87186903 0 0 0 -0.641081,-0.262842 h -0.333361 z m -5.917169,-0.666723 v -1.820668 h 0.743652 v 1.820668 a 0.64108014,0.64108014 0 0 0 0.134627,0.423113 0.50645332,0.50645332 0 0 0 0.391058,0.147448 0.53850733,0.53850733 0 0 0 0.403881,-0.147448 0.64108014,0.64108014 0 0 0 0.134627,-0.423113 v -1.820668 h 0.743653 v 1.820668 a 1.2821603,1.2821603 0 0 1 -0.185913,0.698777 1.1859982,1.1859982 0 0 1 -0.48081,0.429524 1.4552519,1.4552519 0 0 1 -0.64108,0.134627 1.2821603,1.2821603 0 0 1 -0.891102,-0.333362 1.1859982,1.1859982 0 0 1 -0.352593,-0.929566 z m -4.827335,-1.256517 v -0.564151 h 2.404051 v 0.564151 H 56.53581 v 2.487391 h -0.743653 v -2.487391 z m -3.557994,-0.01923 a 0.3910589,0.3910589 0 0 0 -0.230789,0.07052 0.26925367,0.26925367 0 0 0 -0.08334,0.211556 0.30771848,0.30771848 0 0 0 0.07693,0.224378 0.57056133,0.57056133 0 0 0 0.217968,0.134627 l 0.294896,0.08333 0.326951,0.102573 a 1.5257708,1.5257708 0 0 1 0.288487,0.147449 0.64108014,0.64108014 0 0 1 0.217966,0.243611 0.84622583,0.84622583 0 0 1 0.08334,0.378237 0.85904739,0.85904739 0 0 1 -0.314129,0.64108 1.2116416,1.2116416 0 0 1 -0.833404,0.282075 1.2821603,1.2821603 0 0 1 -0.826993,-0.250021 0.839815,0.839815 0 0 1 -0.31413,-0.705189 h 0.788529 c 0,0.243611 0.141037,0.365416 0.371827,0.365416 a 0.33977249,0.33977249 0 0 0 0.250021,-0.08334 0.27566447,0.27566447 0 0 0 0.09616,-0.217967 0.31412928,0.31412928 0 0 0 -0.08333,-0.211556 0.64108014,0.64108014 0 0 0 -0.217968,-0.128217 2.3271209,2.3271209 0 0 0 -0.294896,-0.08975 2.6668935,2.6668935 0 0 1 -0.32054,-0.102574 1.4103763,1.4103763 0 0 1 -0.294896,-0.147448 0.58338295,0.58338295 0 0 1 -0.217969,-0.24361 0.9167446,0.9167446 0 0 1 0.2372,-1.051372 1.2821603,1.2821603 0 0 1 0.807761,-0.256432 1.3334467,1.3334467 0 0 1 0.801351,0.224378 0.85904739,0.85904739 0 0 1 0.314129,0.705189 H 51.74053 a 0.4102913,0.4102913 0 0 0 -0.102573,-0.25002 0.30771848,0.30771848 0 0 0 -0.230789,-0.07693 z m -7.712194,-0.551331 h 0.743652 v 3.057953 h -0.743652 l -1.243696,-1.92324 v 1.92324 h -0.743653 v -3.057953 h 0.743653 l 1.243696,1.923241 z m -7.019829,2.641251 a 1.6219328,1.6219328 0 0 1 0,-2.23737 1.5450032,1.5450032 0 0 1 1.115481,-0.442345 1.5962896,1.5962896 0 0 1 0.903921,0.24361 1.4296088,1.4296088 0 0 1 0.55133,0.750064 h -0.891101 a 0.57697215,0.57697215 0 0 0 -0.551329,-0.333362 0.77570698,0.77570698 0 0 0 -0.602616,0.2372 1.0449606,1.0449606 0 0 0 0,1.28216 0.75647458,0.75647458 0 0 0 0.589795,0.2372 0.64108014,0.64108014 0 0 0 0.641079,-0.480811 H 37.58548 v -0.56415 h 1.660398 v 0.56415 a 1.5257708,1.5257708 0 0 1 -0.461577,0.775707 1.2821603,1.2821603 0 0 1 -0.435935,0.282076 1.5129492,1.5129492 0 0 1 -0.557739,0.108984 1.5450032,1.5450032 0 0 1 -1.115481,-0.423113 z m -3.660567,0.416702 v -3.051542 h 0.743653 v 3.051542 z m -3.76314,-2.506623 a 0.3782373,0.3782373 0 0 0 -0.230789,0.07052 0.26925367,0.26925367 0 0 0 -0.08976,0.211557 0.30771848,0.30771848 0 0 0 0.08334,0.224379 0.57056133,0.57056133 0 0 0 0.217967,0.134626 l 0.294896,0.08334 0.320541,0.102574 a 1.4103763,1.4103763 0 0 1 0.294897,0.147447 0.64108014,0.64108014 0 0 1 0.217966,0.243611 0.85904739,0.85904739 0 0 1 -0.237198,1.03855 1.1859982,1.1859982 0 0 1 -0.826994,0.282075 1.2821603,1.2821603 0 0 1 -0.826994,-0.250021 0.839815,0.839815 0 0 1 -0.314129,-0.705188 h 0.788528 c 0,0.24361 0.141038,0.365416 0.371827,0.365416 a 0.33977249,0.33977249 0 0 0 0.250022,-0.08334 0.27566447,0.27566447 0 0 0 0.09616,-0.217967 0.31412928,0.31412928 0 0 0 -0.08333,-0.211556 0.64108014,0.64108014 0 0 0 -0.217968,-0.128217 2.6989475,2.6989475 0 0 0 -0.294897,-0.08975 2.6668935,2.6668935 0 0 1 -0.320539,-0.102573 1.4103763,1.4103763 0 0 1 -0.294897,-0.147449 0.58338295,0.58338295 0 0 1 -0.217968,-0.243611 0.9167446,0.9167446 0 0 1 0.237201,-1.070604 1.2821603,1.2821603 0 0 1 0.807759,-0.256431 1.3334467,1.3334467 0 0 1 0.801351,0.224377 0.85904739,0.85904739 0 0 1 0.31413,0.70519 h -0.807762 a 0.4102913,0.4102913 0 0 0 -0.102573,-0.250019 0.30771848,0.30771848 0 0 0 -0.230789,-0.07693 z m -3.660568,-0.55133 v 0.564152 h -1.102658 v 0.641079 h 0.968031 v 0.564151 h -0.968031 v 0.711598 h 1.102658 v 0.564152 h -1.84631 v -3.045132 z m -6.00051,0.0064 a 1.7245056,1.7245056 0 0 1 1.198819,0.423113 1.5257708,1.5257708 0 0 1 0,2.198906 1.6988624,1.6988624 0 0 1 -1.198819,0.429524 h -1.044962 v -3.051543 z m -0.333362,2.487392 h 0.333362 a 0.87186903,0.87186903 0 0 0 0.64108,-0.262843 1.1218903,1.1218903 0 0 0 0,-1.397555 0.87186903,0.87186903 0 0 0 -0.64108,-0.262843 H 19.256999 Z M 87.288424,27.915525 a 38.727652,38.727652 0 0 1 2.038635,-3.449011 10.148299,10.148299 0 0 0 0.71801,-0.980852 6.686466,6.686466 0 0 0 0.64108,-0.878281 0.96162026,0.96162026 0 0 1 0.64108,-0.416702 c 0.250022,0 0.46799,0 0.685958,0 0.429521,0 0.641082,0.333362 0.807757,0.79494 0,0.03846 0,0.07052 0,0.141037 0,0.461578 0.0705,0.961621 0.08976,1.455252 a 9.6162026,9.6162026 0 0 1 -0.128214,1.416787 6.8082712,6.8082712 0 0 1 -0.108984,0.929566 c 0.166676,0.108984 0.115391,0.250022 0.160268,0.217969 0.04488,-0.03206 0.31413,0.03846 0.397468,-0.03206 0.08334,-0.07052 0.1154,-0.102574 0.160276,-0.173092 a 2.230959,2.230959 0 0 0 0.474398,-0.384648 c 0.128215,-0.173091 0.237199,-0.173091 0.359006,0 a 0.35900489,0.35900489 0 0 1 -0.1731,0.282076 0.55132893,0.55132893 0 0 0 -0.128215,0.17309 0.46798852,0.46798852 0 0 1 -0.243606,0.250022 l -0.121807,0.102574 c -0.03846,0 -0.115391,0.07052 -0.115391,0.102573 0,0.03206 -0.07692,0 -0.121808,0.07052 a 0.54491813,0.54491813 0 0 1 -0.410291,0.173093 0.78211779,0.78211779 0 0 0 -0.339775,0.134625 c -0.115392,0.07052 -0.224376,0.07052 -0.282076,0 -0.237199,-0.141037 -0.487221,-0.179502 -0.724417,-0.294896 a 1.2821603,1.2821603 0 0 1 -0.814172,-1.006496 4.2631831,4.2631831 0 0 1 0.115394,-2.019403 c 0.108984,-0.314129 0.141038,-0.596204 0.211557,-0.878279 0.07052,-0.282076 0.115394,-0.423113 0.179502,-0.64108 a 0.52568573,0.52568573 0 0 0 0.07693,-0.384648 c -0.03206,0 -0.102573,-0.03846 -0.108983,0 a 0.86545821,0.86545821 0 0 0 -0.16668,0.173091 c -0.173093,0.282075 -0.384649,0.564151 -0.596206,0.87828 a 1.807846,1.807846 0 0 0 -0.288486,0.64108 c 0,0.141037 -0.102573,0.250022 -0.147449,0.352594 a 11.859982,11.859982 0 0 0 -1.032138,1.827079 c -0.2372,0.493631 -0.532097,0.916744 -0.80135,1.410376 -0.410291,0.737243 -0.87828,1.403966 -1.218053,2.179673 -0.102573,0.24361 -0.275664,0.525685 -0.416703,0.807761 a 15.212832,15.212832 0 0 1 -1.416787,2.070689 c 0,0.07052 -0.115394,0.108983 -0.198734,0.179502 a 1.2821603,1.2821603 0 0 1 -1.551414,0.39747 c -0.07693,0.07052 -0.141037,0 -0.205146,-0.07052 -0.55774,-0.153859 -0.782117,-0.685957 -0.846225,-1.397554 a 10.494482,10.494482 0 0 1 0.102573,-1.846312 c 0.134627,-0.916744 0.275664,-1.8399 0.455166,-2.756644 a 11.161205,11.161205 0 0 1 0.538508,-1.923241 10.032905,10.032905 0 0 1 0.897513,-2.564321 5.2696789,5.2696789 0 0 1 0.320539,-0.64108 c 0.326951,-0.64108 0.602615,-1.19882 0.955209,-1.762971 0.192324,-0.455166 0.346183,-0.525685 0.698777,-0.448756 a 4.5324367,4.5324367 0 0 1 0.878281,0.153859 1.1988199,1.1988199 0 0 1 0.64108,0.365416 6.2312991,6.2312991 0 0 0 0.833404,1.218053 1.7822028,1.7822028 0 0 1 0,1.666808 c -0.256431,0.705189 -0.269254,0.173092 -0.532097,0.916745 -0.64108,1.480896 -1.621932,2.634839 -2.173262,3.974697 -0.711597,1.711685 1.121891,0.08975 1.333447,-0.506453 z M 73.774455,26.575668 c 0,0.07052 -0.08975,0.141037 -0.16027,0.173091 a 0.23719967,0.23719967 0 0 0 -0.128217,0.173092 c -0.05129,0.141038 -0.09616,0.179502 -0.205144,0.211557 -0.108984,0.03206 -0.07693,0.07052 -0.141038,0.282074 0.07693,0 0.108983,0 0.141038,0.03846 v 0.03206 h -0.250022 a 0.82058259,0.82058259 0 0 0 0.07052,-0.282076 h -0.07052 l -0.192324,0.737243 c 0.0641,0.03846 0.09616,0.07693 0.134627,0.07693 a 5.2760898,5.2760898 0 0 1 -0.04487,0.705189 1.6539868,1.6539868 0 0 0 0.07052,0.64108 c 0.08976,0.141037 0.288486,0.923155 0.384648,1.070603 0.442345,0.500043 0.980853,1.147534 1.545004,1.19241 a 9.6674886,9.6674886 0 0 0 1.416787,-0.153859 8.6161176,8.6161176 0 0 0 2.622017,-1.282161 c 0.64108,-0.448756 1.282162,-0.974441 1.923241,-1.461662 l 0.121805,-0.102573 c 0.243611,-0.243611 0.480811,-0.455168 0.724421,-0.698777 a 9.9431528,9.9431528 0 0 0 1.211641,-1.224464 0.98726347,0.98726347 0 0 1 0.480811,-0.416702 3.910589,3.910589 0 0 1 -0.391059,0.884691 0.81417179,0.81417179 0 0 1 -0.205146,0.275664 4.1734318,4.1734318 0 0 0 -0.64108,0.737242 c -0.128217,0.141038 -0.282075,0.282076 -0.410291,0.423113 a 2.2822454,2.2822454 0 0 0 -0.166682,0.205147 c 0.115395,-0.03206 0.185914,-0.0641 0.301309,-0.102574 -0.0641,0.211556 -0.243611,0.250022 -0.301309,0.423113 0.03206,0.03846 0,0.07052 0.09616,0.108984 a 2.263013,2.263013 0 0 1 -0.40388,0.416702 6.0325643,6.0325643 0 0 0 -0.679545,0.596204 9.4110565,9.4110565 0 0 1 -1.141122,0.903924 5.6671487,5.6671487 0 0 1 -0.544919,0.384647 c -0.153859,0.102574 -0.307718,0.173092 -0.461578,0.275665 a 7.5519242,7.5519242 0 0 0 -0.685955,0.339772 3.8977674,3.8977674 0 0 1 -1.19882,0.448756 l -0.333361,0.09616 A 5.9556346,5.9556346 0 0 1 74.94763,32.935178 12.289506,12.289506 0 0 1 71.921732,32.39026 c -1.19241,-0.512863 -1.378323,-1.11548 -1.923241,-1.621933 a 1.5450032,1.5450032 0 0 1 -0.416701,-0.750063 4.7632256,4.7632256 0 0 1 0.01283,-1.487306 7.9301615,7.9301615 0 0 1 1.109068,-3.141292 0.67954496,0.67954496 0 0 0 0.128217,-0.525687 0.74365297,0.74365297 0 0 0 -0.403881,0.384648 5.590219,5.590219 0 0 1 -0.532097,0.910334 2.1219753,2.1219753 0 0 1 0.339773,-0.775707 12.654922,12.654922 0 0 1 1.205231,-1.788614 11.59714,11.59714 0 0 1 1.506538,-1.609111 9.3405376,9.3405376 0 0 1 1.775791,-1.320625 c 0.147449,-0.07052 0.256433,-0.102574 0.378238,-0.173092 0.121805,-0.07052 0.365416,-0.102574 0.455166,0.07693 0.08975,0.179502 0.243611,0.07693 0.307719,0.147448 0.0641,0.07052 0.115394,0.217967 0.179503,0.288485 0.339772,0.179504 1.660397,0.557741 1.92324,0.775708 a 0.76288538,0.76288538 0 0 1 0.211557,0.352595 2.6540719,2.6540719 0 0 0 0.474398,0.897512 0.78852859,0.78852859 0 0 1 0.108985,0.320539 3.2054008,3.2054008 0 0 1 -0.147449,1.282162 4.3913991,4.3913991 0 0 1 -0.685955,1.3655 5.4043057,5.4043057 0 0 0 -0.480811,0.737242 3.6990326,3.6990326 0 0 1 -0.435934,0.705188 1.6027004,1.6027004 0 0 1 -1.397555,0.641081 c -0.102573,-0.03846 -0.211556,0 -0.269253,-0.147449 0,-0.03206 -0.03206,-0.03206 -0.03206,-0.03206 -0.288486,0 -0.435935,-0.294897 -0.641079,-0.403881 A 0.30771848,0.30771848 0 0 1 74.62068,27.31931 c 0.08334,-0.141038 0,-0.211557 0,-0.314129 -0.115394,-0.288486 -0.217967,-0.609026 -0.365416,-0.897512 0,-0.102574 -0.128215,-0.141038 -0.250021,-0.03846 -0.121805,0.102573 -0.205145,0.294897 -0.230789,0.506453 z m -3.76314,3.134882 c 0,0.102573 0.05129,0.179502 0.07693,0.282074 0.02564,0.102574 0.08975,0.179503 0,0.320541 0,-0.03847 -0.0641,-0.03847 -0.0641,-0.07052 a 4.5837231,4.5837231 0 0 1 -0.179503,-1.282164 c 0,-0.03206 0,-0.07052 0,-0.102573 a 6.0710291,6.0710291 0 0 1 0.320539,-1.557825 1.0577822,1.0577822 0 0 0 0.108984,-0.32054 c 0,-0.07053 0,-0.102573 0,-0.243611 a 2.8207527,2.8207527 0 0 0 -0.269254,0.493633 c -0.0577,0.173091 -0.108984,0.314129 -0.160269,0.493631 a 3.846481,3.846481 0 0 0 0,2.513034 2.0129917,2.0129917 0 0 0 0.243609,0.39747 0.53209653,0.53209653 0 0 0 0.230789,0.147448 c 0,0.03206 0.03847,0 0.108984,0 a 2.8976824,2.8976824 0 0 1 -0.230789,-0.500043 c -0.08333,-0.211556 -0.0577,-0.429523 -0.147449,-0.602615 0.0064,-0.0064 -0.03846,0.03206 -0.03846,0.03206 z m 0.256432,-2.269424 a 3.782373,3.782373 0 0 0 -0.256432,1.628344 c 0,0.03846 0,0.03846 0.0641,0.07052 0.08334,-0.384649 0.16027,-0.737242 0.230789,-1.096246 a 1.1218903,1.1218903 0 0 0 0.04487,-0.70519 0.23719967,0.23719967 0 0 0 -0.08333,0.102574 z m 2.442515,0.923155 a 0.23719967,0.23719967 0 0 1 0,0.07052 0.23719967,0.23719967 0 0 0 0,-0.07052 z m 2.391229,-3.686211 a 4.2695939,4.2695939 0 0 0 -0.294897,0.384649 c -0.173091,0.250021 -0.153859,0.423113 0,0.532095 a 1.1347119,1.1347119 0 0 1 0.294897,0.256433 c 0.185913,0.250022 0.474399,0.217968 0.762885,0.185913 a 1.2436955,1.2436955 0 0 0 0.64108,-0.55774 c 0.31413,-0.596203 0.4744,-0.698777 0.756475,-1.28216 0.72442,-1.333447 -0.455167,-1.032139 -1.044961,-0.64108 a 7.1288112,7.1288112 0 0 0 -1.115479,1.12189 z m -4.570901,1.737328 c 0,0.217967 -0.134628,0.211557 -0.115394,0.391059 a 7.2185624,7.2185624 0 0 1 -0.576973,1.28216 c -0.282075,0.56415 -0.596205,1.128301 -0.87828,1.692452 -0.391059,0.64108 -0.775706,1.192409 -1.166765,1.788613 -0.173092,0.250022 -2.096333,2.346353 -2.288657,2.487391 -0.500042,0.307718 -1.391143,1.218052 -1.859133,1.493717 a 9.5008077,9.5008077 0 0 1 -1.673219,0.583382 4.7952795,4.7952795 0 0 1 -1.397554,-0.0577 C 59.837372,35.95467 58.85011,34.839191 58.574445,34.153235 a 4.3272911,4.3272911 0 0 1 -0.391059,-0.96162 8.1288963,8.1288963 0 0 1 -0.08976,-1.743738 c 0.333362,-2.974612 0.737243,-3.391313 1.923241,-6.244121 0.102573,-0.250022 0.16027,-0.461578 0.256432,-0.705188 a 4.3913991,4.3913991 0 0 1 0.294896,-0.705189 c 0.15386,-0.391058 0.307719,-0.775707 0.455168,-1.1283 0.262842,-0.775708 1.346268,-2.109155 0.506453,-2.301479 -0.243611,-0.03846 -0.461578,0 -0.64108,-0.185913 -0.179502,-0.185913 -0.397471,-0.256433 -0.596205,-0.39747 a 0.48722092,0.48722092 0 0 1 -0.179502,-0.32695 0.70518816,0.70518816 0 0 1 0.185914,-0.06411 L 61.80548,19.09426 a 8.8917818,8.8917818 0 0 1 1.051373,-0.128216 0.55132893,0.55132893 0 0 0 0.391058,-0.275664 7.0967573,7.0967573 0 0 0 0.455167,-0.846226 c 0.429523,-0.64108 0.762885,-1.371912 1.230874,-2.006581 a 7.9878587,7.9878587 0 0 1 1.346268,-1.468074 2.2501914,2.2501914 0 0 1 0.282075,-0.275664 0.58979374,0.58979374 0 0 1 0.480811,-0.134627 c 0.211557,0.07052 0.435933,0 0.685955,0 0.03846,0 0.03846,0 0.07693,-0.03846 0.512865,-0.09616 0.641081,0.115394 0.762885,0.512864 a 2.2886563,2.2886563 0 0 1 0.128217,1.134712 2.4040507,2.4040507 0 0 0 0,0.570561 1.1539443,1.1539443 0 0 1 -0.0577,0.493632 c -0.0577,0.173092 -0.108984,0.352594 -0.173092,0.56415 l -0.307718,0.846227 a 0.73083137,0.73083137 0 0 1 -0.07052,0.282074 0.52568573,0.52568573 0 0 0 0.352594,0.07693 l 1.333447,-0.08334 h 1.865542 a 4.8657984,4.8657984 0 0 1 0.641081,0.115394 c -0.08334,0.102573 -0.128217,0.173092 -0.166682,0.211557 A 1.3398575,1.3398575 0 0 1 71.844793,18.8186 c -0.262843,0.102574 -0.564152,0.2372 -0.833404,0.339773 a 0.03846481,0.03846481 0 0 1 -0.03846,0.03846 7.4685837,7.4685837 0 0 1 -1.28216,0.153859 3.1477036,3.1477036 0 0 0 -0.762886,0.09616 2.6861259,2.6861259 0 0 1 -0.480811,0.102573 l -0.833404,0.08975 a 0.55132893,0.55132893 0 0 0 -0.320539,0.282075 c -0.03846,0 -0.04487,0.07052 -0.08334,0.102573 -0.564151,1.19882 -1.28216,2.320711 -1.865543,3.487477 a 3.6669785,3.6669785 0 0 0 -0.217967,0.384648 5.5325217,5.5325217 0 0 0 -0.55133,1.057782 5.4043057,5.4043057 0 0 1 -0.570561,0.910334 c -0.173091,0.250021 -0.173091,0.564151 -0.378237,0.814172 a 16.668083,16.668083 0 0 0 -1.346268,4.904263 6.269764,6.269764 0 0 0 0.173092,1.634754 1.7950245,1.7950245 0 0 0 0.275664,0.435935 c 0.03847,0 0.07052,0.03206 0.141037,0.03206 a 2.8271634,2.8271634 0 0 0 1.282161,-0.153859 c 0.230788,-0.141038 1.397555,-0.974442 1.634755,-1.147534 a 16.853997,16.853997 0 0 0 2.39764,-2.519445 c 0.391058,-0.596204 0.641079,-1.371911 1.04496,-1.92324 0.185913,-0.352594 0.64108,-1.12189 0.852637,-1.506539 0.230788,0.01283 0.493631,-0.147448 0.448756,-0.01923 z m -4.95555,-5.320967 c 0.455167,-0.878279 0.64108,-1.589878 -0.64108,-0.859046 -0.525686,1.160355 -0.762885,1.974527 -1.205231,3.064363 -1.12189,2.929736 0.269254,0.750065 0.923155,-0.551329 a 14.744843,14.744843 0 0 1 0.923156,-1.653988 z m 1.564236,-4.058036 c 0.0577,-0.141038 0.108982,-0.31413 0.16668,-0.493632 0.07052,-0.282075 0.173091,-0.564151 0.2372,-0.846227 a 4.3978099,4.3978099 0 0 0 0.07693,-0.948798 c 0,-0.141038 -0.128217,-0.179502 -0.205147,-0.108983 a 0.8911014,0.8911014 0 0 0 -0.359005,0.346183 4.4106315,4.4106315 0 0 0 -0.467988,0.916745 c -0.04487,0.102573 -0.128215,0.211556 -0.173092,0.314129 A 4.9042632,4.9042632 0 0 0 66.1456,16.677389 c -0.115393,0.352594 -0.230788,0.737242 -0.378236,1.128301 -0.250021,0.916746 0.750064,0.968031 1.03855,0.333363 0.108983,-0.359006 0.224378,-0.7116 0.333362,-1.102658 z M 49.349301,38.018948 c -0.141037,0 -0.141037,0 -0.487221,0.205146 0,0 0,-0.07052 0,-0.108983 0,-0.03846 -0.07052,-0.03846 -0.09616,-0.108985 -0.08334,0.07052 -0.192324,0.07052 -0.237199,0.173092 a 1.8334893,1.8334893 0 0 1 -0.602616,0.243611 c -0.07052,0 -0.07052,0 -0.243611,-0.03846 0.04487,-0.07693 0.04487,-0.108985 0.08975,-0.179502 -0.108984,0 -0.185914,0.07052 -0.294896,0.0641 a 0.22437805,0.22437805 0 0 1 -0.185914,0.108983 c -0.307719,0.173092 -0.442346,0.09616 -0.55774,-0.185913 a 1.1795875,1.1795875 0 0 0 -0.185913,-0.570561 2.1860834,2.1860834 0 0 1 -0.205146,-1.032139 1.8142569,1.8142569 0 0 1 0.173092,-0.564151 4.3272911,4.3272911 0 0 1 0.750064,-1.28216 13.815277,13.815277 0 0 1 2.102743,-2.096332 c 1.500128,-1.218052 1.327036,-1.577057 1.019317,-2.647661 a 7.8916966,7.8916966 0 0 0 -0.666723,-2.051457 c 0,-0.141037 -0.115394,-0.250021 -0.141038,-0.391058 a 12.988283,12.988283 0 0 1 -0.583383,-3.699033 c 0.08334,-0.07053 0.05129,-0.141038 0.141037,-0.282075 a 0.95520944,0.95520944 0 0 1 0.250022,-0.641081 c 0.04487,-0.102573 0.179503,-0.314129 0.08975,-0.493631 0.128216,-0.179503 0.192324,-0.423114 0.32054,-0.602617 0.128216,-0.179502 0.173092,-0.275664 0.269254,-0.487221 a 2.1796726,2.1796726 0 0 1 0.250021,-0.320538 l 0.39747,-0.641081 c 0.173092,-0.282076 0.416702,-0.493632 0.583383,-0.737242 0.04487,-0.07052 0.08334,-0.07052 0.153859,-0.102574 a 0.59620455,0.59620455 0 0 0 0.24361,-0.24361 c 0.128216,-0.141039 0.205146,-0.211557 0.269254,-0.141039 a 1.6091112,1.6091112 0 0 1 0.596205,0.435935 0.08975122,0.08975122 0 0 1 0.0641,0.03846 c 0.307718,0.147448 0.730832,1.461662 0.718009,1.92324 a 0.34618329,0.34618329 0 0 0 0.03846,0.282076 2.0578672,2.0578672 0 0 1 -0.141037,0.641081 5.1286413,5.1286413 0 0 1 -0.391059,0.916744 c -0.08975,0.134627 -0.134622,0.243612 -0.282071,0.275665 a 1.0898363,1.0898363 0 0 0 -0.326951,0.352593 c -0.05129,0.102574 -0.205145,0.205147 -0.185912,0.384649 a 0.23719967,0.23719967 0 0 1 -0.05129,0.108984 5.3594302,5.3594302 0 0 0 -0.352594,0.55774 2.3655858,2.3655858 0 0 0 -0.179502,1.28216 1.3847331,1.3847331 0 0 0 0.307718,0.467988 c 0.423113,0.397471 0.64108,1.743738 1.012907,2.141209 0.16668,0.147447 0.121805,0.532096 0.24361,0.679545 0.237201,0.782117 1.487306,-0.15386 2.448927,-0.391059 0.583382,-0.378238 1.160355,-0.762886 1.750148,-1.179588 0.423113,-0.275665 0.852636,-0.589794 1.282161,-0.903923 a 7.0518816,7.0518816 0 0 0 0.756474,-0.698777 c 0.198735,-0.173092 0.403881,-0.378238 0.641079,-0.589795 a 3.2054008,3.2054008 0 0 1 0.102574,0.352595 0.71159896,0.71159896 0 0 1 -0.108985,0.64108 c -0.05129,0.102573 -0.128216,0.173092 -0.141037,0.282075 a 2.8207527,2.8207527 0 0 1 -0.39747,0.64108 c -0.205146,0.211556 -0.339772,0.493632 -0.544918,0.698777 -0.205145,0.205147 -0.352594,0.282076 -0.512864,0.416703 l -0.826994,0.64108 -0.16027,0.141037 a 12.32156,12.32156 0 0 0 -1.237284,0.833404 4.9811928,4.9811928 0 0 1 -0.429524,0.307719 c -0.775707,0.525686 -1.852722,0.506453 -1.961705,1.461663 a 2.0001701,2.0001701 0 0 1 -0.230789,1.416787 c 0,0.108983 -0.0577,0.179502 0,0.282075 -0.08334,0.108984 -0.05129,0.141038 -0.05129,0.141038 -0.166681,0.211556 -0.141037,0.602615 -0.2372,0.814172 a 0.4359345,0.4359345 0 0 1 -0.198735,0.173092 c -0.03846,0.03846 -0.07052,0.03846 -0.115394,0.07052 a 5.3530193,5.3530193 0 0 0 -0.506453,0.64108 12.218988,12.218988 0 0 1 -1.615522,1.641165 c -0.128216,0.141038 -0.211556,0.243611 -0.326951,0.352594 a 1.9617053,1.9617053 0 0 1 -0.730832,0.410291 c -0.03846,0.03846 -0.07693,0.03846 -0.07693,0.07052 a 1.2821603,1.2821603 0 0 1 -0.72442,0.378238 c -0.07693,0.03846 -0.08334,0.07052 -0.153859,0.108982 0.134627,-0.269253 0.352593,-0.512863 0.621847,-0.788529 z m -1.064193,-2.96179 a 1.1090687,1.1090687 0 0 0 -0.596204,0.519275 1.4424304,1.4424304 0 0 1 -0.410291,0.455166 1.7052732,1.7052732 0 0 0 -0.410292,0.455168 2.423283,2.423283 0 0 1 -0.173092,0.564151 0.4038805,0.4038805 0 0 0 0,0.461577 c 0.128216,0.179502 0.250022,0.32695 0.378238,0.506453 a 0.29489687,0.29489687 0 0 0 0.397469,0 c 0.15386,-0.102574 0.269254,-0.205145 0.467989,-0.346183 0.198735,-0.141037 0.32054,-0.314129 0.480809,-0.455167 a 3.0194876,3.0194876 0 0 0 0.897514,-0.942388 1.032139,1.032139 0 0 0 0.16668,-0.243611 5.2825005,5.2825005 0 0 0 0.538508,-0.916744 10.673984,10.673984 0 0 0 0.40388,-1.025728 c 0.03206,0 0.03847,-0.07052 0.04487,-0.102573 0.128216,-1.134713 -1.346268,0.474399 -1.820668,0.891101 a 0.82058259,0.82058259 0 0 1 -0.365416,0.179502 z m -2.955379,-7.814767 c -0.0641,0.884691 0.256432,0.570562 1.609111,0.378237 a 3.3913141,3.3913141 0 0 0 1.814257,-0.859047 c 0.359005,-0.31413 0.711599,0.08334 0.871869,0.262842 a 4.7247607,4.7247607 0 0 1 -0.64108,0.910334 7.5134594,7.5134594 0 0 1 -3.51953,0.974443 c -0.916744,0.198734 -1.044961,0.64108 -1.442431,1.3655 l -0.179503,0.282076 a 4.8081011,4.8081011 0 0 1 -0.641079,1.051371 2.1796726,2.1796726 0 0 1 -0.2372,0.211557 l -0.410291,0.416701 a 2.6284287,2.6284287 0 0 1 -0.685956,0.698777 l -0.282075,0.282076 -0.39747,0.314129 a 0.50004252,0.50004252 0 0 1 -0.320539,0 1.7501487,1.7501487 0 0 0 -0.333363,-0.217967 0.89751222,0.89751222 0 0 1 0,-0.32054 c -0.03847,-0.32054 -0.108983,-0.602615 -0.429524,-0.641081 a 1.4103763,1.4103763 0 0 1 -0.320539,-0.326951 0.96162026,0.96162026 0 0 0 -0.384648,-0.397468 0.91033378,0.91033378 0 0 1 0.03206,-1.237285 1.6219328,1.6219328 0 0 1 0.609026,-0.641081 3.2502764,3.2502764 0 0 1 0.762885,-0.410291 8.8148522,8.8148522 0 0 1 1.346269,-0.4744 1.5962896,1.5962896 0 0 0 0.64108,-0.775706 25.873996,25.873996 0 0 0 1.006496,-3.2054 l 0.153859,-1.211643 a 0.3974697,0.3974697 0 0 0 0,-0.211557 c 0,-0.179502 -0.192325,-0.250021 -0.314129,-0.108982 a 0.26925367,0.26925367 0 0 0 -0.160271,0.17309 9.4431103,9.4431103 0 0 0 -0.807761,1.198821 c -0.64108,1.012907 -1.282159,2.102743 -1.923241,3.090007 -0.480809,0.737242 -0.916744,1.403965 -1.327035,2.179671 -0.679545,1.282161 -2.038634,2.519445 -2.660482,3.897769 a 1.4616628,1.4616628 0 0 1 -0.467989,0.641079 c -0.185914,0.07053 -0.288486,0.352595 -0.314129,0.564151 a 2.5643207,2.5643207 0 0 1 -0.192325,0.743652 1.6732192,1.6732192 0 0 1 -0.250022,0.346184 3.7887838,3.7887838 0 0 0 -0.461576,0.596205 9.795705,9.795705 0 0 0 -1.025728,2.718179 8.2250583,8.2250583 0 0 1 -0.288487,1.282161 0.87186903,0.87186903 0 0 1 -0.506453,0.641079 1.0898363,1.0898363 0 0 0 -0.487222,0.525687 c -0.03847,0.03846 -0.16668,0.179502 -0.198734,0.173092 -0.03206,-0.0064 -0.173091,0.25002 -0.256432,0.352594 h -0.03847 c -0.583383,0.09616 -0.891101,-0.333362 -1.032139,-1.006496 a 8.1288963,8.1288963 0 0 1 -0.108979,-2.128387 30.874421,30.874421 0 0 1 0.820581,-5.026067 c 0.147449,-0.673135 0.371828,-1.378324 0.55133,-2.012992 a 25.072645,25.072645 0 0 1 1.044961,-3.205402 q 0.859047,-2.32712 1.807845,-4.551669 c 0.147449,-0.352594 0.320541,-0.641079 0.480811,-1.089836 0.544918,-1.057782 1.032138,-2.186084 1.589879,-3.27592 a 17.552774,17.552774 0 0 1 0.903923,-1.653987 0.3846481,0.3846481 0 0 1 0.532096,0 l 0.80135,0.544918 v 0.03846 a 3.9682863,3.9682863 0 0 1 0.685956,2.493802 4.9299064,4.9299064 0 0 1 -0.301308,1.730917 c -0.314129,0.846226 -0.64108,1.762971 -1.089836,2.641251 -0.275664,0.56415 -0.570561,1.28216 -0.859047,1.92324 -0.794939,1.974527 0.378237,1.743738 0.692366,1.147534 0.141038,-0.282075 0.756476,-0.980852 0.903923,-1.333447 l 1.455252,-2.391229 a 4.4234531,4.4234531 0 0 1 0.775707,-1.12189 c 0.282076,-0.282075 0.570562,-0.64108 0.891101,-0.910334 a 1.423198,1.423198 0 0 1 0.826994,-0.378237 h 0.64108 c 0.333362,-0.07052 0.583383,0.217967 0.846226,0.474399 a 0.85904739,0.85904739 0 0 1 0.282075,0.673135 7.6288538,7.6288538 0 0 1 0,0.852636 v 1.032139 z m -4.487562,2.731001 a 0.88469058,0.88469058 0 0 0 -0.448755,0.775707 c 0,0.179503 0.108983,0.320541 0.211556,0.326951 0.102573,0.0064 0.192324,-0.07052 0.269254,-0.141038 a 1.5450032,1.5450032 0 0 0 0.512864,-0.416701 c 0.455167,-0.525687 0.641079,-1.089837 0.532096,-0.87828 -0.429523,0.166681 -0.743653,0.09616 -1.089836,0.333361 z m -13.154964,-7.180097 0.03846,-0.03846 a 1.0962471,1.0962471 0 0 1 0.314129,-0.243611 c 0.403881,-0.0641 1.371912,-0.685956 1.705274,-0.467988 0.08975,0.141038 0.429523,0.326951 0.557739,0.467988 a 0.80135019,0.80135019 0 0 1 0,0.782118 c -0.262843,0.455167 -0.56415,0.87828 -0.916744,1.43602 -0.08975,0.211557 -0.185914,0.391059 -0.237201,0.532096 -0.179502,0.31413 -0.371826,0.737242 -0.583382,1.051373 -0.192324,0.423113 0.602615,-0.910334 0.493632,-0.55774 a 0.77570698,0.77570698 0 0 1 -0.141037,0.282071 2.5066235,2.5066235 0 0 0 -0.455167,1.19882 c -0.04487,0.352594 -0.391059,2.160441 -0.391059,2.47457 a 0.968031,0.968031 0 0 0 0.224378,0.538507 3.5579949,3.5579949 0 0 0 0.506454,0.288486 c 0.16668,0.147448 0.352594,0.07693 0.57056,0.04487 3.090008,-1.012906 2.057867,-1.423198 3.981108,-3.2054 a 6.3595152,6.3595152 0 0 0 1.064194,-1.442431 c 0,-0.03206 0,-0.03206 0.128215,-0.211556 0.141037,0.359005 -0.307718,0.846226 0.179503,0.96162 -0.923155,1.339857 -1.673219,3.282331 -2.95538,3.968287 -0.410291,0.455166 -3.083595,2.56432 -4.590134,1.92324 -0.519274,0.173091 -0.929566,-0.333362 -1.44243,-0.55133 a 2.5643207,2.5643207 0 0 1 -0.948799,-0.794939 3.9041781,3.9041781 0 0 1 -0.198735,-1.423197 2.102743,2.102743 0 0 1 0,-0.641081 13.853742,13.853742 0 0 1 0.352594,-1.51936 2.9682011,2.9682011 0 0 0 0.173092,-0.570561 c 0.07052,-0.03206 0,-0.211557 0.275666,-0.243611 0.03846,0 0.08975,-0.141037 0.128215,-0.173091 0.205146,-0.24361 0.269253,-0.455167 0.4744,-0.705189 0,0 -0.833405,0.737243 -0.326951,0.03206 0.365415,-0.705189 1.096246,-1.474484 1.371911,-1.961706 a 0.49363172,0.49363172 0 0 1 0.08975,-0.179502 c 0.128216,-0.211556 0.256432,-0.346183 0.211556,-0.596205 a 0.76929617,0.76929617 0 0 1 0.16027,-0.500041 c 0.04487,0.03846 0.07693,0.07693 0.185914,0.04487 z m 3.731087,-3.846482 a 1.3719115,1.3719115 0 0 0 -0.217969,0.314129 0.22437805,0.22437805 0 0 1 -0.08975,0.179503 c -0.115394,0.102573 -0.243611,0.24361 -0.40388,0.416701 a 1.1924091,1.1924091 0 0 1 -0.570561,0.275665 c -0.0641,0 -0.179503,0.03206 -0.262844,0.102574 a 0.44875612,0.44875612 0 0 1 -0.506453,0.03206 0.36541569,0.36541569 0 0 0 -0.275664,-0.07693 1.6219328,1.6219328 0 0 1 -0.391059,-0.03846 c 0.03846,-0.03847 0.08334,-0.108984 0.121805,-0.141039 a 2.0963321,2.0963321 0 0 1 0.147449,-0.352593 3.846481,3.846481 0 0 1 0.307717,-0.461579 c 0,-0.07052 0.121807,-0.134626 0.121807,-0.173091 0,-0.211555 0.224377,-0.384647 0.359004,-0.596204 l 0.250021,-0.31413 a 0.4359345,0.4359345 0 0 1 0.230789,-0.141037 0.17309165,0.17309165 0 0 1 0.179502,0 c 0,0.07693 0.0641,0.07693 0.141039,0.03846 0.07693,-0.03846 0.115394,-0.0641 0.147448,-0.03206 a 1.9232405,1.9232405 0 0 0 0.448756,0.147449 1.0513714,1.0513714 0 0 1 0.512864,0.538507 c -0.121804,0.141038 -0.173092,0.24361 -0.250021,0.31413 z M 11.961506,36.884236 c 0,-0.108983 -0.185912,-0.250021 -0.24361,-0.359004 0.08975,-0.141038 0.205146,-0.211557 0.250022,-0.31413 0.07052,-0.32054 0.07693,-0.64108 0.147448,-0.993674 0,-0.141038 0.03206,-0.250021 0.04487,-0.391059 a 2.2886563,2.2886563 0 0 0 0.262842,-1.339857 c 0,-0.07052 0.134627,-0.250021 0.147449,-0.391059 0.01283,-0.141038 0.128215,-0.173092 0.102573,-0.243611 -0.02564,-0.07052 0,-0.320541 0.205145,-0.56415 a 3.2054008,3.2054008 0 0 0 0.2372,-0.532097 c 0.307719,-0.775707 0.500043,-1.551415 0.80135,-2.288656 -0.173092,-1.35268 3.288741,-5.949224 0.641079,-5.27609 a 1.6988624,1.6988624 0 0 1 -0.564149,0.205147 c -2.750234,1.160354 -2.513035,0.987262 -3.506709,3.455421 -0.07693,0.352594 -0.185913,0.64108 -0.294897,1.025729 a 2.1540294,2.1540294 0 0 1 -0.128216,0.455166 c -0.5577385,1.166767 -0.7628845,2.333532 -1.6155215,3.52594 -0.07693,0 -0.07693,0.07052 -0.121805,0.141039 -0.7757071,0.839815 -0.64108,0.80135 -1.5578246,0.756474 -0.1410379,0 -0.2756642,-0.07693 -0.3910592,0 -0.4038805,0.06411 -0.5962044,-0.153859 -0.6026151,-0.40388 A 4.0131618,4.0131618 0 0 1 5.9353548,32.255637 C 6.441808,30.633706 7.1021207,28.941253 7.7880762,27.287266 8.6150705,25.665334 6.9226184,26.703884 6.9674936,25.364025 a 1.4103763,1.4103763 0 0 1 0.038469,-0.673133 c 0.1538594,-0.423113 0.1987345,-0.814172 0.3525938,-1.19882 0.1538595,-0.384648 0.1282156,-0.500042 0.032054,-0.609026 0.3077187,-0.487221 0.5705615,-0.942389 0.8846909,-1.474485 0.4743992,0.224378 1.0385492,0 1.7693807,-0.115395 a 1.871954,1.871954 0 0 0 1.134712,-1.153943 26.470201,26.470201 0 0 1 2.006581,-3.763142 c 0.532096,-0.948799 1.28216,-1.92324 1.92324,-2.916914 a 0.55132893,0.55132893 0 0 1 0.63467,-0.282076 l 0.775706,0.115395 c 0.346184,0.108984 0.359005,0.32054 0.217968,0.64108 -0.282075,0.564151 -0.641081,1.057783 -0.820583,1.551414 -0.179503,0.493632 -0.551329,1.051372 -0.826993,1.583468 -2.448927,3.295152 -0.205147,3.11565 2.56432,2.166851 0.08976,-0.179502 0.205146,-0.250021 0.256433,-0.384648 0.442344,-1.025728 0.794939,-1.621932 1.346267,-2.679715 a 5.1286413,5.1286413 0 0 0 0.391059,-0.916744 3.4105465,3.4105465 0 0 1 0.679545,-1.282161 2.7758771,2.7758771 0 0 0 0.39106,-0.910334 3.3400276,3.3400276 0 0 1 0.384647,-0.878279 c 0.429524,-0.641081 0.897513,-1.28216 1.327036,-1.923241 h 1.468075 a 3.6926217,3.6926217 0 0 1 1.923235,0.525686 1.0577822,1.0577822 0 0 1 0.551328,1.397555 5.7697215,5.7697215 0 0 1 -0.641079,1.230874 31.207783,31.207783 0 0 0 -2.141208,4.045215 c -0.750064,1.551413 1.134712,1.04496 2.089922,0.846226 0.185912,-0.03206 0.403879,-0.0641 0.448755,0.147449 -0.692366,0.09616 -1.461663,0.262842 -2.089921,0.397469 a 3.6798002,3.6798002 0 0 0 -0.929566,0.301308 1.6283437,1.6283437 0 0 0 -0.788529,0.980852 c 0.173092,0 0.461578,0.04487 0.673135,0.05129 a 0.87827984,0.87827984 0 0 0 0.40388,-0.102573 5.5645758,5.5645758 0 0 1 1.28216,-0.05129 2.3784075,2.3784075 0 0 0 0.826994,-0.0577 7.622443,7.622443 0 0 1 0.865457,0 2.6925367,2.6925367 0 0 1 -0.230788,-0.500043 2.1283861,2.1283861 0 0 1 0.217967,-0.64108 h 0.282075 l 0.08334,-0.0641 a 3.0835956,3.0835956 0 0 1 -0.31413,-0.435935 1.3526791,1.3526791 0 0 1 0.929566,1.006496 V 19.2353 a 0.36541569,0.36541569 0 0 1 -0.301307,0.102573 c -0.314129,0.564152 0.115395,0.570562 0.583382,0.576972 -0.544917,0.384649 -0.839814,0.128217 -1.237284,0.16027 0.237199,0.147449 0.365416,0.256433 0.56415,0.397471 -0.256432,0.07052 -0.538507,0 -0.72442,0.416702 0.173092,0.03846 0.384648,0.03846 0.64108,0.07693 -0.256432,0.07052 -0.448756,0.17309 -0.596205,0.205144 a 0.76288538,0.76288538 0 0 0 -0.493631,0.275665 3.0964173,3.0964173 0 0 1 0.448756,0.115394 26.399681,26.399681 0 0 0 -2.673304,0.814172 c -0.589795,0.166681 -1.282161,0.333363 -1.884777,0.532098 a 1.51936,1.51936 0 0 0 -1.032138,0.871868 8.2442907,8.2442907 0 0 0 -0.71801,1.92324 10.565001,10.565001 0 0 1 -0.512864,1.378323 c -0.339773,0.775707 -0.461578,1.557826 -0.762886,2.295068 -0.301307,0.737241 -0.448756,1.410376 -0.743652,2.115564 0,0.07052 -0.121806,0.141037 -0.205147,0.250021 -0.08333,0.108983 -0.08975,0.173092 -0.0577,0.211557 a 2.743823,2.743823 0 0 1 -0.365415,1.621932 c 0,0.108983 -0.0577,0.211556 -0.07052,0.282075 a 2.7245907,2.7245907 0 0 1 -0.51287,1.410375 c -0.0641,0.211556 -0.410291,0.423113 -0.64108,0.64108 a 1.7886136,1.7886136 0 0 0 -0.467988,0.0641 0.70518816,0.70518816 0 0 0 -0.294897,0.03206 c -0.512864,0.416702 -1.03855,0.301307 -1.551413,0.71801 -0.192325,0.102573 -0.08976,-0.179502 -0.243611,-0.07052 -0.15386,0.108983 -0.198735,0.205145 -0.2372,0.205145 -0.141038,0 -0.205146,-0.07052 -0.346183,-0.108983 l -0.320541,0.275664 c -0.480809,0.211557 -0.512863,0.16027 -0.621848,-0.141037 z M 9.6343855,21.626529 c -0.435933,0.102573 -0.564149,0.24361 -0.794938,0.698778 0.179502,0 0.384647,0.07693 0.602615,0.08333 0.217968,0.0064 0.230789,0.147448 0.282075,0.32054 -0.333362,0.141038 -0.64108,0.134626 -0.980852,0.487221 a 10.064958,10.064958 0 0 0 1.134711,-0.2372 c 0.2692535,-0.48722 0.5000425,-0.948799 0.7821175,-1.512949 a 5.2055708,5.2055708 0 0 1 -1.0257285,0.16027 z m 4.3401125,-0.923156 c -0.217967,0.03206 -0.41029,0.102573 -0.429524,0.314129 0.102573,0 0.173092,0.03847 0.211557,0 0.602615,-0.2372 1.096248,-0.48081 1.653987,-0.679545 a 3.9362322,3.9362322 0 0 1 0.72442,0 c 0,-0.03846 0.08333,-0.108984 0.08333,-0.141038 -0.288485,0 -0.551328,0.128216 -0.80776,0.166681 -0.480811,0.102574 -0.948799,0.205146 -1.43602,0.339773 z m 0.384648,0.711599 a 2.7374123,2.7374123 0 0 0 -0.64108,0.205146 0.57056133,0.57056133 0 0 0 0.64108,-0.205146 z m 2.339943,-0.102574 a 3.3143844,3.3143844 0 0 0 -1.237285,0.192325 2.0706889,2.0706889 0 0 1 -0.807761,0.166681 1.1090687,1.1090687 0 0 0 -0.711598,0.237199 13.187019,13.187019 0 0 0 2.916914,-0.416701 z m -0.09616,0.56415 a 0.80135019,0.80135019 0 0 0 -0.916746,0.166683 c 0.403881,-0.06411 0.602615,0.07693 0.916744,-0.166683 z"
   />
</svg>