<?xml version="1.0" encoding="UTF-8" standalone="no"?>

<svg
   width="100"
   height="60"
   viewBox="0 0 100 60"
   xmlns="http://www.w3.org/2000/svg"
   xmlns:svg="http://www.w3.org/2000/svg">

   <path
      style="stroke-width:0.484073"
      d="m 73.460238,34.658907 h 0.743168 V 37.77697 H 73.460238 L 72.21842,35.822071 v 1.954899 h -0.757558 v -3.118063 h 0.743179 l 1.241808,1.954898 z m -7.690626,2.67821 a 1.6110032,1.6421151 0 0 1 0,-2.28723 1.5390838,1.5688063 0 0 1 1.112363,-0.449627 1.5199047,1.5492575 0 0 1 1.107565,0.449627 1.6205924,1.6518896 0 0 1 0,2.28723 1.6157983,1.6470024 0 0 1 -2.219928,0 z m 1.692509,-0.488724 a 1.0308501,1.0507582 0 0 0 0,-1.300008 0.83426962,0.85038105 0 0 0 -1.169893,0 1.0308501,1.0507582 0 0 0 0,1.300008 0.83426962,0.85038105 0 0 0 1.169893,0 z m -6.60703,-2.189486 h 0.743178 v 2.53648 h 0.925364 v 0.576696 h -1.668542 z m -3.715852,3.098514 -0.167815,-0.522935 h -1.097978 l -0.167808,0.522935 h -0.791119 l 1.059622,-3.098514 h 0.906184 l 1.054826,3.118063 z m -1.078803,-1.09963 h 0.723995 l -0.364393,-1.109406 z m -5.19261,-1.4564 a 0.36439368,0.37143079 0 0 0 -0.230138,0.07331 0.26370592,0.2687986 0 0 0 -0.08627,0.219927 0.31165246,0.31767108 0 0 0 0.08153,0.224813 0.54179579,0.55225894 0 0 0 0.215758,0.131955 2.7713095,2.8248288 0 0 0 0.297264,0.09286 2.7185685,2.7710691 0 0 1 0.321245,0.09775 1.6685391,1.700762 0 0 1 0.292477,0.151504 0.5993316,0.61090591 0 0 1 0.21576,0.24925 0.77673377,0.79173404 0 0 1 0.08153,0.386092 0.87262687,0.889479 0 0 1 -0.31165,0.679329 1.2274315,1.2511353 0 0 1 -0.829473,0.278572 1.2993507,1.324444 0 0 1 -0.834266,-0.254136 0.84385894,0.8601555 0 0 1 -0.311661,-0.713538 h 0.791119 a 0.34521505,0.35188181 0 0 0 0.37399,0.37143 0.35000963,0.35676905 0 0 0 0.249321,-0.08798 0.27808987,0.28346034 0 0 0 0.09112,-0.219926 0.28767915,0.29323484 0 0 0 -0.08153,-0.215038 0.47946529,0.48872473 0 0 0 -0.215759,-0.131957 2.7713095,2.8248288 0 0 0 -0.297271,-0.09286 c -0.105478,-0.02933 -0.21576,-0.06354 -0.321237,-0.102632 a 1.6685391,1.700762 0 0 1 -0.292478,-0.151504 0.58494764,0.59624417 0 0 1 -0.215758,-0.244363 0.80070705,0.81617029 0 0 1 -0.08153,-0.386092 0.82947501,0.84549378 0 0 1 0.316455,-0.693989 1.2370207,1.2609099 0 0 1 0.81029,-0.263911 1.3137349,1.3391057 0 0 1 0.795913,0.2297 0.82468035,0.84060654 0 0 1 0.316454,0.718425 h -0.805509 a 0.44110812,0.44962675 0 0 0 -0.105478,-0.259024 0.32603641,0.33233282 0 0 0 -0.230149,-0.08798 z m -9.613272,1.343993 v 1.212037 h -0.738376 v -3.098514 h 1.217833 a 1.1651003,1.1876011 0 0 1 0.824682,0.278572 0.88701085,0.90414079 0 0 1 0.297272,0.67444 0.95893062,0.97744959 0 0 1 -0.163016,0.513161 0.86303755,0.87970456 0 0 1 -0.52741,0.361656 l 0.747961,1.270685 h -0.882216 l -0.685633,-1.212037 z m 0,-1.324444 v 0.747749 h 0.479457 a 0.38357221,0.39097978 0 0 0 0.268505,-0.09775 0.37877762,0.38609253 0 0 0 0.09586,-0.268798 0.36439368,0.37143079 0 0 0 -0.100685,-0.273686 0.34042036,0.34699456 0 0 0 -0.263708,-0.107519 z m -4.689177,2.536481 v -3.098514 h 0.743178 v 3.113176 z m -3.71585,0 -0.172611,-0.522935 h -1.093182 l -0.167809,0.522935 h -0.791119 l 1.04044,-3.098514 h 0.901391 l 1.05962,3.118063 z m -1.078804,-1.09963 h 0.719203 l -0.345213,-1.109406 z m -4.813826,-1.998884 h 0.743168 v 3.113176 h -0.743168 v -1.304896 h -1.174695 v 1.290234 h -0.743169 v -3.098514 h 0.743169 v 1.246247 h 1.174695 z M 99.5,28.139319 v 2.194373 H 93.084751 V 30.23106 c 0.47947,0 0.637689,-0.669552 0.637689,-1.431964 v -4.804163 c 0,-0.693989 -0.153432,-1.466174 -0.637689,-1.466174 v -0.08797 h 6.271409 v 2.297007 h -0.0863 c 0,-2.184599 -3.001454,-2.194374 -3.001454,-2.194374 h -0.393145 v 3.758293 h 0.887009 a 1.2945567,1.3195569 0 0 0 1.299357,-1.324444 h 0.09587 v 2.746633 h -0.09587 A 1.30894,1.3342186 0 0 0 96.76227,26.399463 h -0.896599 v 3.831602 h 0.393162 c 0,0 3.145302,0.122181 3.145302,-2.091741 z M 89.483968,22.440788 v 0.09286 c -0.479458,0 -1.179482,0.346995 -2.032928,2.316556 l -2.167184,5.478603 h -0.316453 c -2.94871,-6.597786 -3.10214,-6.891021 -3.10214,-6.891021 -0.393165,-0.894366 -0.560971,-0.884591 -0.867837,-0.904141 v -0.09286 h 3.658325 v 0.09286 c -0.757559,0 -0.15343,1.29512 -0.15343,1.29512 l 1.7069,3.865813 1.13154,-2.844377 c 0.326036,-0.830832 0.129446,-2.316556 -1.189076,-2.316556 v -0.09286 z m -14.801094,0 h 0.05278 c 2.780898,6.50004 2.967889,6.866582 2.967889,6.866582 0.397956,0.899254 0.767142,0.909029 0.987696,0.928578 v 0.09286 h -3.835727 v -0.06842 c 0.882219,0 0.220562,-1.309782 0.220562,-1.309782 l -0.350023,-0.772185 h -2.157592 c -0.215758,0.518048 0,2.081967 1.299346,2.081967 v 0.09286 H 70.70334 v -0.09286 c 0.330823,0 0.920572,-0.107519 1.769218,-2.081967 z m -1.112364,3.093628 -0.958928,2.521819 h 2.080878 z m -5.278907,-3.093628 v 0.09286 c -0.441112,0 -1.112365,0.346995 -1.917863,2.316556 l -1.917863,5.478603 h -0.397955 c -1.021259,-2.443625 -1.678131,-3.997769 -2.119236,-5.019204 l -1.759641,5.019202 h -0.393162 c -2.771304,-6.597783 -2.915146,-6.891018 -2.915146,-6.891018 -0.373981,-0.894366 -0.527409,-0.884591 -0.810301,-0.904141 v -0.09286 h 3.413798 v 0.09286 c -0.704814,0 -0.143842,1.29512 -0.143842,1.29512 l 1.658954,3.846264 0.882218,-2.497383 c -0.666459,-1.588355 -0.733583,-1.734973 -0.733583,-1.734973 -0.373988,-0.894366 -0.527417,-0.88459 -0.815093,-0.904141 v -0.09775 h 3.428174 v 0.09286 c -0.700019,0 -0.143842,1.29512 -0.143842,1.29512 l 1.649361,3.856038 0.992498,-2.834602 c 0.273297,-0.796621 0.02876,-2.316556 -1.088389,-2.316556 v -0.09286 z m -15.275766,4.002656 a 4.0131243,4.090626 0 0 1 -8.021458,0 4.0131243,4.090626 0 1 1 8.021458,0 z m -2.670626,0 c 0,-3.064305 -0.04318,-3.997768 -1.337702,-3.997768 -1.294561,0 -1.361685,0.933463 -1.361685,3.997768 0,3.064304 0.05277,3.909797 1.361685,3.909797 1.308934,0 1.356884,-0.825944 1.356884,-3.909797 z m -8.687909,3.787616 v 0.102632 h -2.186365 c -0.781524,0 -1.021258,-0.488724 -1.284967,-2.590241 -0.143834,-1.119178 -1.438395,-1.050757 -1.438395,-1.050757 h -0.54179 v 2.375201 c 0,1.094745 0.04318,1.163165 0.508228,1.163165 v 0.102632 H 33.424887 V 30.23106 c 0.479459,0 0.575351,0 0.575351,-1.163165 v -5.532362 c 0,-0.698878 -0.09112,-0.977449 -0.575351,-0.977449 v -0.117296 h 3.121317 c 2.186358,0 4.156963,0.268799 4.156963,2.140615 0,1.681213 -1.519906,2.028207 -2.574734,2.028207 1.265794,0 1.917862,0.278574 2.44048,2.297007 a 1.6685391,1.700762 0 0 0 1.088389,1.324443 z m -3.538455,-5.64477 c 0,-2.140614 -0.287677,-2.037982 -1.572643,-2.037982 h -0.340419 v 4.041753 h 0.340419 c 1.4288,0 1.572643,0.02444 1.572643,-2.003771 z m -8.548868,3.059417 0.11028,2.262795 a 6.0460578,6.1628188 0 0 1 -2.569932,0.522936 c -2.349383,0 -4.439847,-1.51016 -4.439847,-4.041753 0,-2.531595 2.090464,-4.041754 4.439847,-4.041754 1.438394,0 2.306222,0.303009 2.569932,0.51316 l -0.11028,2.262796 H 29.4837 c -0.330835,-2.316555 -1.572652,-2.678211 -2.397333,-2.678211 -1.217842,0 -1.735664,0.874818 -1.735664,3.944009 0,3.06919 0.560978,3.944007 1.759642,3.944007 0.747959,0 1.999366,-0.4594 2.397321,-2.687985 z M 18.791604,22.440788 v 0.09286 c -0.479467,0 -0.714407,0 -0.714407,0.97745 v 5.556799 c 0,1.065421 0.254121,1.163165 0.714407,1.163165 v 0.102632 h -3.62476 v -0.102631 c 0.479468,0 0.7144,-0.09775 0.7144,-1.163165 v -5.532362 c 0,-0.977449 -0.239726,-0.977449 -0.7144,-0.977449 v -0.117296 z m -10.0400053,0 h 2.6802123 v 0.102633 c -0.537005,0 -0.51303,0.146617 -0.51303,0.830832 v 5.908681 c 0,0.757523 0.08628,0.938352 0.623302,0.938352 v 0.102632 H 8.171445 v -0.102632 c 0.5178223,0 0.5609741,-0.180829 0.5609741,-0.938352 V 22.748685 L 5.9083687,30.431438 H 5.8076811 L 2.2452536,23.691925 v 3.670322 c 0,1.466173 0.4075463,2.868813 1.6829236,2.868813 v 0.102632 H 0.5 V 30.23106 c 1.1746901,0 1.6493607,-1.397753 1.6493607,-2.868813 V 23.52087 C 1.717842,22.748685 1.3678328,22.567856 1.0609738,22.543421 v -0.102633 h 3.1309095 l 2.6610317,5.156046 z" />
   <path
      style="fill:#c1d2db;stroke:#c1d2db;stroke-width:0;stroke-linecap:round;stroke-linejoin:round"
      d="m 42.691353,44.459298 a 5.4994671,5.6056726 0 0 1 3.960388,-0.141732 7.1296489,7.2673368 0 0 1 1.807581,0.948128 c 0.517823,0.361656 0.958936,0.723312 1.380858,1.001885 0.254123,0.166166 0.479469,0.317672 0.738385,0.454513 0.258906,0.136844 0.47946,0.219927 0.704814,0.327446 a 5.9885217,6.1041718 0 0 0 1.519897,0.351883 6.2330491,6.3534215 0 0 0 3.073378,-0.527823 c 0.04794,0.102632 -0.04318,0.332332 0.139047,0.303009 0.714401,-0.16128 0.824681,-0.02444 0.958928,0.180828 0.02876,0.04398 -0.100686,0.127069 -0.206174,0.190603 -0.105477,0.06354 -0.201368,0.102632 -0.08627,0.107519 -0.517823,0.307896 -1.476749,0.650003 -0.863034,0.562033 a 1.6637445,1.6958748 0 0 0 0.599333,-0.175941 1.5774406,1.6079043 0 0 1 0.604121,-0.195489 c 0.263709,0.02933 -0.02876,0.40564 0.239733,0.434964 A 7.009783,7.1451559 0 0 0 58.015102,47.7924 c 0.24932,-0.04888 0,0.410529 0.191783,0.268799 a 5.1782256,5.2782271 0 0 0 1.826765,-1.906027 c 0.04318,0.02932 0.119867,0 0.158223,0.0391 0.03834,0.0391 0.05277,0.08798 -0.07194,0.31767 a 8.2515987,8.4109528 0 0 1 -8.630379,3.362427 7.0864973,7.2233518 0 0 1 -1.587032,-0.591358 8.4290005,8.5917808 0 0 1 -1.376064,-0.874816 14.863419,15.150466 0 0 0 -2.076085,-1.466175 3.7877762,3.8609253 0 0 0 -1.965807,-0.371431 3.600784,3.6703227 0 0 0 -1.850728,0.698877 3.8357221,3.9097978 0 0 0 -1.256207,1.593242 c -0.249321,0.566921 -0.345212,0.07331 -0.263702,-0.488724 -0.02402,0.180828 -0.177403,0.10752 -0.191782,0.298121 -0.143844,-0.04888 -0.302065,-0.532709 0.115064,-1.226699 a 4.109018,4.1883709 0 0 0 -0.316443,0.488726 c -0.143843,0.146617 -0.143843,-0.07819 -0.239735,-0.136843 0.100684,-0.185715 0.215759,-0.35677 0.17261,-0.390981 l -0.182198,-0.12218 a 5.0871271,5.1853694 0 0 0 -0.460286,0.742862 c 0.08629,-0.200377 0.196578,-0.395867 0.148635,-0.420303 l -0.148635,-0.06842 a 5.8255038,5.9380054 0 0 1 0.958927,-1.295121 l -0.110275,-0.117299 a 4.3727235,4.4571694 0 0 0 -1.002084,1.329332 c 0.07195,-0.234588 0.02876,-0.263911 -0.06237,-0.322558 0.345213,-0.679328 0.958929,-1.11918 1.438397,-1.695876 a 5.374806,5.4786042 0 0 0 -0.560982,0.488726 1.8315572,1.8669285 0 0 1 0.776741,-0.865043 9.1098408,9.2857702 0 0 1 1.24181,-0.601132 z m 0,-34.1081 a 5.5282347,5.6349961 0 0 1 3.960388,-0.136843 6.8371754,6.9692145 0 0 1 1.807581,0.948127 c 0.517823,0.361656 0.958936,0.718425 1.380858,1.001886 0.254123,0.161278 0.479469,0.31767 0.738385,0.449626 a 7.0673185,7.2038023 0 0 0 0.704814,0.332333 6.1994865,6.3192107 0 0 0 1.519897,0.351882 6.3097634,6.4316174 0 0 0 3.073378,-0.527823 c 0.04794,0.09775 -0.04318,0.332332 0.139047,0.303009 0.714401,-0.166166 0.824681,-0.02444 0.958928,0.180828 0.02876,0.04398 -0.100686,0.127069 -0.206174,0.190603 -0.105477,0.06354 -0.201368,0.102632 -0.08627,0.102632 -0.517823,0.312783 -1.476749,0.650005 -0.863034,0.566921 a 1.7692268,1.8033942 0 0 0 0.59933,-0.175942 1.5774406,1.6079043 0 0 1 0.604121,-0.195488 c 0.263709,0.02933 -0.02876,0.40564 0.239733,0.434964 a 7.8200787,7.9711001 0 0 0 0.752761,-0.488724 c 0.24932,-0.04888 0,0.410528 0.191783,0.268799 a 5.2165822,5.317325 0 0 0 1.826765,-1.906028 c 0.04318,0.02933 0.119867,0 0.158223,0.0391 0.03835,0.0391 0.05277,0.08798 -0.07194,0.317671 a 8.0598121,8.2154627 0 0 1 -5.355624,3.460171 8.1221425,8.2789971 0 0 1 -3.274756,-0.09775 7.0864973,7.2233518 0 0 1 -1.587032,-0.591358 8.4290005,8.5917808 0 0 1 -1.395238,-0.874817 14.863419,15.150466 0 0 0 -2.076083,-1.466174 3.7398295,3.812053 0 0 0 -1.965806,-0.37143 3.600784,3.6703227 0 0 0 -1.850739,0.698876 3.8357221,3.9097978 0 0 0 -1.256199,1.593243 c -0.24932,0.562032 -0.345213,0.07331 -0.26371,-0.488725 -0.02401,0.180828 -0.177403,0.10752 -0.191783,0.298122 -0.143847,-0.04888 -0.302068,-0.532712 0.11507,-1.226702 a 4.109018,4.1883709 0 0 0 -0.316453,0.488725 c -0.143833,0.146618 -0.143833,-0.08308 -0.239725,-0.136841 0.100685,-0.185716 0.215759,-0.361657 0.172602,-0.39098 l -0.182195,-0.122182 a 5.0871271,5.1853694 0 0 0 -0.441105,0.76241 c 0.08629,-0.200377 0.196578,-0.395867 0.148636,-0.420303 L 40.011151,13.41061 a 5.9118074,6.0259759 0 0 1 0.958927,-1.290234 l -0.110271,-0.117294 a 4.3151876,4.3985226 0 0 0 -1.016472,1.324445 c 0.07194,-0.239476 0.02876,-0.263912 -0.06237,-0.322558 0.345222,-0.679329 0.958936,-1.119181 1.438395,-1.700764 a 6.0700313,6.1872551 0 0 0 -0.560971,0.488726 1.8315572,1.8669285 0 0 1 0.79112,-0.83572 9.7810925,9.9699857 0 0 1 1.24181,-0.606018 z"
   />

</svg>