<?xml version="1.0" encoding="UTF-8" standalone="no"?>

<svg
   width="100"
   height="60"
   viewBox="0 0 100 60"
   xmlns="http://www.w3.org/2000/svg"
   xmlns:svg="http://www.w3.org/2000/svg">

   <path
      style="fill:#c1d2db;stroke-width:0.588901"
      d="m 89.527037,11.710512 c 0,-0.35334 0.777355,0.5889 0.795025,-0.22379 a 3.197732,3.197732 0 0 0 -0.28856,-0.789123 7.0138101,7.0138101 0 0 0 -0.530015,-0.7184594 l -0.31212,-0.359229 -0.3769,-0.306229 c -0.25322,-0.200226 -0.50645,-0.418119 -0.78912,-0.588901 -1.14247,-0.742015 -2.42628,-1.266137 -3.49808,-2.002263 a 5.040992,5.040992 0 0 0 -1.28969,-0.930463 0.67723607,0.67723607 0 0 0 -0.0353,0.29445 c -0.34157,-0.07656 -0.80091,-0.08834 -1.24847,-0.147225 a 5.4944457,5.4944457 0 0 1 -1.26025,-0.217893 c -0.20023,0.100113 -0.34156,0.512344 0,0.424008 a 2.0317082,2.0317082 0 0 1 -1.38392,-0.17667 c -0.40634,-0.17667 -0.78324,-0.365118 -1.06591,-0.141336 0.54768,0.194337 -0.45934,0.459343 0.17667,0.588901 -1.06591,0.223782 -1.21902,-1.272026 -2.17894,-1.219025 0,0.123669 -0.0589,0.253227 0.12956,0.241449 a 1.925706,1.925706 0 0 0 -0.95402,0 9.3870808,9.3870808 0 0 0 -0.98935,0.353341 c -0.63601,0.223782 -1.14247,0.453454 -1.38981,0 l -0.22378,0.553567 c -0.54768,-0.11778 -0.55356,-0.412231 -1.30147,-0.170782 -0.3769,0.371008 0.18256,0.329785 0.0883,0.553567 -0.18256,-0.141336 -0.55357,0 -0.98346,0.12367 a 2.7030553,2.7030553 0 0 1 -1.31914,0.247338 c -0.18845,-0.265006 0.17078,-0.229671 0.5889,-0.223782 a 2.4616059,2.4616059 0 0 0 0.63012,-0.05889 0.52412183,0.52412183 0 0 0 0.41812,-0.341562 c -0.0412,-0.11778 -0.13544,-0.111891 -0.25911,-0.06478 a 10.011316,10.011316 0 0 1 1.11302,-0.429898 7.6557121,7.6557121 0 0 1 1.11891,-0.217893 12.531812,12.531812 0 0 1 2.13182,-0.100113 c 0.67724,0 1.33092,0.07656 1.94337,0.02944 a 5.8124522,5.8124522 0 0 0 1.8256,-0.24145 c 0.5889,0.424009 0.95402,0 1.1778,-0.482898 -0.44757,-0.176671 -1.83737,-0.541789 -1.7667,0.394563 l -0.86569,-0.471121 c -0.29445,0.08834 -0.44756,-0.806794 -0.5889,-0.936352 0.5889,0 1.177801,-0.959909 0.28856,-1.177802 0.81857,-0.170781 0.74202,0.323896 0.65368,0.806794 -0.0883,0.482899 -0.18845,0.948131 0.46523,0.736127 l 0.12956,-0.677237 c -0.21789,0.353341 0.98347,0.588901 1.41336,0.347452 l -0.18844,-0.123669 a 26.194313,26.194313 0 0 1 6.09512,0.842128 16.948569,16.948569 0 0 1 5.771225,2.838503 1.2072469,1.2072469 0 0 0 0.23556,1.06591 5.6004478,5.6004478 0 0 0 0.81857,0.671347 4.440313,4.440313 0 0 1 0.83624,0.671347 0.96579753,0.96579753 0 0 1 0.13545,0.9599084 c 0.429901,0.241449 0.106,-0.853906 0.759681,-0.259116 a 0.35334056,0.35334056 0 0 1 -0.11189,0.5889 l 0.329779,0.253231 a 3.0917299,3.0917299 0 0 1 -2.102369,0.83624 4.3460889,4.3460889 0 0 1 -1.28381,-0.1649 l -0.34156,-0.10011 -0.376901,-0.10011 c -0.24733,-0.0648 -0.506445,-0.15312 -0.765564,-0.25912 z m -31.72409,4.43442 c 0,0 0,-0.0353 0,-0.0589 0,-0.0236 0.0412,-0.0353 0,0.0589 z M 78.602927,6.0865046 v 0 l -0.0824,-0.053 z m -7.87361,1.007021 -0.22967,0.11778 a 1.4251403,1.4251403 0 0 1 0.22967,-0.11778 z m -0.22967,0.11778 a 1.9315951,1.9315951 0 0 1 -0.34156,0.188448 z m 12.80271,-0.29445 c -0.35923,0.04711 -0.47701,-0.08245 -0.50057,-0.253228 a 0.67134706,0.67134706 0 0 1 0.50057,0.253228 z m -3.11529,-1.919817 c -0.53001,0.02945 -0.28856,0.05889 0,0.164892 0.28857,0.106002 0.58891,0.335673 0.20023,0.636013 0.106,-0.288562 0.6419,-0.665458 -0.20023,-0.800905 z m -3.73363,-0.918686 c 0.4299,-0.459343 -0.22378,-0.588901 -0.79502,-0.388674 0.5359,-0.100114 0.86569,0.135447 0.79502,0.388674 z m -2.44983,-0.217893 -0.13545,0.765571 0.49468,-0.565345 z m -2.39682,0.924574 0.78912,0.07067 a 0.58890093,0.58890093 0 0 0 -0.81268,0.08834 c -0.18845,0.170781 -0.22378,0.288561 0.0236,-0.159004 z m -6.54858,2.544052 c -1.31325,0.683125 0.62423,0.500566 -0.73024,1.319138 l 0.5889,-0.553567 0.63601,-0.535899 z m 1.64303,-0.04711 h 0.5889 l -0.49468,-0.259116 a 3.3744023,3.3744023 0 0 1 1.33092,-0.588901 6.6781365,6.6781365 0 0 1 1.35447,-0.07656 c 0.84213,0 1.59004,0.147225 2.06116,-0.265006 a 2.0964873,2.0964873 0 0 1 0.92457,-0.677236 4.8819887,4.8819887 0 0 1 1.07769,-0.300339 c 0.37689,-0.04122 0.75968,-0.06478 1.13069,-0.111891 0.18845,0 0.37101,-0.053 0.55356,-0.09423 a 3.5334056,3.5334056 0 0 0 0.55357,-0.11778 c 0.63601,-0.588901 -0.76557,-0.100113 -0.90691,-0.300339 0,-0.89513 0.83035,0.247338 1.01291,-0.506455 0,-0.306228 -0.45934,-0.376897 -0.99524,-0.388675 a 9.6874203,9.6874203 0 0 1 -1.56059,0.053 c -0.5889,0.265006 -0.47112,0.47701 -0.52412,0.859796 -0.265,-0.259117 -0.88335,-0.11778 -1.1778,-0.365119 a 3.180065,3.180065 0 0 1 -1.46047,0.747904 2.1435994,2.1435994 0 0 0 -1.36625,0.848018 c -0.5889,-0.188449 0.75968,-0.588901 0.36512,-0.412231 l -0.58891,0.371008 h 0.10012 a 2.2731576,2.2731576 0 0 1 -0.588899,0.588901 4.463869,4.463869 0 0 1 -0.78913,0.494676 7.1139232,7.1139232 0 0 1 -1.472251,0.5359 c 0.47112,-0.164892 0.95402,-0.053 0.5889,0.400453 l -0.68313,-0.147225 c -0.15311,0.453453 -0.31211,0.88924 -0.44167,1.348583 0.42401,-0.942242 1.85504,-0.742015 1.40747,-1.637145 z m -2.93861,2.190712 -0.77735,0.5535664 c -0.10012,-0.5300104 0.82446,-0.8126834 0.67723,-1.2131354 -0.22967,-0.170782 -1.02469,0.388674 -0.88924,0 0.63601,0.865684 -0.91279,0.94813 0.25912,1.4663624 -0.78913,0.942241 -0.73613,-0.217893 -1.6077,0.753793 l 0.17078,0.665458 c 0.77146,-1.230803 1.31325,-1.030576 2.16716,-2.2260444 z m 1.61947,1.6606994 -0.0707,-0.388674 a 8.4095053,8.4095053 0 0 0 1.3427,-1.0070204 1.9787071,1.9787071 0 0 1 1.41925,-0.5359 c -0.38868,-0.229671 -0.17667,-0.959908 -0.97169,-0.506455 0,0.265006 -0.22967,0.459343 0,0.641902 -0.35334,0.170782 -0.4829,-0.11778 -0.75968,-0.04711 -0.28267,0.694903 -1.23669,1.1778014 -1.41336,1.7667024 0.13544,-0.23556 0.24145,-0.212004 0.41223,-0.306228 -0.4299,1.177798 -1.5547,0.282672 -1.24258,1.325028 0.0589,-0.51823 0.99524,-0.51823 1.2838,-0.942243 z m -2.10237,1.601815 c 0.12955,-0.35923 0.25911,-0.73613 0.41223,-1.08947 -0.15312,0.35334 -0.28268,0.73024 -0.41223,1.08947 z m -3.09762,0.42989 c 0.78912,-0.73612 -0.76557,0.10012 -0.0766,-0.6419 0.12956,-0.25911 -0.98936,1.1248 -0.79502,1.38981 0.24734,-0.12956 0.39456,-1.02469 0.87157,-0.74791 z m 2.47338,0.15901 c -0.35334,0.25911 -0.68312,0.5359 -1.02469,0.80679 l 0.35334,-0.10011 c 0.20023,-0.25323 0.43579,-0.50057 0.67135,-0.70668 z m -4.71121,0.71257 0.17079,-0.77735 z m 0.83624,-0.90691 c 0.5889,-0.25323 0.72435,-0.62424 1.05414,-1.26614 -0.5889,0.7538 -1.50759,1.76671 -1.48992,2.17305 l -0.0353,-0.12367 a 6.354241,6.354241 0 0 0 -0.36512,1.66659 c 0.24145,-1.04825 1.88448,-1.91393 0.83624,-2.44983 z m 2.22605,2.21427 -0.0824,-0.88924 -0.17667,0.37689 -0.32979,-0.265 a 1.3426941,1.3426941 0 0 1 -0.106,1.50758 c 0.53001,-0.11189 0.31212,-0.49467 0.6949,-0.73023 z M 5.6027675,50.566192 a 18.621047,18.621047 0 0 0 1.22491,1.62537 8.0738318,8.0738318 0 0 0 0.87158,0.74201 5.5121127,5.5121127 0 0 0 1.11891,0.70079 c 0.34745,-0.54178 0.73024,0.28856 1.1778,-0.21789 -0.40045,-0.24734 -0.22378,-0.14134 0.2532295,0.14134 0.11778,0.0648 0.24734,0.15311 0.40634,0.23556 l 0.51823,0.23556 c 0.37101,0.159 0.77146,0.35334 1.1778,0.51234 1.69604,0.5889 3.49219,0.81857 2.83262,0.50057 l -0.49468,0.17078 0.5889,-0.53001 a 11.189118,11.189118 0 0 0 1.27203,0.67134 1.3839172,1.3839172 0 0 0 1.1778,0.13545 c 0,0 -0.0825,0.0412 -0.27089,0.0412 -0.18845,0 -0.46524,-0.053 -0.79502,-0.106 -0.32979,-0.053 -0.73024,-0.10011 -1.14247,-0.21201 l -1.2838,-0.36511 c -0.43579,-0.12956 -0.84802,-0.32978 -1.24847,-0.47701 l -0.5889,-0.22378 -0.4829,-0.24734 c -0.5889,-0.30034 -0.97169,-0.4829 -0.93047,-0.40634 -0.0471,-0.24734 0.50646,-0.11189 1.34859,0.212 0.41812,0.16489 0.94813,0.28856 1.49581,0.47701 a 5.8006742,5.8006742 0 0 0 0.87746,0.22967 l 0.91868,0.21201 c 0.5889,0.11778 1.26025,0.18256 1.85504,0.265 l 1.6607,0.0589 a 5.5415578,5.5415578 0 0 0 1.81971,-0.24734 l 0.13544,0.40046 a 9.0455183,9.0455183 0 0 0 1.56059,-0.87158 9.3340797,9.3340797 0 0 1 1.31325,-0.85979 l 0.33567,0.43578 c -0.77735,0 -0.91279,0.34157 -1.6607,0.7008 a 6.1422367,6.1422367 0 0 1 1.44281,-0.19434 3.7630769,3.7630769 0 0 0 1.1778,-0.24145 c -0.20611,-0.5889 -0.93046,-0.0824 0.21789,-0.75379 0.2179,0.0825 0.17079,0.34745 0.20023,0.54179 0.0294,0.19433 0.15312,0.32978 0.6949,0.0648 a 1.3780282,1.3780282 0 0 0 1.08358,-0.72435 1.6018105,1.6018105 0 0 1 0.82446,-0.90691 l -0.84801,0.11778 c 0.39456,-0.212 1.09535,-0.63012 1.61947,-0.52412 -0.45345,0.19434 -1.50758,1.00113 -1.24258,1.60181 0.43579,-0.34745 1.61948,-0.5889 2.01404,-0.84213 l -0.053,0.5359 c 0.65368,0.13545 0.62424,-0.5889 1.38981,-0.54179 0.40045,-0.54179 -0.6419,-0.37101 -0.44168,-0.70668 a 2.1612664,2.1612664 0 0 0 1.5017,-0.81268 c -0.38867,-0.3239 -0.63601,-0.0824 -0.93635,0.18844 -0.30034,0.2709 -0.65368,0.58891 -1.1778,0.35334 a 10.853444,10.853444 0 0 0 1.02468,-0.40045 c 0.0412,-0.5889 -0.32389,-0.34745 -0.70668,-0.0766 -0.382779,0.2709 -0.83035,0.52412 -0.84801,0.11189 0.11778,-0.5889 0.5889,-0.5889 1.02468,-0.6419 0.43579,-0.053 0.89513,-0.11778 0.85391,-0.83035 -0.54179,0.0589 -1.83737,0.85391 -1.84915,0.43579 0.6419,0.0412 0.5889,-0.7538 1.1778,-1.21903 0.32979,-0.0353 0.65368,-0.106 0.98347,-0.15311 0.13544,-0.46523 -0.11778,-0.28856 -0.47112,-0.27679 a 3.2978452,3.2978452 0 0 0 1.05413,-0.48289 c 0.35334,-0.24145 0.70668,-0.5359 1.07769,-0.84213 a 11.242119,11.242119 0 0 1 2.42038,-1.7667 c 0.71846,-0.88336 -0.18845,-0.39457 -0.0589,-0.98936 0.81857,-0.0353 1.1778,-1.07769 1.6077,-1.54881 0.15311,-0.11778 -0.0471,-0.74201 -0.33567,-0.75968 -0.25323,0.47112 -0.51235,0.93635 -0.78913,1.38392 a 0.58890093,0.58890093 0 0 0 -1.01291,0 c 0.53001,0.25322 0.0353,0.53001 -0.50646,0.83035 -0.54178,0.30034 -1.09535,0.65957 -0.71845,1.1778 l -0.37101,-0.43578 c -0.39457,0.51234 -0.77735,1.06002 -1.1778,1.54292 h 0.0942 c -0.0589,-0.0707 -0.31212,0.25322 -0.67724,0.66545 a 4.7112074,4.7112074 0 0 1 -1.37803,1.06003 c 0.14134,-0.32979 1.69604,-1.17781 0.48879,-1.07769 0.429901,-0.69491 1.83148,-1.1778 2.738391,-2.31438 l -0.46523,-0.10012 c 0.72435,-1.3898 2.63238,-2.3026 3.66296,-3.70418 l 0.053,0.73023 c 0.588901,-0.31211 1.38981,-0.65368 1.41925,-1.38391 -0.45934,0.5889 -0.44167,0.106 -0.53001,-0.14134 0.418121,-0.94224 1.57826,-1.90804 2.23782,-3.15062 0,0 0.053,0.12367 0.14723,0.12367 0.212001,-0.44757 0.40045,-0.91869 0.588901,-1.37214 a 2.3968268,2.3968268 0 0 1 1.389809,-0.68901 c 0.0883,-0.25323 0.45934,-0.77735 0.0648,-0.74791 a 0.79501626,0.79501626 0 0 0 -0.22967,0.28267 c -0.053,-0.94224 0.43578,-0.32978 0.67134,-1.30736 0,0.87747 0.69491,0.19434 1.05414,0.54179 0.44167,-1.04235 -0.66546,-0.5889 -0.77735,-0.81268 0.97757,-0.94813 1.41925,-0.87157 2.24371,-1.95515 -0.21201,-0.22967 -0.6949,0.6949 -1.04824,0.5889 0.28267,-0.27678 0.50056,-0.67135 0.44167,-0.78913 l -0.65368,0.5889 a 10.011316,10.011316 0 0 0 2.52639,-3.5334 h -0.20023 l 0.54179,-0.82446 0.28856,0.5889 c 0.159,-0.52412 0.88924,-0.73613 0.65957,-1.21903 l -0.14134,0.14134 0.15312,-0.63013 0.111891,0.87158 c 0.65368,-0.5889 0.300339,-2.20249 1.13658,-3.32729 0.8009,0.16489 -1.06591,2.17304 -0.3239,2.85028 0.3769,-0.30034 0.936349,-0.87746 0.8598,-1.25436 -0.253231,-0.0942 -0.43579,0.18256 -0.588901,0.45934 0.212001,-1.30147 1.89037,-2.39094 1.60181,-3.5334 l -0.771459,0.5889 c 0.50645,-0.95991 1.7667,-0.9658 1.47814,-1.57826 l 0.34745,1.24258 c 0.20023,-1.1778 1.06002,-2.28493 1.35447,-3.33318 -0.45934,-0.34745 -0.83624,1.23081 -0.88335,1.10714 l -0.0883,-0.57124 c 1.1778,-1.13657 0.54179,-0.18255 1.93748,-1.58414 l -0.29445,-0.23556 c 0.84213,-0.18845 0.98936,-2.26138 1.41337,-1.1248 l -0.50646,0.28856 0.39456,0.22967 1.113029,-1.99048 c 0.12956,0.38278 0.73612,-0.5359 0.9069,0 l 0.20612,-0.90691 c 0.74202,0.11778 -0.35334,1.68426 0,2.04938 0.25323,0.159 0.46523,-0.1649 0.55357,-0.33568 -0.23556,1.06591 -1.41337,0.77146 -2.02582,1.5547 l 0.0471,0.63601 -0.44757,-0.35334 a 1.7195907,1.7195907 0 0 0 0.0471,1.14247 c -1.1778,0.34156 -1.03057,1.73137 -1.97871,2.8385 0.40635,-1.1778 -0.88335,0.33568 -0.88924,0.0825 -0.38278,0.55357 -0.44167,2.4675 -1.32502,2.56761 -0.43579,0.17667 0.10011,-0.90691 -0.50646,-0.20023 -0.265,0.54179 -0.23556,1.04825 0.20023,0.87158 -0.5889,1.21313 -1.53114,2.47338 -2.28494,3.70418 l -0.13544,-0.49467 a 2.3909378,2.3909378 0 0 0 -0.68902,2.23782 c -0.19434,0 -0.14133,0.14134 -0.25323,-0.0942 -1.1778,0.62424 -0.13544,1.6607 -1.28969,3.1624 0.50057,0.20611 1.01291,-0.4829 1.11891,-1.1248 l 0.42401,0.45934 a 18.202928,18.202928 0 0 0 2.1966,-4.31075 l 0.053,0.75379 c 1.30147,-0.5359 -0.22378,-1.11302 1.13658,-1.53114 0.24145,-0.78913 -0.5889,0.32389 -0.47112,-0.3239 0.45345,-0.38278 0.80679,0.68313 1.34858,-0.0942 -1.64303,3.15651 -3.82196,6.57803 -5.88901,9.72276 0.053,0.12367 0.20023,0 0.34157,-0.15312 0,0.75968 -1.97282,3.00929 -3.91619,5.07633 -1.94338,2.06704 -3.88086,3.88086 -3.40974,4.56987 -0.30034,0 -0.0589,-0.64779 -0.5889,-0.0471 0.0294,0.12956 0,0.38867 0.28856,0.41223 a 9.9406477,9.9406477 0 0 0 -2.79139,2.11415 10.417657,10.417657 0 0 1 -3.12118,2.23194 c 0.20023,0.18256 -0.17078,0.62423 -0.0824,0.78324 a 2.4616059,2.4616059 0 0 0 -1.50169,0.63012 3.3331793,3.3331793 0 0 1 -1.40748,0.68313 l 0.3769,0.15311 -0.5889,0.30034 -0.5889,0.25323 c -0.39456,0.17078 -0.78913,0.35334 -1.1778,0.50645 0,0.14134 0.30034,0 0.50645,-0.0353 a 0.51234381,0.51234381 0 0 1 -0.85979,-0.16489 l -0.87747,1.00702 c -1.80203,-0.0412 -3.56874,0.54179 -5.56511,0.84802 -1.99637,0.30623 -4.16353,0.38867 -6.0539,-0.45346 a 2.8090574,2.8090574 0 0 1 -1.05413,0.29445 2.9445046,2.9445046 0 0 1 -0.58891,0 4.9938799,4.9938799 0 0 1 -0.68901,-0.19433 l 0.43579,0.34745 c -1.1778,0 0.0353,-0.2709 -0.9128,-0.42401 -0.72435,0.0648 -0.49468,0.65957 0.44168,0.72435 0.45345,0.37101 0.0766,0.41812 -0.34745,0.38867 -0.41812,-0.18256 -0.83036,-0.35923 -1.22492,-0.54767 -0.39456,-0.18845 -0.76557,-0.45346 -1.13658,-0.68313 l -0.5417895,-0.35334 c -0.17667,-0.12367 -0.33567,-0.26501 -0.50056,-0.40045 -0.3239,-0.2709 -0.6419,-0.54768 -0.94224,-0.82446 a 14.993418,14.993418 0 0 1 -1.53113,-1.89039 14.822636,14.822636 0 0 1 -0.98935,-1.9846 z m 25.0871795,-1.51936 c 0.0824,-0.053 0.17078,-0.10012 0.25323,-0.1649 -0.0707,0.053 -0.12956,0.11189 -0.18845,0.15901 z m -9.79342,5.45911 c 0.11189,0.0648 0.11189,0.12955 0.0648,0.19433 z m 7.59093,-4.35198 a 1.0423546,1.0423546 0 0 1 -0.18845,0.12367 0.74201517,0.74201517 0 0 1 0.18845,-0.12367 z m 0.59479,-0.77735 c -0.0824,0.20611 -0.77146,0.51234 -0.25912,0.50645 -0.0589,0.14723 -0.20022,0.20023 -0.33567,0.2709 0.39456,-0.31801 -0.31212,-0.66546 0.59479,-0.77735 z m -1.25436,-0.0118 a 8.4860624,8.4860624 0 0 1 -0.45345,0.78324 c -0.39457,-0.38279 0.21789,-0.6419 0.45345,-0.78324 z m -2.00815,1.06002 a 1.6548116,1.6548116 0 0 0 0.318,-0.41223 h -0.17078 c 0.19434,-0.12956 0.45935,-0.50056 0.5889,-0.39456 -0.41812,0.12955 -0.35334,0.31212 -0.22967,0.66546 l 0.68313,-0.24145 c 0.25323,0.91279 -0.57124,0.27089 -1.18958,0.38278 z m -0.14723,0.18845 0.0766,0.25912 c -0.14133,-0.0589 -0.13544,-0.15312 -0.0766,-0.25912 z m 0,-0.106 a 0.85390635,0.85390635 0 0 1 0.17078,-0.0648 0.81268328,0.81268328 0 0 0 -0.13544,0.17078 z m -0.37689,2.52638 c 0.47112,0.0589 0.84212,-0.46523 1.11302,-0.41812 0.0471,0.61246 -0.73613,0.42401 -1.11302,0.41812 z m -2.39683,2.06116 c 0.68312,-0.92458 1.43692,0.0707 2.3026,-0.7538 -0.28267,0.26501 -0.52412,0.53001 -0.77735,0.72435 a 1.277915,1.277915 0 0 1 -0.89513,0.23556 z m -0.37101,0.35334 c 0.50057,0.0648 1.00702,0.0766 1.52526,0.11778 a 19.586845,19.586845 0 0 1 -8.8983,-0.11778 l 0.34745,-0.17667 c 0,-0.0471 0.10012,-0.0412 0.29445,0 0.19434,0.0412 0.47113,0.053 0.8068,0.11189 0.33567,0.0589 0.71846,0.15311 1.14247,0.18256 l 1.33091,0.12955 c 1.80793,0.0942 3.59819,-0.11778 3.45096,-0.24733 z m -0.159,-0.32979 0.0118,0.19434 -0.88335,-0.16489 z m 28.82081,-27.95512 c 0.12956,-1.03647 1.41336,-0.29445 1.97282,-1.76671 -0.25323,0.58891 -0.54179,1.14836 -0.84213,1.76671 -1.04824,0.35923 0.053,-0.77735 -1.13069,0 z m 1.13658,-0.0118 a 2.8856146,2.8856146 0 0 1 -0.24734,0.47701 c 0.0824,-0.15901 0.159,-0.31801 0.24145,-0.47112 0.006,-0.006 0.006,0 0.006,-0.006 z m 6.51913,-9.31642 c 0.5889,-0.63601 1.383921,-1.64303 0.98347,-2.26726 -0.9658,0.371 -0.588899,0.88924 -0.588899,1.38391 -0.253231,0.12367 -0.81858,0.76557 -0.901021,0.25912 0.176671,0 0.0648,0.75968 0.50645,0.62423 z m -2.4616,3.14474 c -0.18845,0.265 -0.67724,0.55356 -0.588899,0.0412 0.92457,-0.44757 0.67134,-1.30736 1.50758,-1.73137 l -0.28856,0.76557 c 0.49468,0.22967 0.535899,-1.66659 1.277919,-1.06002 0.11778,-1.26025 -1.14247,0.17078 -0.67724,-1.2367 a 12.820373,12.820373 0 0 1 -2.178929,2.63239 c 0.347449,-0.15311 0.38867,-0.28856 0.78323,-0.5889 -0.43578,0.65957 -0.81268,1.69604 -1.27791,2.49694 0.765569,-0.0353 0.718459,-0.90691 1.442809,-1.31914 z m -1.19547,-0.69491 c -0.40045,0.7538 -0.795019,1.5017 -1.1778,2.25549 l 0.81857,-0.70668 z m -3.8573,3.42152 c -0.69491,0.97169 0.62423,-0.44757 0.0824,0.63012 0.12955,-0.41223 0.35923,-0.8009 -0.0824,-0.63012 z m 2.44982,0.3769 -0.0766,-0.62424 c -0.12955,0.39456 -0.58301,1.20136 0.0766,0.62424 z m -1.14246,0.88335 c 0.265,0.34745 0.93046,-0.22968 1.23669,0 -0.71257,-0.4299 0.5889,-1.17781 0.901021,-1.85504 l -0.37101,-0.5889 c -0.78324,0.32389 -1.60181,1.93159 -2.4675,3.17417 z m -2.3615,4.84665 -0.11189,-0.24145 -0.5889,1.59592 c 0.0236,-0.38867 0.44757,-1.45458 0.70079,-1.35447 z m -4.39909,2.26727 c 0,-0.63013 0.53001,-1.69603 0.99525,-1.37214 -0.46524,-0.32389 -0.46524,-0.32389 -0.3769,-1.21903 0.31212,0.2179 0.5889,-0.44756 0.83035,-0.8539 -0.435789,0.17667 -0.7479,0.5889 -1.38392,1.41925 0.18256,1.24847 -1.9257,2.21427 -1.6607,3.43329 0.51824,-0.41812 1.3427,-0.63012 1.59592,-1.40747 z" />
   <path
      style="stroke-width:0.588901"
      d="m 93.05455,40.57666 v 1.6607 H 92.3832 V 38.1445 h 1.41336 a 1.5252534,1.5252534 0 0 1 1.0718,0.34745 1.1130228,1.1130228 0 0 1 0.3769,0.87157 1.1778019,1.1778019 0 0 1 -0.21789,0.7538 1.2190249,1.2190249 0 0 1 -0.77146,0.42989 l 1.08357,1.70193 h -0.81857 l -1.02469,-1.6607 z m 0,-1.90804 v 1.38392 h 0.74201 a 0.77734923,0.77734923 0 0 0 0.5889,-0.18256 0.67134706,0.67134706 0 0 0 0.18845,-0.51235 0.65956904,0.65956904 0 0 0 -0.18845,-0.50645 0.77734923,0.77734923 0 0 0 -0.5889,-0.18256 z m -5.25889,-0.53001 v 0.52412 h -1.60181 v 1.24258 h 1.41336 v 0.51824 h -1.41336 v 1.28969 h 1.59003 v 0.52412 H 85.52251 V 38.11505 Z M 78.2378,38.66862 V 38.1445 h 2.85028 v 0.52412 H 80.0045 v 3.56874 h -0.67134 v -3.56874 z m -4.89965,3.56874 -0.29445,-0.83624 h -1.71371 l -0.29445,0.83624 h -0.70079 l 1.46637,-4.12231 h 0.77734 l 1.46637,4.12231 z M 71.51255,40.877 h 1.34859 L 72.18979,38.93951 Z M 65.5411,38.1445 h 0.71846 l -1.21314,4.09286 h -0.75968 l -0.8598,-3.09762 -0.91279,3.09762 h -0.7538 l -1.1778,-4.12231 h 0.71257 l 0.84802,3.33318 0.91868,-3.33318 h 0.7538 l 0.8539,3.31552 z m -16.52456,0 H 49.682 v 3.58052 h 1.38391 v 0.51234 h -2.04937 z m -5.10577,4.09286 -0.29445,-0.83624 h -1.7137 l -0.29446,0.83624 h -0.70079 l 1.46637,-4.12231 h 0.77735 l 1.46636,4.12231 z M 42.08517,40.877 h 1.34859 l -0.67135,-1.93749 z m -7.75582,-0.30034 v 1.6607 H 33.66389 V 38.1445 h 1.40747 a 1.5252534,1.5252534 0 0 1 1.0718,0.34745 1.1130228,1.1130228 0 0 1 0.3769,0.87157 1.1778019,1.1778019 0 0 1 -1.0188,1.1778 l 1.08358,1.70193 h -0.81857 l -1.02469,-1.6607 z m 0,-1.90804 v 1.38392 h 0.74201 a 0.77734923,0.77734923 0 0 0 0.5889,-0.18256 0.67134706,0.67134706 0 0 0 0.18845,-0.51235 0.65956904,0.65956904 0 0 0 -0.18845,-0.50645 0.77734923,0.77734923 0 0 0 -0.5889,-0.18256 z m -5.25889,-0.53001 v 0.52412 h -1.59003 v 1.24258 h 1.41336 v 0.51824 h -1.41336 v 1.28969 h 1.59003 v 0.52412 h -2.26138 v -4.12231 z m -7.57915,0 h 0.67135 v 4.12231 h -0.67135 l -2.01993,-3.07996 v 3.0564 h -0.67135 v -4.12231 h 0.67135 l 2.01993,3.05051 z m -8.01494,4.09875 V 38.1445 h 0.67134 v 4.09286 z M 8.82994,38.1445 v 4.09286 H 8.15859 V 39.43419 L 6.91012,42.23736 H 6.44489 L 5.19053,39.43419 v 2.80317 H 4.51918 V 38.1445 h 0.72435 l 1.4487,3.20951 1.43103,-3.20951 z M 91.49396,35.76534 V 17.73908 h 4.16942 V 35.76534 Z M 75.51119,33.98686 a 7.0668112,7.0668112 0 0 1 -1.80204,-4.99977 7.1080342,7.1080342 0 0 1 1.80204,-5.00566 5.7358951,5.7358951 0 0 1 4.39909,-1.96693 4.6228723,4.6228723 0 0 1 3.98686,1.92571 v -1.7667 h 4.16353 v 13.60361 h -4.16353 v -1.99049 a 4.7112074,4.7112074 0 0 1 -4.04575,2.14949 5.718228,5.718228 0 0 1 -4.3402,-1.94926 z m 7.48493,-2.53816 a 3.3096232,3.3096232 0 0 0 0.90102,-2.48517 3.2684002,3.2684002 0 0 0 -0.90102,-2.47338 2.9445046,2.9445046 0 0 0 -2.07293,-0.86568 2.8915036,2.8915036 0 0 0 -2.07293,0.87746 3.3096232,3.3096232 0 0 0 -0.90102,2.48516 3.2684002,3.2684002 0 0 0 0.90102,2.47338 2.9032816,2.9032816 0 0 0 4.1223,0 z M 68.78005,22.16173 v 2.53816 q 1.46637,-2.68539 3.90441,-2.68539 v 4.24598 h -1.02468 a 3.0210618,3.0210618 0 0 0 -2.15538,0.67723 c -0.4829,0.45935 -0.72435,1.25436 -0.72435,2.39094 v 6.43669 H 64.61652 V 22.16173 Z m -11.74268,0 h 4.16353 v 13.60361 h -4.16353 v -2.00226 a 4.463869,4.463869 0 0 1 -4.12231,2.14948 4.9585458,4.9585458 0 0 1 -3.79252,-1.56058 6.0009005,6.0009005 0 0 1 -1.4487,-4.24598 v -7.94427 h 4.12231 v 7.38482 a 2.8031684,2.8031684 0 0 0 0.6949,2.03759 2.9091706,2.9091706 0 0 0 3.82786,0 2.8267245,2.8267245 0 0 0 0.6949,-2.03759 z m -13.33272,10.0702 h 1.48403 v 3.53341 h -2.12004 a 5.5238907,5.5238907 0 0 1 -3.53341,-1.01291 c -0.83624,-0.67724 -1.25436,-1.83148 -1.25436,-3.47452 v -5.65344 h -1.2838 v -3.46274 h 1.27203 v -3.31551 h 4.16352 v 3.31551 h 2.73251 v 3.46274 h -2.73251 v 5.65933 q 0,0.94813 1.27203,0.94813 z m -21.74811,1.75493 a 7.0668112,7.0668112 0 0 1 -1.80204,-4.99977 7.1080342,7.1080342 0 0 1 1.80204,-5.00566 5.7535621,5.7535621 0 0 1 4.40498,-1.96693 4.6110943,4.6110943 0 0 1 3.98097,1.92571 v -1.7667 h 4.16942 v 13.60361 h -4.16942 v -1.99049 a 4.7112074,4.7112074 0 0 1 -4.04575,2.14949 5.724117,5.724117 0 0 1 -4.3402,-1.94926 z m 7.48493,-2.53816 a 3.3096232,3.3096232 0 0 0 0.90102,-2.48517 3.2684002,3.2684002 0 0 0 -0.90102,-2.47338 2.9032816,2.9032816 0 0 0 -4.12231,0 3.3096232,3.3096232 0 0 0 -0.90101,2.48516 3.2684002,3.2684002 0 0 0 0.90101,2.47339 2.9445046,2.9445046 0 0 0 2.07293,0.86568 2.8915036,2.8915036 0 0 0 2.04938,-0.86568 z M 8.50604,22.16173 v 2.00226 q 1.2897,-2.1436 4.12231,-2.14949 a 4.9526568,4.9526568 0 0 1 3.79252,1.56059 5.9950115,5.9950115 0 0 1 1.46047,4.24009 v 7.95016 h -4.1223 v -7.38482 a 2.8031684,2.8031684 0 0 0 -0.6949,-2.0376 2.526385,2.526385 0 0 0 -1.90804,-0.71845 2.538163,2.538163 0 0 0 -1.91393,0.71845 2.8031684,2.8031684 0 0 0 -0.6949,2.0376 v 7.38482 H 4.33662 V 22.16173 Z" />
</svg>