<?xml version="1.0" encoding="UTF-8" standalone="no"?>
<!-- Created with Inkscape (http://www.inkscape.org/) -->

<svg
   width="100"
   height="60"
   viewBox="0 0 100 60"
   xmlns="http://www.w3.org/2000/svg"
   xmlns:svg="http://www.w3.org/2000/svg">

   <path style="fill:#c1d2db;stroke-width:0.529552"
      d="m 59.433981,37.148225 c -3.177311,2.213527 -6.11103,4.33703 -9.002382,6.449942 l -0.328321,0.492483 a 21.0338,21.0338 0 0 0 5.82507,-3.92398 c 0.328322,-0.312435 0.725486,-0.942601 1.112058,-1.143831 a 47.83442,47.83442 0 0 0 4.797741,-3.526815 q -1.159719,0.783736 -2.34062,1.620428 z m -10.358035,7.747344 0.762555,-0.407755 c 0.08473,-0.127093 0.164161,-0.254184 0.243594,-0.381277 l -0.529551,0.264775 z m -6.693535,0.15357 h 0.07943 c 0.56662,-0.381277 1.154423,-0.757259 1.752818,-1.133241 0.746667,-0.651349 1.551586,-1.292107 2.398869,-1.906387 a 24.963075,24.963075 0 0 0 -4.23112,3.039628 z m -6.958311,0.04236 -0.556031,0.275367 -0.56662,0.439529 0.402459,-0.169456 c 0.233004,-0.185344 0.481893,-0.365391 0.720192,-0.54544 z m 9.918506,-9.786122 c 0.460709,-0.397164 0.92142,-0.778441 1.376834,-1.154422 -2.038774,1.186195 -4.040481,2.409461 -6.031595,3.643315 -3.177311,2.234711 -6.354622,4.416464 -9.447205,6.78356 -0.3548,0.264777 -0.7096,0.529553 -1.059103,0.75726 6.386394,-3.209085 12.756904,-6.407578 17.390482,-10.591037 0.07943,-0.08473 0.180048,-0.164161 0.270071,-0.24889 -2.515371,1.424495 -4.956605,2.912535 -7.381953,4.416463 1.63102,-1.196788 3.272631,-2.372393 4.882469,-3.606249 z m 8.917652,-6.629989 -2.155275,1.376835 c -1.975228,1.371539 -3.675089,2.690123 -5.385543,4.098732 q 2.065253,-1.202083 4.199347,-2.330029 c 1.387426,-0.868465 2.287664,-2.059956 3.341471,-3.145538 z m -19.56694,16.94566 c -0.75726,0.566621 -1.519814,1.13324 -2.303551,1.689271 -0.577211,0.497778 -1.143832,0.958488 -1.699862,1.48804 -2.743078,2.19764 -6.449941,3.886911 -9.627253,5.893912 a 1.7634077,1.7634077 0 0 0 0.529553,0.990262 c 3.77041,-1.530405 7.043039,-4.008707 10.718131,-5.713864 l 0.06884,-0.07943 c 1.1809,-1.466859 3.786296,-2.557736 5.412021,-4.114619 1.578062,-1.668087 3.394427,-2.896648 4.983082,-4.453531 -2.748376,1.456265 -5.253157,3.076693 -8.080964,4.299958 z m -3.669795,1.620428 c 1.93816,-1.376835 3.791592,-2.806624 5.560295,-4.236415 3.998117,-2.155276 7.731457,-4.458826 10.734016,-7.191314 2.6001,-2.49419 8.070371,-5.094289 10.204464,-8.47283 a 7.2654515,7.2654515 0 0 0 -0.984965,0.428938 10.177987,10.177987 0 0 0 0.990262,-1.212674 c 4.855985,-3.044923 9.690793,-5.893913 14.859219,-8.61581 0.762555,-0.40246 1.16502,-1.059104 1.927574,-1.440381 0.762555,-0.381277 1.519814,-0.847282 2.266479,-1.270923 a 0.09531934,0.09531934 0 0 0 -0.06884,-0.05825 c 3.081997,-1.800477 6.068664,-3.653908 9.14007,-5.7350474 1.472155,-0.9161251 3.0661,-1.6151336 4.596511,-2.4200523 0.571914,-0.3018451 0.804918,0.1376836 1.244446,0.047661 a 21.415078,21.415078 0 0 0 5.03603,-1.1120526 l 0.174752,0.333617 a 2.3247327,2.3247327 0 0 1 0.693718,-0.3653905 c -0.169461,1.662792 -2.03348,3.209085 0.63546,2.8913531 v 0 c -0.10591,0.1006216 -0.19594,0.195934 -0.28067,0.2859585 h -0.0371 c 0,0 0,0 0,0 a 2.8383979,2.8383979 0 0 0 -0.75197,1.3662442 l 1.01145,-0.5295522 a 0.85787402,0.85787402 0 0 0 0.16946,0.5030752 0.76255468,0.76255468 0 0 1 -0.0424,0.132387 l -0.27007,0.14298 a 1.1914916,1.1914916 0 0 0 0,0.312434 c -0.624864,0.937307 -1.879902,1.911683 -1.376827,2.229414 0.328322,0.127093 0.863169,-0.418345 1.519817,-0.942602 a 0.66723535,0.66723535 0 0 0 0.20123,0.03178 c -0.894947,0.61428 0.40775,0.773145 -0.10591,1.186194 -0.767855,0.40246 -1.472158,0.916126 -2.240008,1.318586 a 88.06977,88.06977 0 0 0 -8.56815,5.078402 l -0.381277,0.24889 a 31.593064,31.593064 0 0 1 -4.299961,2.3618 3.8763196,3.8763196 0 0 1 0.174752,-0.36539 19.694034,19.694034 0 0 0 -3.442087,1.975228 84.876572,84.876572 0 0 1 -8.276896,5.629137 c -3.177313,1.773999 -6.126916,3.632725 -9.19302,5.71916 a 35.919502,35.919502 0 0 1 3.738635,-2.64776 c 0.619575,-0.312436 1.233855,-0.630165 1.816362,-0.963783 a 17.422257,17.422257 0 0 0 -1.816362,0.963783 c -2.377688,1.196788 -4.871876,2.34062 -6.142801,4.331734 -0.243595,0 -0.301846,-0.10061 -0.492485,0 -1.339766,0.7096 -2.737782,1.302699 -3.653907,2.351211 0.05825,0.10591 -0.529553,0.407755 -0.211822,0.529552 -1.090876,0.714895 -2.430642,1.419199 -3.457973,2.245299 a 5.4067244,5.4067244 0 0 0 -1.207377,1.32388 c -3.796887,2.753671 -7.546114,5.491454 -11.650141,8.377511 -1.059104,0.688417 -2.308847,1.360948 -3.420905,1.948751 1.44038,-1.233856 2.970786,-2.425348 4.538259,-3.600953 1.705159,-0.794327 3.299109,-1.636315 4.310552,-2.891353 0.248891,-0.264776 0.503073,-0.529552 0.757259,-0.778442 -1.721043,1.21797 -3.420903,2.43594 -5.067811,3.669795 -1.006149,0.471301 -2.049364,0.92142 -3.039627,1.440381 l 0.04765,-0.05825 q 1.059104,-0.820805 2.118208,-1.63102 a 13.392367,13.392367 0 0 0 3.950465,-2.488891 5.1472441,5.1472441 0 0 0 0.344209,-0.407755 c 0.248889,-0.264776 0.529551,-0.529551 0.757259,-0.773146 -1.059104,0.746669 -2.118207,1.498632 -3.177311,2.250596 -0.640757,0.471301 -1.286811,0.937307 -1.916978,1.413904 l -1.329175,0.608984 a 1.4933363,1.4933363 0 0 0 0.09532,-0.153571 c 0.323027,-0.312435 0.714895,-2.171162 -0.03178,-2.197639 -2.933717,1.588655 -6.788854,4.278779 -6.847105,4.172869 -0.423641,-0.34421 4.321144,-3.579771 4.072254,-3.590363 -0.312436,0.10061 -0.614281,0.206526 -0.916124,0.323027 0.222411,-0.233002 0.434231,-0.460709 0.624871,-0.693712 0.529551,-0.413052 1.33447,-0.704305 1.588655,-1.127946 0.990262,-1.366245 2.64776,-1.954046 3.93457,-3.177311 0.783737,-0.836692 1.699862,-1.879909 2.615986,-2.923127 -0.116501,-0.222411 0.529552,-0.41305 0.21182,-0.529552 1.059105,-0.566619 2.330029,-1.22856 2.451827,-2.118207 l 0.06884,-0.05825 a 0.96907991,0.96907991 0 0 0 0.254185,-0.243594 c 1.858726,-0.836692 2.790737,-2.118207 4.194051,-3.389132 0.529552,-0.349504 1.059103,-0.688418 1.668087,-0.995558 a 6.2275299,6.2275299 0 0 0 -1.339766,0.704305 l -0.328317,0.291239 c -1.37154,0.910828 -2.6001,1.932863 -3.855138,2.901943 -0.07943,0.121797 -0.206525,0.323027 -0.338913,0.487188 l -0.312436,0.132389 c 0,0.05825 0,0.116501 0,0.169456 -1.154423,1.011444 -2.589509,1.911683 -3.542701,2.827806 -1.922274,1.47745 -4.284075,2.510076 -6.481715,3.56918 0.97967,-0.751963 1.938159,-1.514518 2.870171,-2.277073 -1.207378,0.879056 -2.34062,1.715748 -3.426201,2.55244 l -0.529552,0.285957 -1.149127,0.603691 c 0.386573,-0.137685 0.757259,-0.291254 1.127946,-0.444824 q -0.969081,0.757259 -1.901091,1.519813 a 74.852155,74.852155 0 0 1 -11.385366,6.762378 4.686534,4.686534 0 0 1 0.05295,-0.529552 c 1.837545,-1.059104 3.706862,-2.038775 4.930128,-3.431496 -1.059103,0.56662 -1.72634,1.154423 -2.758965,1.726338 -0.03178,-0.06354 -0.09002,-0.148274 0,-0.233002 a 19.720511,19.720511 0 0 1 -2.075844,1.408607 c 0.09002,-0.413049 0.211821,-0.836691 0.333618,-1.260332 a 6.248712,6.248712 0 0 1 1.360949,-1.138538 c 2.382982,-1.498631 4.765966,-2.674236 7.058927,-4.236414 2.197638,-1.106763 4.395279,-2.213527 6.524078,-3.357359 -1.959342,1.456268 -3.743932,2.801329 -5.433203,4.199346 z m 62.69364,-36.713823 c -0.174751,0.153569 -0.349498,0.312436 -0.529551,0.476597 A 1.2020827,1.2020827 0 0 1 93.32,11.03603 0.92142023,0.92142023 0 0 0 93.717163,10.52766 Z m -4.532964,2.261186 c 1.413904,-0.529551 3.013151,-1.668088 4.591221,-2.721897 A 0.44482357,0.44482357 0 0 0 93.74894,9.976918 c -1.456268,0.630167 -3.039629,1.811066 -4.564736,2.81192 z m -6.449941,0.481892 h 0.04766 a 0.21711626,0.21711626 0 0 1 -0.02648,-0.04765 z M 61.266229,29.056673 c 1.239147,-1.355653 3.177306,-2.367097 4.951306,-3.595658 0.571915,-0.301844 0.916128,-1.059103 1.678685,-1.445676 0.900233,-0.61428 1.360942,-1.138537 2.065246,-1.652202 l -0.688417,0.08473 c 1.398021,-0.598395 1.816368,-1.662795 3.272636,-2.144686 a 0.52955186,0.52955186 0 0 1 0.206524,-0.529552 c 0.900239,-0.61428 1.969929,-0.894944 2.621282,-1.519813 a 20.557204,20.557204 0 0 0 2.504778,-1.758113 c 0.190643,-0.100621 0.397163,-0.630167 0.725491,-0.942602 0.444824,-0.291254 0.894936,-0.566621 1.345055,-0.841988 l -0.10062,-0.05825 a 6.5664431,6.5664431 0 0 0 -1.112054,0.688418 c -1.032626,0.826101 -2.255895,1.752816 -3.346769,2.467712 -2.753675,1.731635 -5.200199,3.585067 -7.64673,5.433203 -0.529551,0.413049 -0.974375,0.937306 -1.48804,1.345061 -1.493336,1.350358 -3.653908,2.351211 -4.395281,3.706864 -0.137682,0.238297 -0.518959,0.439527 -0.593098,0.762555 z m 0.370688,5.893911 a 26.641754,26.641754 0 0 1 5.825069,-3.833954 c 1.535696,-0.80492 5.586768,-3.786296 4.125208,-4.702421 -0.608988,3.394427 -12.60863,6.714717 -9.950277,8.536375 z M 46.740623,45.382757 a 12.709245,12.709245 0 0 1 2.314141,-1.636316 z m 5.793297,-8.764083 c -2.081139,2.081139 -4.702421,3.600952 -6.958311,5.353768 -1.742226,1.323879 -4.135801,1.885205 -5.449089,3.563884 0.05295,0.111206 0.111205,0.217117 0.169456,0.328323 l 0.132387,-0.211822 c 0.709601,-0.285957 1.339768,-0.397163 1.954048,-0.603688 l -0.08473,0.08473 0.164161,-0.111206 a 3.9239793,3.9239793 0 0 0 1.207379,-0.651348 c 0.174752,-0.164161 0.360094,-0.323026 0.529551,-0.481892 2.287664,-1.456267 4.665352,-2.928422 6.465829,-4.765966 1.170309,-1.059104 2.022888,-2.192345 3.17731,-3.224971 a 6.1057329,6.1057329 0 0 0 -1.307993,0.720191 z m -3.781,3.950456 c -0.736078,0.439528 -1.450974,0.916125 -2.118207,1.413904 a 29.940862,29.940862 0 0 0 4.066957,-2.854285 c -0.190639,0.10061 -0.439527,0.09002 -0.630166,0.190638 A 3.6433167,3.6433167 0 0 1 48.75292,40.56913 Z m -12.296195,2.499486 0.127093,-0.06884 0.344209,-0.275366 z m -1.927568,9.839072 c 0.428937,-1.906386 -1.085582,0.751964 0,0 z m 1.4192,-1.376835 a 9.5690021,9.5690021 0 0 1 -1.4192,1.376835 c -0.05295,0.222413 -0.127094,0.503075 -0.238298,0.86317 l 0.153569,-0.07943 c 0.783737,-0.667235 1.588656,-1.318584 2.414757,-1.969933 a 6.5505565,6.5505565 0 0 0 0.778441,-1.011444 c -0.571917,0.264776 -1.138536,0.534848 -1.689269,0.820806 z M 56.542628,27.769862 a 11.353592,11.353592 0 0 0 -3.10847,2.615986 23.623308,23.623308 0 0 0 3.10847,-2.615986 z m 1.223265,-1.52511 a 8.8646981,8.8646981 0 0 0 -3.505635,2.430644 c 1.096174,-0.704305 2.181754,-1.398017 3.267336,-2.081139 0.07414,-0.127093 0.164161,-0.233003 0.238299,-0.349505 z m -7.085405,6.667058 a 13.948396,13.948396 0 0 0 2.748374,-2.525962 c -2.012297,1.456268 -4.162277,2.790738 -5.597362,4.082845 q 1.403312,-0.794329 2.848988,-1.556883 z m -32.059069,20.070015 -0.19064,0.10061 c 0.227708,0.0106 0.222413,-0.04765 0.19064,-0.10061 z m 1.969933,-2.446529 c 0.03707,0.06884 0.03707,0.111206 -0.190639,0.10591 l 0.190639,-0.10591 c -0.03178,-0.06354 -0.09003,-0.148274 0,-0.233003 a 17.962399,17.962399 0 0 1 -2.054662,1.435086 c -0.03708,0.169457 -0.06884,0.338913 -0.09532,0.529551 1.837545,-1.059103 3.706863,-2.038774 4.935423,-3.431495 -1.112058,0.540143 -1.752816,1.127945 -2.785442,1.699861 z m 77.754102,-41.5804128 1.00614,-0.529552 a 1.1438321,1.1438321 0 0 0 -0.25418,-0.8313962 2.7960338,2.7960338 0 0 0 -0.75196,1.3609482 z m 1.05911,-1.6892714 a 2.7642607,2.7642607 0 0 1 -0.63018,-1.2073769 l 0.76785,-0.4024595 c 0.0741,-0.3230274 -0.23301,-0.4395283 -0.34951,-0.6619407 0.19065,-0.100614 0.38129,-0.2012291 0.32304,-0.3124348 -0.0264,-0.3548 -0.33362,-0.4342331 -0.74138,-0.3071406 -0.17475,1.6627935 -2.038773,3.2090839 0.63018,2.8913525 z m 0.0794,1.8163642 0.10591,-0.058247 a 0.94789783,0.94789783 0 0 1 -0.0688,-0.07413 1.2338558,1.2338558 0 0 1 -0.0371,0.1323876 z m -0.36009,-1.5251103 0.3495,-0.1800468 -0.0636,-0.1059101 q -0.15887,0.1482744 -0.28596,0.2859569 z M 35.890106,23.311035 c 2.796034,-2.012298 5.396132,-3.945162 7.943277,-5.867435 0.09532,-0.148274 0.185343,-0.30714 0.280663,-0.466006 a 16.807976,16.807976 0 0 0 -5.131358,3.558589 c -0.280662,0.285958 -0.624872,0.884352 -0.963783,1.059104 a 37.677615,37.677615 0 0 0 -4.247008,3.230266 c 0.683122,-0.476596 1.37154,-0.963784 2.070547,-1.472153 z m 9.129473,-7.048336 -0.656644,0.3548 c -0.06884,0.121797 -0.132388,0.243594 -0.201229,0.360095 l 0.492482,-0.227707 z m 6.111028,0.164161 h -0.06884 c -0.529552,0.344209 -1.027331,0.688417 -1.556882,1.02733 -0.656645,0.598395 -1.366244,1.186197 -2.118208,1.742226 a 19.91115,19.91115 0 0 0 3.743932,-2.769556 z m 6.354624,0.301845 0.497777,-0.24889 0.529551,-0.407754 -0.354798,0.153569 z m -8.642288,9.071224 c -0.402459,0.360094 -0.804918,0.714895 -1.207378,1.059103 1.811067,-1.059103 3.590363,-2.155275 5.35377,-3.267335 2.790738,-2.033479 5.61325,-4.008707 8.340442,-6.174574 0.312435,-0.238299 0.624866,-0.466006 0.942597,-0.683123 -5.697973,2.827807 -11.37477,5.639728 -15.431136,9.531935 a 3.1773112,3.1773112 0 0 1 -0.233003,0.227707 c 2.234708,-1.26563 4.400575,-2.605396 6.555852,-3.955753 -1.456268,1.0644 -2.901944,2.134094 -4.321144,3.26204 z m -7.863844,6.052777 1.911681,-1.260333 c 1.742226,-1.244447 3.240859,-2.451826 4.765967,-3.743931 -1.22856,0.714894 -2.467712,1.408607 -3.738636,2.075842 -1.233856,0.810216 -2.017593,1.911683 -2.939012,2.928422 z M 58.131283,16.22563 q 0.995558,-0.783736 2.028183,-1.54629 c 0.529553,-0.434234 1.00615,-0.884353 1.493336,-1.339767 2.430638,-2.022888 5.729747,-3.5003375 8.531075,-5.295519 A 1.9752285,1.9752285 0 0 0 69.654326,7.0537917 C 66.27579,8.3670802 63.389727,10.628268 60.122398,12.116308 l -0.05295,0.07413 c -1.022038,1.37684 -3.352066,2.319442 -4.765969,3.759824 -1.360949,1.551587 -2.949604,2.647758 -4.363508,4.109321 2.425348,-1.297401 4.654762,-2.764259 7.191314,-3.833955 z m -12.629811,4.273485 c 0.651347,-0.397165 1.286811,-0.831398 1.890499,-1.281517 a 24.009881,24.009881 0 0 0 -3.590362,2.573622 c 0.169457,-0.09002 0.397164,-0.06884 0.566621,-0.158865 a 3.0237412,3.0237412 0 0 1 1.133242,-1.13324 z m 11.131179,-1.853432 -0.121796,0.05825 -0.301845,0.254186 z m 1.334471,-9.5160479 c -0.307139,1.8428409 0.958489,-0.6778264 0,0 z m -1.239151,1.2815169 a 8.1868718,8.1868718 0 0 1 1.239151,-1.2815169 c 0.03708,-0.2118202 0.09532,-0.4818919 0.180048,-0.8313967 l -0.137684,0.074141 c -0.688417,0.6142795 -1.398017,1.2126738 -2.118208,1.8057726 a 6.5929206,6.5929206 0 0 0 -0.667235,0.947898 c 0.50837,-0.227707 1.01674,-0.455415 1.503928,-0.714896 z M 38.940324,32.620556 a 9.2353845,9.2353845 0 0 0 2.72719,-2.404165 18.624338,18.624338 0 0 0 -2.72719,2.404165 z m -1.053809,1.429791 a 7.1118816,7.1118816 0 0 0 3.092584,-2.197641 q -1.450972,0.942603 -2.896651,1.869318 c -0.07414,0.116502 -0.137682,0.217118 -0.195933,0.328323 z m 6.185165,-6.169279 a 11.316523,11.316523 0 0 0 -2.404166,2.335323 c 1.774,-1.329174 3.706864,-2.525963 4.940721,-3.706863 -0.836692,0.455415 -1.67868,0.921421 -2.536555,1.37154 z m 28.426345,-18.0577193 0.16945,-0.095322 c -0.206524,-0.015884 -0.206524,0.02648 -0.16945,0.095322 z m -1.694571,2.2876633 c -0.03708,-0.06354 -0.03708,-0.111206 0.16416,-0.09002 l -0.16416,0.09002 c 0.03178,0.06884 0.09002,0.153571 0.03178,0.233003 a 14.774497,14.774497 0 0 1 1.816364,-1.302697 c 0.02648,-0.16416 0.04765,-0.328322 0.06355,-0.487187 -1.63102,0.937305 -3.299103,1.811067 -4.358207,3.113764 0.963784,-0.503074 1.530399,-1.043217 2.446525,-1.556883 z m -9.394246,2.721897 c -1.705157,1.249742 -3.341472,2.557735 -4.898354,3.871024 -3.553293,1.916978 -6.852401,3.987526 -9.500161,6.508192 -2.266482,2.314142 -7.154245,4.591216 -8.960017,7.779119 a 6.7147176,6.7147176 0 0 0 0.884352,-0.370688 9.1877248,9.1877248 0 0 0 -0.857875,1.112059 c -4.305257,2.743079 -8.594626,5.295519 -13.196433,7.704981 -0.683121,0.354799 -1.016739,0.953193 -1.699861,1.313288 -0.683121,0.360096 -1.350356,0.751963 -2.017593,1.133241 a 0.10061485,0.10061485 0 0 0 0.06354,0.05825 c -2.732485,1.588659 -5.385539,3.277928 -8.10214,5.163133 -1.307994,0.820806 -2.732487,1.424494 -4.0934363,2.118208 -0.529553,0.270071 -0.741375,-0.169457 -1.138537,-0.10061 A 16.988024,16.988024 0 0 0 3.33855,51.975682 L 3.1637982,51.642065 A 1.8905001,1.8905001 0 0 1 2.5283359,51.975682 C 2.6130619,50.355253 4.2493794,48.936054 1.824032,49.121397 v 0 c 0.090023,-0.09002 0.1694567,-0.180048 0.2435934,-0.264777 h 0.03707 v 0 a 2.4730072,2.4730072 0 0 0 0.6354624,-1.329174 l -0.9002389,0.466006 a 0.94260231,0.94260231 0 0 0 -0.180047,-0.492489 c 0,-0.04237 0,-0.08473 0.03707,-0.132388 L 1.940537,47.241482 A 1.3874259,1.3874259 0 0 0 1.9034661,46.939638 C 2.4330181,46.055286 3.5397813,45.160343 3.063185,44.82143 2.7613407,44.678452 2.2953351,45.181526 1.7181236,45.663418 a 0.77844123,0.77844123 0 0 0 -0.1853434,-0.04237 c 0.7943275,-0.529551 -0.4077546,-0.767849 0.047656,-1.149127 0.6831217,-0.344208 1.3026981,-0.810214 2.007002,-1.170309 A 69.964391,69.964391 0 0 0 11.181215,38.73687 l 0.338913,-0.227707 a 25.211965,25.211965 0 0 1 3.823363,-2.118208 3.4420871,3.4420871 0 0 1 -0.142978,0.349505 15.574121,15.574121 0 0 0 3.087288,-1.710452 67.74557,67.74557 0 0 1 7.323702,-5.099584 c 2.81192,-1.588656 5.443793,-3.256745 8.149802,-5.14195 a 28.987669,28.987669 0 0 1 -3.299108,2.420053 c -0.529551,0.275366 -1.101467,0.556029 -1.588654,0.852578 a 14.186694,14.186694 0 0 0 1.588654,-0.852578 c 2.118208,-1.059104 4.352917,-2.054661 5.427907,-3.934572 0.222413,0 0.280662,0.111207 0.450119,0 1.196788,-0.624869 2.446531,-1.138535 3.235563,-2.118207 -0.05825,-0.10591 0.455414,-0.375982 0.169456,-0.529551 0.963784,-0.646055 2.160572,-1.270926 3.066105,-2.022888 a 4.4853043,4.4853043 0 0 0 1.059105,-1.239148 c 3.352063,-2.50478 6.656467,-4.993674 10.310375,-7.6202501 a 32.975195,32.975195 0 0 1 3.044921,-1.7316346 c -1.270924,1.1279454 -2.61069,2.2241167 -3.998115,3.2938127 -1.519814,0.693712 -2.939013,1.440381 -3.812774,2.615986 -0.217115,0.248889 -0.434231,0.487187 -0.656644,0.725486 1.519815,-1.106763 3.018447,-2.213527 4.469418,-3.341472 0.900238,-0.407755 1.837545,-0.804919 2.716601,-1.260335 a 0.20652522,0.20652522 0 0 1 -0.04237,0.05295 q -0.92142,0.751964 -1.869318,1.493336 a 10.474535,10.474535 0 0 0 -3.505633,2.240005 3.563884,3.563884 0 0 0 -0.312436,0.375981 c -0.211821,0.243594 -0.434233,0.487188 -0.656644,0.72019 q 1.408607,-1.027329 2.780147,-2.049365 l 1.694566,-1.286811 1.202083,-0.529551 -0.07414,0.148274 c -0.285958,0.291254 -0.561325,2.086435 0.121797,2.14998 2.61069,-1.403313 6.015708,-3.8551371 6.073959,-3.7492259 0.402459,0.3547996 -3.791591,3.2885169 -3.563884,3.3096979 0.275367,-0.08473 0.529552,-0.174752 0.820806,-0.270071 -0.190639,0.217116 -0.375982,0.428936 -0.529553,0.646054 -0.450118,0.381276 -1.19149,0.62487 -1.419198,1.02733 -0.847283,1.281515 -2.324733,1.779294 -3.457974,2.933717 -0.683122,0.778442 -1.472155,1.752818 -2.261186,2.727192 0.111206,0.222412 -0.455415,0.381278 -0.169457,0.529553 -0.963785,0.529551 -2.075843,1.090877 -2.155277,1.948751 l -0.05825,0.05295 a 0.82610091,0.82610091 0 0 0 -0.222412,0.227707 c -1.657498,0.725486 -2.45712,1.922273 -3.706862,3.103173 a 15.722395,15.722395 0 0 1 -1.482738,0.894948 5.0519248,5.0519248 0 0 0 1.212673,-0.582507 l 0.285959,-0.270071 c 1.21797,-0.820806 2.29296,-1.763408 3.399723,-2.647759 a 5.0731068,5.0731068 0 0 1 0.285957,-0.460711 l 0.280664,-0.116502 c 0,-0.05825 0,-0.111205 0,-0.16416 1.011444,-0.932011 2.287665,-1.742227 3.119061,-2.594805 1.694564,-1.366243 3.807476,-2.234709 5.772114,-3.177311 -0.863169,0.683122 -1.705157,1.382131 -2.525961,2.081139 1.059102,-0.799623 2.065251,-1.562178 3.023741,-2.330028 l 0.492483,-0.24889 1.022034,-0.529551 c -0.344207,0.1165 -0.677825,0.243593 -1.011442,0.375982 0.571915,-0.460711 1.13324,-0.921421 1.673384,-1.392722 a 59.728154,59.728154 0 0 1 10.061478,-6.0580729 4.3688029,4.3688029 0 0 1 0,0.529551 c -1.631019,0.9373079 -3.299106,1.8110689 -4.352916,3.1137649 0.958489,-0.529552 1.525109,-1.059103 2.441234,-1.551586 0.03178,0.06354 0.09002,0.148275 0.03178,0.227707 a 14.774497,14.774497 0 0 1 1.79518,-1.334471 c -0.06354,0.397165 -0.158865,0.80492 -0.254184,1.212674 -0.222411,0.40246 -0.736076,0.667235 -1.191492,1.059104 -2.118207,1.345061 -4.236414,2.382983 -6.264598,3.791591 -1.964631,0.974375 -3.923975,1.94875 -5.825066,2.96549 1.736931,-1.297402 3.3097,-2.520667 4.787148,-3.807478 z M 5.7056455,47.670421 c 0.1535708,-0.137684 0.3018443,-0.285959 0.4554141,-0.439528 a 0.82080538,0.82080538 0 0 1 -0.1217962,-0.03178 0.76255468,0.76255468 0 0 0 -0.3336179,0.471302 z m 4.0457781,-1.980524 c -1.270925,0.423641 -2.6795346,1.482745 -4.0775517,2.435938 a 0.44482357,0.44482357 0 0 0 0.026476,0.09003 C 7.0083403,47.66513 8.4063586,46.590141 9.7567176,45.689903 Z m 5.8727314,-0.164162 h -0.04765 a 0.49248322,0.49248322 0 0 1 0.02648,0.05295 0.11120589,0.11120589 0 0 0 0.02648,-0.05295 z M 34.566226,31.137812 c -1.059105,1.265628 -2.780148,2.160571 -4.374099,3.27263 -0.529551,0.270072 -0.789032,0.974376 -1.472154,1.334471 -0.794327,0.529552 -1.191492,1.059103 -1.816363,1.509222 l 0.630167,-0.04765 c -1.255039,0.52955 -1.588656,1.535699 -2.896648,1.938159 a 0.47130115,0.47130115 0 0 1 -0.169457,0.529552 c -0.794329,0.529552 -1.763408,0.783737 -2.33003,1.360948 A 16.474358,16.474358 0 0 0 19.924116,42.6238 c -0.169457,0.09002 -0.338913,0.598393 -0.619575,0.889647 -0.391869,0.25948 -0.794329,0.529552 -1.196788,0.757258 l 0.10061,0.05825 a 4.8877637,4.8877637 0 0 0 0.979671,-0.61428 c 0.910829,-0.757259 1.98582,-1.588655 2.954899,-2.250596 2.441234,-1.556882 4.596511,-3.251448 6.751786,-4.940718 0.455415,-0.375982 0.852579,-0.863169 1.302698,-1.244447 1.307993,-1.244447 3.240857,-2.118207 3.855137,-3.420905 0.116502,-0.233003 0.455415,-0.407755 0.513667,-0.72019 z m -0.598394,-5.772115 a 21.060277,21.060277 0 0 1 -5.173722,3.463269 c -1.366244,0.714895 -4.940718,3.4262 -3.563884,4.39528 0.428937,-3.288517 11.247681,-5.952162 8.737606,-7.858549 z m 13.164659,-9.473684 a 10.320966,10.320966 0 0 1 -2.044071,1.493336 c 0.677827,-0.503075 1.360949,-0.995558 2.044071,-1.493336 z m -4.887763,8.292783 c 1.811067,-1.932865 4.141094,-3.293813 6.126914,-4.89306 1.530405,-1.223265 3.706863,-1.657497 4.824216,-3.230266 -0.05295,-0.111206 -0.111205,-0.222412 -0.169456,-0.328323 l -0.111206,0.195935 c -0.635462,0.248889 -1.207378,0.328321 -1.758112,0.497778 l 0.06884,-0.07414 -0.137684,0.09532 a 3.0766964,3.0766964 0 0 0 -1.059104,0.582509 l -0.48189,0.444824 c -2.028184,1.307993 -4.135802,2.647759 -5.703275,4.33703 -1.022035,0.953193 -1.758111,2.038775 -2.774852,2.997264 a 5.0148561,5.0148561 0 0 0 1.175606,-0.624871 z M 1.5486643,48.989005 0.65372085,49.460306 a 1.2603335,1.2603335 0 0 0 0.2859585,0.826101 2.4994849,2.4994849 0 0 0 0.60898495,-1.297402 z M 0.65372085,50.582956 A 3.2037887,3.2037887 0 0 1 1.2838878,51.79563 l -0.68312165,0.360095 c -0.052953,0.30714 0.2277075,0.439528 0.3442085,0.656645 -0.1694567,0.09002 -0.3389132,0.180046 -0.2806623,0.291253 0.037071,0.344208 0.3230265,0.439527 0.68841695,0.338912 0.116502,-1.620428 1.7051577,-3.055513 -0.69900845,-2.859579 z m -0.1482745,-1.747521 -0.09532,0.04766 a 0.83669195,0.83669195 0 0 1 0.063547,0.07943 z m 0.3918689,1.477449 -0.3071407,0.164161 0.063547,0.105911 z"
   />
   <path
      style="stroke-width:0.529552"
      d="m 66.69754,48.490476 a 2.4412341,2.4412341 0 0 1 0,-3.399723 2.4571207,2.4571207 0 0 1 3.36795,0 2.3935745,2.3935745 0 0 1 -3.36795,3.399723 z m 2.568327,-0.746668 a 1.5886555,1.5886555 0 0 0 0,-1.938155 1.2656289,1.2656289 0 0 0 -1.779296,0 1.5886555,1.5886555 0 0 0 0,1.938155 1.2815155,1.2815155 0 0 0 1.779296,0 z m -9.325403,1.371544 v -4.628288 h 1.127944 v 4.628288 z m -7.461387,-4.628288 a 2.6159862,2.6159862 0 0 1 1.821659,0.646053 2.3141416,2.3141416 0 0 1 0,3.336177 2.5895087,2.5895087 0 0 1 -1.821659,0.646058 h -1.625723 v -4.628288 z m -0.497778,3.786295 h 0.497778 a 1.3238797,1.3238797 0 0 0 1.016741,-0.391864 1.7051569,1.7051569 0 0 0 0,-2.118206 1.3291752,1.3291752 0 0 0 -1.016741,-0.397164 H 51.981299 Z M 41.792721,47.251324 v -2.76426 h 1.127946 v 2.76426 a 0.92142023,0.92142023 0 0 0 0.206525,0.640758 0.76255468,0.76255468 0 0 0 0.598393,0.222412 0.80491882,0.80491882 0 0 0 0.608985,-0.222412 0.92142023,0.92142023 0 0 0 0.206526,-0.640758 v -2.76426 h 1.127945 v 2.76426 a 1.9222733,1.9222733 0 0 1 -0.285958,1.059103 1.6945659,1.6945659 0 0 1 -0.725487,0.646055 2.2029358,2.2029358 0 0 1 -0.953192,0.206524 1.9275688,1.9275688 0 0 1 -1.355653,-0.529552 1.7898852,1.7898852 0 0 1 -0.55603,-1.38213 z m -8.520484,-1.906387 v -0.857873 h 3.648612 v 0.857873 H 35.65522 v 3.770415 h -1.127945 v -3.770415 z m -6.598216,-0.03178 a 0.52955186,0.52955186 0 0 0 -0.349504,0.111206 0.3971639,0.3971639 0 0 0 -0.132388,0.323026 0.47659667,0.47659667 0 0 0 0.121796,0.338914 0.88435161,0.88435161 0 0 0 0.328323,0.201229 c 0.132388,0.04237 0.285957,0.09003 0.450118,0.127093 0.164163,0.03708 0.328324,0.09532 0.487189,0.15357 a 1.9434554,1.9434554 0 0 1 0.444823,0.222412 0.97437543,0.97437543 0 0 1 0.328322,0.370691 1.2232647,1.2232647 0 0 1 0.127093,0.582502 1.286811,1.286811 0 0 1 -0.481892,1.006154 1.826954,1.826954 0 0 1 -1.255038,0.418341 1.9858195,1.9858195 0 0 1 -1.260334,-0.365388 1.27622,1.27622 0 0 1 -0.476596,-1.059103 h 1.196786 a 0.52955186,0.52955186 0 0 0 0.566621,0.529551 0.52955186,0.52955186 0 0 0 0.381277,-0.127086 0.42893701,0.42893701 0 0 0 0.14298,-0.328324 0.43423252,0.43423252 0 0 0 -0.127093,-0.323031 0.83669195,0.83669195 0 0 0 -0.328322,-0.195934 C 26.705794,47.25132 26.55752,47.20366 26.393358,47.161301 a 4.3899849,4.3899849 0 0 1 -0.492483,-0.153574 2.4888937,2.4888937 0 0 1 -0.444823,-0.222412 0.94260231,0.94260231 0 0 1 -0.328322,-0.370687 1.3662438,1.3662438 0 0 1 0.360094,-1.588655 1.8852046,1.8852046 0 0 1 1.228561,-0.386573 1.9752285,1.9752285 0 0 1 1.207378,0.338914 1.2815155,1.2815155 0 0 1 0.481893,1.059103 H 27.177095 A 0.63016672,0.63016672 0 0 0 27.01823,45.450846 0.46600564,0.46600564 0 0 0 26.674021,45.313163 Z M 60.549449,10.828752 v 1.588656 h -3.129651 v 1.858726 h 2.758964 v 1.588654 h -2.758964 v 2.007001 h 3.129651 v 1.588657 h -5.242564 v -8.631694 z m -9.071224,0.02648 h 2.118207 v 8.652875 h -2.118207 v -3.590361 h -3.341473 v 3.590362 h -2.118207 v -8.652877 h 2.118207 v 3.46327 h 3.341473 z m -13.413543,1.599247 v -1.588656 h 6.831213 v 1.588656 h -2.367096 v 7.053629 H 40.41059 V 12.454479 Z M 71.09282,35.421144 a 7.5831827,7.5831827 0 0 1 -2.287663,-5.655614 7.535523,7.535523 0 0 1 2.287663,-5.645023 7.7526392,7.7526392 0 0 1 5.613252,-2.224117 7.6626154,7.6626154 0 0 1 5.586772,2.224117 7.5620006,7.5620006 0 0 1 2.271778,5.645023 7.5990692,7.5990692 0 0 1 -2.282369,5.655614 8.1233255,8.1233255 0 0 1 -11.189433,0 z m 8.54697,-2.435938 a 4.5488505,4.5488505 0 0 0 1.106763,-3.219676 4.5700326,4.5700326 0 0 0 -1.106763,-3.203789 4.2364149,4.2364149 0 0 0 -5.915092,0 4.5700326,4.5700326 0 0 0 -1.106768,3.224972 4.5488505,4.5488505 0 0 0 1.106768,3.219675 4.2364149,4.2364149 0 0 0 5.915092,0 z M 59.029634,31.518338 v 5.983936 H 55.280408 V 22.113503 h 6.068663 q 2.679534,0 4.167574,1.38213 a 4.3952805,4.3952805 0 0 1 1.48804,3.33088 4.7924444,4.7924444 0 0 1 -0.810218,2.610692 4.4164625,4.4164625 0 0 1 -2.64776,1.795181 l 3.77041,6.269888 h -4.384686 l -3.463269,-5.98393 z m 0,-6.555846 v 3.706863 h 2.319437 A 1.715748,1.715748 0 0 0 63.191906,26.8371 1.8746136,1.8746136 0 0 0 62.662355,25.492044 1.7634077,1.7634077 0 0 0 61.322594,24.962492 Z m -17.914739,0.0106 V 22.113508 H 53.25752 v 2.85958 h -4.199348 v 12.52919 H 45.308946 V 24.973083 Z m -1.94345,-2.901945 v 2.84899 h -5.570887 v 3.309699 H 38.5148 v 2.848989 H 33.600558 V 34.6533 h 5.570887 v 2.84898 H 29.856627 V 22.071139 Z M 19.180862,31.518343 V 37.50228 H 15.431635 V 22.113503 h 6.089847 q 2.647759,0 4.162278,1.38213 a 4.3740984,4.3740984 0 0 1 1.48804,3.33088 4.7924444,4.7924444 0 0 1 -0.810214,2.610692 4.4164625,4.4164625 0 0 1 -2.64776,1.795181 l 3.77041,6.269888 h -4.374099 l -3.46327,-5.98393 z m 0,-6.555846 v 3.706863 h 2.34062 a 1.8057718,1.8057718 0 0 0 1.329174,-0.518965 1.8216584,1.8216584 0 0 0 0.492483,-1.329175 1.8534315,1.8534315 0 0 0 -0.503074,-1.318585 1.7528167,1.7528167 0 0 0 -1.318583,-0.529551 z"
   />
</svg>