<?xml version="1.0" encoding="UTF-8" standalone="no"?>

<svg
   width="100"
   height="60"
   viewBox="0 0 100 60"
   xmlns="http://www.w3.org/2000/svg"
   xmlns:svg="http://www.w3.org/2000/svg">

   <path style="fill:#c1d2db;stroke-width:0.587452"
      d="m 51.709852,14.750682 c 0.173237,0 0.340885,-0.185262 0.419123,0.117332 0.162059,0.944837 -0.407947,1.70441 -0.245886,2.649248 l 0.273826,0.06793 c -0.117354,0.728696 -0.268238,1.488272 -0.396768,2.266371 0.03912,1.432695 0.100589,2.859212 0.19559,4.279554 0.100589,-0.03705 0.190002,-0.05557 0.229119,0.08645 a 13.81425,15.265593 0 0 1 -0.05588,2.254022 l 0.05029,0.3767 a 0.36882708,0.40757649 0 0 0 0.212355,0.135859 c 0,0.382874 -0.03353,0.722521 -0.06146,1.037467 0.558829,4.156045 1.167952,8.380019 1.79384,12.968343 a 18.586649,20.539385 0 0 1 0.620301,2.871561 39.240965,43.363668 0 0 1 -0.106178,4.489518 c 0.966775,-0.209964 1.441779,3.087701 2.419729,2.420757 0,0.895433 -0.05589,2.247847 0.217944,2.315776 0.821478,0.209963 1.765899,0.901608 2.263256,3.285313 0.111766,0.932485 -0.234708,2.365179 -0.06706,2.692475 0.26265,0.518734 0.558829,-1.23508 0.843832,-0.691645 0.296179,-6.934975 -0.06147,-13.585883 -0.0503,-20.594963 -0.407947,-2.359005 -0.620302,-18.415048 -0.407947,-22.540217 0,-0.129682 0,-0.253191 0,-0.376698 A 29.662638,32.779031 0 0 0 59.466396,7.9824392 C 59.242865,7.111708 58.96345,6.2286253 58.700801,5.345543 58.505211,5.7778213 58.348739,6.1359944 58.18109,6.4632911 A 5.3591691,5.92221 0 0 0 58.052559,4.3204262 C 57.622261,2.406052 57.158433,3.4929226 56.504603,4.2277953 56.219601,4.7588799 55.778126,4.0425331 55.481946,4.8453358 c 0,-0.6175405 0,-0.895433 0.03912,-1.4944473 -0.273825,-0.074104 0.139707,1.8526203 -0.312944,1.4265173 a 10.226568,11.300984 0 0 0 -0.04472,-1.8217432 c -0.374416,0.2099637 -0.139707,2.0749353 -0.508535,1.9823042 -0.08382,-0.3211214 0.497358,-1.6797095 0.04471,-1.7970422 -0.095,0 -0.106178,0.5743124 -0.111766,0.8769071 C 54.448113,2.1652136 54.028992,1.1586232 53.51487,2.8383324 a 15.026909,16.605654 0 0 0 0.139707,-2.00083003 v 0 c 0,0.30877013 -0.106179,0.83985463 -0.111767,1.12392303 0,-0.3519979 0,-0.7039957 0,-1.04981824 A 2.4476706,2.7048258 0 0 0 53.352809,1.0906939 3.5038572,3.8719767 0 0 0 53.246632,1.893496 V 1.1895003 A 4.2694529,4.7180068 0 0 0 52.816334,1.8070404 9.8242118,10.856356 0 0 0 52.112209,3.8634492 C 51.894265,7.4884095 51.743382,11.131896 51.709852,14.750682 Z m -12.143352,0 c 0.173237,0 0.340886,-0.185262 0.419122,0.117332 0.162061,0.944837 -0.407946,1.70441 -0.245885,2.649248 l 0.273826,0.06793 c -0.117354,0.728696 -0.268238,1.488272 -0.396768,2.266371 0.03912,1.432695 0.100589,2.859212 0.19559,4.279554 0.100589,-0.03705 0.190001,-0.05557 0.229119,0.08645 a 14.529551,16.056043 0 0 1 -0.0503,2.254022 c 0,0.123508 0,0.253191 0.04471,0.3767 a 0.36882708,0.40757649 0 0 0 0.212355,0.135859 c 0,0.382874 -0.03353,0.722521 -0.06146,1.037467 0.558828,4.156045 1.173541,8.380019 1.799429,12.968343 a 18.55312,20.502334 0 0 1 0.614712,2.871561 c 0.106178,1.377116 -0.07265,3.14328 -0.100589,4.489518 0.966774,-0.209964 1.43619,3.087701 2.41414,2.420757 0,0.895433 -0.0503,2.247847 0.223531,2.315776 0.815891,0.209963 1.760312,0.901608 2.235317,3.285313 0.111765,0.932485 -0.229121,2.365179 -0.06706,2.692475 0.262651,0.518734 0.558829,-1.23508 0.843832,-0.691645 0.29618,-6.934975 -0.06147,-13.585883 -0.0503,-20.594963 -0.407945,-2.359005 -0.597948,-18.415048 -0.407945,-22.540217 0,-0.129682 0,-0.253191 0,-0.376698 A 29.679403,32.797558 0 0 0 47.30628,7.9824392 C 47.077162,7.111708 46.797747,6.2286253 46.535097,5.345543 46.373037,5.7531192 46.216564,6.1359944 46.060093,6.4632911 A 5.4597583,6.0333672 0 0 0 45.925972,4.3204287 C 45.51244,2.4060544 45.026259,3.4929251 44.372428,4.2277975 44.081837,4.7588822 43.640363,4.0425354 43.344183,4.8453381 c 0,-0.6175406 0,-0.895433 0.03913,-1.4944473 -0.273826,-0.074104 0.139706,1.8526204 -0.312945,1.4265173 a 10.226568,11.300984 0 0 0 -0.04471,-1.821743 c -0.374416,0.2099637 -0.139706,2.0749353 -0.508534,1.9823041 -0.08383,-0.3211213 0.497357,-1.6797094 0.04471,-1.7970421 -0.08941,0 -0.106177,0.5743124 -0.111766,0.876907 C 42.31035,2.1652136 41.891228,1.1586232 41.377106,2.8383324 a 13.970723,15.438503 0 0 0 0.134119,-2.00083003 v 0 c 0,0.30877013 -0.111767,0.83985463 -0.117355,1.12392303 0,-0.3519979 0,-0.7039957 0,-1.04981824 C 41.3324,0.96101002 41.270928,1.0289399 41.203869,1.0906939 A 3.5038572,3.8719767 0 0 0 41.097691,1.893496 V 1.1895003 A 4.2415114,4.6871298 0 0 0 40.672982,1.8070404 9.5503864,10.553761 0 0 0 39.968857,3.8634492 C 39.739737,7.4884095 39.60003,11.131896 39.5665,14.750682 Z"
   />
   <path
      style="fill:#232020;stroke:#c1d2db;stroke-width:0;stroke-linecap:round;stroke-linejoin:round"
      d="m 84.467525,45.916756 v 1.033914 h -2.022874 v 1.206232 h 1.783126 v 1.033913 h -1.783126 v 1.30363 h 2.022874 v 1.048898 H 81.081084 V 45.916756 Z M 71.835801,50.79413 a 2.9593897,2.9593897 0 0 1 0,-4.113177 2.8170393,2.8170393 0 0 1 2.037858,-0.809149 2.8994527,2.8994527 0 0 1 1.663252,0.49448 2.6147519,2.6147519 0 0 1 0.981469,1.348583 h -1.603315 a 1.071374,1.071374 0 0 0 -1.018929,-0.614355 1.4160118,1.4160118 0 0 0 -1.101343,0.442036 1.9029999,1.9029999 0 0 0 0,2.345035 1.3860433,1.3860433 0 0 0 1.078866,0.442035 1.2287086,1.2287086 0 0 0 0.794166,-0.24724 1.1687716,1.1687716 0 0 0 0.412067,-0.651815 H 73.521529 V 48.39665 h 2.996851 v 1.033913 a 2.7720865,2.7720865 0 0 1 -0.839118,1.430996 2.5847834,2.5847834 0 0 1 -0.80915,0.516957 2.6372283,2.6372283 0 0 1 -1.026421,0.202287 2.8170393,2.8170393 0 0 1 -2.00789,-0.786673 z m -6.293385,0.749213 -0.307178,-0.936516 h -2.015381 l -0.307178,0.936516 h -1.453472 l 1.947953,-5.611602 h 1.65576 l 1.94046,5.611602 z m -1.977922,-1.977921 h 1.326107 l -0.6668,-1.992906 z m -9.20033,-0.20978 v 2.187701 h -1.363567 v -5.611602 h 2.247638 a 2.1352558,2.1352558 0 0 1 1.498425,0.501972 1.6033149,1.6033149 0 0 1 0.546925,1.213724 1.7981102,1.7981102 0 0 1 -0.299685,0.9515 1.6033149,1.6033149 0 0 1 -0.966484,0.651815 l 1.378551,2.247638 h -1.618299 l -1.266169,-2.172716 z m 0,-2.389988 v 1.348583 h 0.84661 a 0.65181494,0.65181494 0 0 0 0.486988,-0.179811 0.67429132,0.67429132 0 0 0 0.179811,-0.486989 0.68927557,0.68927557 0 0 0 -0.179811,-0.486988 0.65181494,0.65181494 0 0 0 -0.486988,-0.194795 z m -6.195988,-1.048898 v 1.033914 h -2.022874 v 1.206232 h 1.790618 v 1.033913 h -1.790618 v 1.30363 h 2.022874 v 1.048898 h -3.386441 v -5.626587 z m -11.358063,5.626587 -2.022874,-5.611602 h 1.453473 l 1.393535,4.270511 1.423504,-4.270511 h 1.453472 l -2.022874,5.611602 z m -6.300878,-5.626587 v 1.033914 h -2.030366 v 1.206232 h 1.790618 v 1.033913 h -1.790618 v 1.30363 h 2.030366 v 1.048898 h -3.393932 v -5.626587 z m -12.429436,0.01499 h 2.43494 a 2.082811,2.082811 0 0 1 1.363567,0.412067 1.3036299,1.3036299 0 0 1 0.501973,1.056389 c 0,0.629339 -0.367115,1.05639 -1.108835,1.281154 a 1.371059,1.371059 0 0 1 1.236201,1.363562 1.3036299,1.3036299 0 0 1 -0.486988,1.071374 2.1502401,2.1502401 0 0 1 -1.371059,0.38959 h -2.569799 z m 1.363566,1.033913 v 1.213724 h 0.884071 a 0.74921258,0.74921258 0 0 0 0.472004,-0.149842 0.56190943,0.56190943 0 0 0 0.179811,-0.449528 0.56940156,0.56940156 0 0 0 -0.179811,-0.457019 0.68927557,0.68927557 0 0 0 -0.472004,-0.157335 z m 0,3.528791 h 1.033914 a 0.70425982,0.70425982 0 0 0 0.464511,-0.164832 0.60686219,0.60686219 0 0 0 0.179811,-0.464511 0.65181494,0.65181494 0 0 0 -0.172318,-0.472004 0.60686219,0.60686219 0 0 0 -0.45702,-0.172319 H 19.443365 Z M 94.574403,30.063418 H 81.837789 c 0,7.102536 2.247638,8.990551 5.371854,9.672335 2.337543,0.516956 5.469252,-0.884071 6.405768,-4.86239 l 0.419559,0.0974 c -0.606862,3.461362 -4.01578,6.742913 -9.859638,6.742913 A 11.035901,11.035901 0 0 1 73.116955,30.565391 c 0,-7.941654 6.031161,-11.238189 11.777621,-11.238189 4.959788,0 9.679827,1.947953 9.679827,10.736216 z M 87.082277,8.4186676 94.656816,10.75621 80.421777,16.000698 h -3.84346 z M 87.83149,29.643859 c 0,-5.888811 -0.606862,-9.912082 -2.71215,-9.912082 -2.105287,0 -3.221614,5.424299 -3.221614,9.912082 z m -17.891197,9.582429 c 0,0 -1.775633,2.524846 -7.199932,2.524846 -5.656555,0 -8.31626,-1.58833 -8.31626,-1.58833 v -6.128559 h 0.419559 c 0.929024,4.345433 4.809945,7.289838 7.896701,7.289838 3.319011,0 4.068224,-3.873429 0.516956,-6.210972 l -4.720039,-2.8545 c -4.397878,-2.899453 -5.566649,-7.492126 -2.71215,-10.706248 0,0 1.730681,-2.247637 7.057583,-2.247637 5.326901,0 7.641968,1.311122 7.641968,1.311122 v 4.772484 H 70.10512 c -0.84661,-4.210575 -4.495275,-5.656555 -7.199933,-5.656555 -3.041803,0 -4.495275,3.034311 -0.419559,5.611602 l 4.697563,2.974374 c 4.255528,2.539831 5.326902,7.821779 2.757102,10.908535 z m -17.20192,-8.660897 c 0,6.128559 -3.693618,11.238188 -12.054831,11.238188 -8.361212,0 -12.062322,-5.094645 -12.062322,-11.238188 0,-6.143543 3.693618,-11.238189 12.062322,-11.238189 8.368705,0 12.054831,5.034709 12.054831,11.238189 z m -9.485032,0 c 0,-8.45861 -0.04495,-10.796154 -2.569799,-10.796154 -2.524846,0 -2.622244,2.337544 -2.622244,10.796154 0,8.45861 0.04495,10.796153 2.622244,10.796153 2.577292,0 2.569799,-2.375004 2.569799,-10.796153 z M 26.845586,26.557103 a 4.4053699,4.4053699 0 0 1 -6.16602,0.464512 4.0981928,4.0981928 0 0 1 -1.498425,-2.899452 c 0,-0.606863 -1.498425,-0.277209 -3.416409,2.622244 v 9.297728 c 0,2.569799 0.239748,4.44283 1.917984,4.914834 v 0.367114 H 5.9949995 V 40.956969 C 7.7706333,40.440012 7.8230782,38.432123 7.8230782,36.042135 V 24.639119 c 0,-1.633283 -0.5619094,-2.29259 -2.4798936,-2.99685 V 21.267663 L 15.764732,19.327202 v 6.540626 c 3.319011,-4.997248 4.727531,-5.559157 6.128558,-6.218465 a 4.4428306,4.4428306 0 0 1 4.495276,0.749213 4.3828936,4.3828936 0 0 1 0.45702,6.158527 z"
   />
</svg>