<?xml version="1.0" encoding="UTF-8" standalone="no"?>
<!-- Created with Inkscape (http://www.inkscape.org/) -->

<svg
   width="100"
   height="60"
   viewBox="0 0 100 60"
   xmlns="http://www.w3.org/2000/svg"
   xmlns:svg="http://www.w3.org/2000/svg">

   <path
      style="fill:#c1d2db;stroke-width:0.530695"
      d="M 52.813315,12.177037 A 18.043635,18.043635 0 0 1 67.822964,32.813315 18.043635,18.043635 0 0 1 47.186685,47.822963 18.043635,18.043635 0 0 1 32.177036,27.186686 18.043635,18.043635 0 0 1 52.813315,12.177037 Z" />
   <path
      style="fill:#232020;stroke:#c1d2db;stroke-width:0;stroke-linecap:round;stroke-linejoin:round"
      d="m 55.032,48.438555 v 0.5307 h -1.018935 v 0.604991 h 0.902182 v 0.530692 h -0.902182 v 0.652757 H 55.032 v 0.530692 h -1.708839 v -2.849832 z m -5.858874,2.833915 v -2.823299 h 1.836204 v 0.530692 h -1.151608 v 0.610299 h 0.843805 v 0.530701 h -0.843805 v 1.172832 z m -2.918824,0 -0.153902,-0.477626 h -1.013628 l -0.159208,0.477626 h -0.732359 l 0.981786,-2.833915 h 0.838498 l 0.971172,2.833915 z m -0.997707,-0.971168 h 0.668676 l -0.334338,-1.008327 z m -5.450239,0.583758 a 1.4753325,1.4753325 0 0 1 0,-2.069711 1.4116491,1.4116491 0 0 1 1.024242,-0.408635 1.4700256,1.4700256 0 0 1 0.849112,0.249429 1.3055101,1.3055101 0 0 1 0.530695,0.695206 h -0.849112 a 0.53069516,0.53069516 0 0 0 -0.530695,-0.313103 0.70582456,0.70582456 0 0 0 -0.55723,0.222888 0.9499443,0.9499443 0 0 0 0,1.183449 0.72174542,0.72174542 0 0 0 0.55723,0.217588 0.53069516,0.53069516 0 0 0 0.530695,-0.307803 h 0.81727 A 1.2736684,1.2736684 0 0 1 41.647868,51.044274 1.4328769,1.4328769 0 0 1 40.80937,51.293695 1.3904213,1.3904213 0 0 1 39.806356,50.88506 Z M 98.060764,17.626398 c 0.228197,-0.323724 0.424552,-0.642142 0.647449,-1.029549 a 3.4442116,3.4442116 0 0 0 0.196355,-0.350259 l 0.03182,-0.03715 v 0.127367 c -0.09552,0.43517 0.451093,0.26004 0.159206,0.753587 A 7.8012188,7.8012188 0 0 0 98.46407,18.0881 c -0.03181,0.2282 -0.5307,0.721746 -0.711131,0.939331 a 3.29031,3.29031 0 0 0 -0.323728,0.626221 c -0.191047,0.286575 -0.355561,0.530694 -0.578458,0.827884 a 4.4419185,4.4419185 0 0 0 -0.456393,0.673983 2.5367229,2.5367229 0 0 1 -0.451093,0.711131 c -0.451093,0.6103 -0.482935,0.716439 -0.971169,1.332045 -0.222896,0.254733 -0.679289,1.257747 -0.934027,1.485947 a 2.4889603,2.4889603 0 0 0 -0.392711,0.530695 c -0.222897,0.254733 -2.65348,1.661076 -2.84453,1.820284 a 1.5018673,1.5018673 0 0 1 -0.19105,0.217585 1.2895892,1.2895892 0 0 0 -0.530695,0.822578 17.905655,17.905655 0 0 1 -0.971172,2.011334 10.55022,10.55022 0 0 0 -0.647449,1.156916 2.950665,2.950665 0 0 1 -0.711131,1.098538 c -0.254734,0.360873 -0.647448,0.642141 -0.902182,1.061391 a 8.9740551,8.9740551 0 0 1 -1.783135,1.443488 4.7072661,4.7072661 0 0 1 -1.809671,0.477626 c -1.873354,0.67929 -4.399463,-0.557225 -4.776257,-2.313828 a 0.93402346,0.93402346 0 0 1 0.530696,-0.849112 c 0.355565,-0.148596 0.742973,-0.265348 1.06139,-0.376795 a 14.238551,14.238551 0 0 0 3.555657,-1.496559 25.032891,25.032891 0 0 0 2.329752,-1.263055 2.7702287,2.7702287 0 0 0 0.806657,-0.886261 c 0.228199,-0.530695 0.907489,-2.122781 1.167529,-2.589792 2.361593,-4.776257 1.54963,-2.738388 -1.231212,-1.443491 a 3.4123699,3.4123699 0 0 1 -1.682283,-0.83319 c -0.222892,-0.360873 -1.777829,-2.244841 -1.592086,-2.754308 0.15921,-0.604993 0.222893,-0.318417 0.191051,-1.156915 0.100832,-0.949945 0.387407,-1.41165 0.583764,-2.54203 a 8.2576166,8.2576166 0 0 0 0.41925,-1.416956 c 0.26004,-0.530696 0.530695,-1.687612 0.843805,-2.122782 a 7.6313963,7.6313963 0 0 1 0.610299,-1.119766 2.6216341,2.6216341 0 0 1 0.355566,-0.440477 c 0.100833,0.05307 0.228199,0.132674 0.323724,0.180435 a 3.7626287,3.7626287 0 0 0 1.199371,0.742974 2.3722074,2.3722074 0 0 1 0.291882,0.281268 c 0.06368,0.09022 0.09553,0.180437 0.127368,0.206972 a 1.5177881,1.5177881 0 0 1 0.679289,1.199371 1.7141453,1.7141453 0 0 1 -0.09552,1.061391 c -0.164516,0.249426 -0.26004,0.583764 -0.488239,0.93933 -0.228199,0.355566 -0.41925,0.902182 -0.647449,1.353272 a 12.832209,12.832209 0 0 1 -0.774815,1.369194 c -0.127366,0.180436 -0.222891,0.419249 -0.419248,0.705824 -3.84754,6.368342 4.526829,-1.857433 5.269803,-3.125794 a 8.4911224,8.4911224 0 0 0 0.583765,-1.215292 9.7594841,9.7594841 0 0 0 0.774813,-1.109153 1.2524406,1.2524406 0 0 1 0.323729,-0.498853 c 0.164514,-0.217585 0.228196,-0.222892 0.387402,-0.180437 a 1.3957282,1.3957282 0 0 1 0.488243,1.353273 0.57315077,0.57315077 0 0 1 -0.196356,0.413942 9.5843542,9.5843542 0 0 0 -0.451093,1.003014 2.4518117,2.4518117 0 0 1 -0.260038,0.843806 19.81085,19.81085 0 0 0 -1.003018,2.653475 c -0.127364,0.530696 -1.225905,3.566271 -1.294896,4.027976 -0.03184,1.592086 4.176569,-3.009041 5.110597,-4.075738 0.604991,-0.748281 1.156916,-1.470025 1.703532,-2.223612 z m -13.580492,15.16196 c 1.263055,-1.438184 2.165236,-2.653475 -1.098539,-0.949944 -0.742973,0.297189 -1.491253,0.530696 -2.234227,0.764201 a 4.8505537,4.8505537 0 0 0 -0.67929,0.222892 c -1.326737,1.496561 2.393436,2.531412 4.012056,-0.03715 z m 0.514774,-13.638865 a 3.937758,3.937758 0 0 1 -0.530695,1.204678 c -0.100832,0.04246 -0.132674,0.143287 -0.196357,0.185743 a 4.9832275,4.9832275 0 0 1 -0.355566,0.472319 0.74297322,0.74297322 0 0 0 -0.19105,0.249426 1.1516085,1.1516085 0 0 1 -0.392715,0.445784 0.36087271,0.36087271 0 0 0 -0.159208,0.148596 c -0.196357,0.254733 -0.451091,0.482932 -0.647448,0.705824 A 1.9211164,1.9211164 0 0 1 81.9064,22.970498 5.9968553,5.9968553 0 0 0 81.099743,23.246459 5.8376467,5.8376467 0 0 1 80.356771,23.5065 l -0.291883,0.04246 a 2.8179913,2.8179913 0 0 1 -1.098539,-0.302496 0.7005176,0.7005176 0 0 0 -0.164515,-0.0743 1.533709,1.533709 0 0 1 -0.774815,-0.440477 4.378235,4.378235 0 0 0 -0.67929,0.530696 2.6853175,2.6853175 0 0 0 -0.355566,0.27596 0.13798074,0.13798074 0 0 0 -0.06368,0.04246 1.5496299,1.5496299 0 0 1 -0.711132,0.488239 1.7088384,1.7088384 0 0 1 -1.326737,0.08491 3.0196554,3.0196554 0 0 0 -0.482933,-0.159209 1.9954138,1.9954138 0 0 1 -1.554937,-1.883967 2.6534758,2.6534758 0 0 1 0.260041,-1.491254 6.6177686,6.6177686 0 0 1 0.774815,-1.30551 c 0,-0.03184 0.03184,-0.06899 0.06368,-0.106139 0.419249,-0.705824 0.939331,-1.390421 1.422263,-2.043177 a 6.8300467,6.8300467 0 0 1 1.231213,-1.172836 0.85972616,0.85972616 0 0 1 0.291882,-0.106138 3.8740747,3.8740747 0 0 1 0.615606,-0.148596 h 0.09553 a 3.836926,3.836926 0 0 0 0.679289,0.06368 0.3502588,0.3502588 0 0 0 0.191051,0.03715 c 0.164516,0 0.291882,0 0.355565,0.111446 a 0.09021818,0.09021818 0 0 0 0.06899,0.02653 c 0.159208,0 0.286576,0.12206 0.451091,0.09553 a 0.23881282,0.23881282 0 0 1 0.159208,0.04246 2.5526437,2.5526437 0 0 1 0.530695,0.530695 c 0.03184,0.09022 0.06368,0.148595 0.09553,0.24412 a 0.57845772,0.57845772 0 0 1 -0.291883,0.684597 6.028697,6.028697 0 0 0 -0.806657,0.631527 v 0.03184 a 11.314421,11.314421 0 0 0 -1.061389,1.247134 c -0.127368,0.180436 -0.260042,0.329031 -0.387408,0.477625 a 13.049794,13.049794 0 0 0 -0.774815,1.140995 c -0.100833,0.175129 -0.228199,0.355566 -0.323724,0.498853 a 0.72705236,0.72705236 0 0 0 -0.132674,0.212278 4.0810458,4.0810458 0 0 0 -0.387407,1.119767 c -0.03184,0.03715 0,0.06368 0,0.132674 a 0.76420102,0.76420102 0 0 0 0.132673,-0.116753 10.815567,10.815567 0 0 1 1.061391,-1.06139 2.3828213,2.3828213 0 0 0 0.482933,-0.615607 2.2660683,2.2660683 0 0 1 0.26004,-0.329031 6.8990371,6.8990371 0 0 0 0.530695,-0.785429 c 0.228199,-0.387407 0.456398,-0.774815 0.67929,-1.194063 a 0.65275504,0.65275504 0 0 1 0.711132,0.127366 l 0.196357,0.164516 a 1.4859464,1.4859464 0 0 1 0.291882,0.896875 0.39271442,0.39271442 0 0 1 -0.06368,0.175129 c -0.132674,0.307803 -0.291883,0.652755 -0.456399,0.965865 a 1.3426588,1.3426588 0 0 0 -0.09552,0.69521 3.2796961,3.2796961 0 0 0 0.344953,0.716439 0.28126843,0.28126843 0 0 0 0.291882,0.12206 3.0461902,3.0461902 0 0 0 0.67929,-0.254733 6.7982049,6.7982049 0 0 0 0.610299,-0.408636 c 0.228199,-0.159208 0.456398,-0.323724 0.716438,-0.530695 0.159209,-0.185743 0.355566,-0.339645 0.530695,-0.530695 0.41925,-0.477626 1.061391,-1.634542 1.485947,-2.122781 0.03184,-0.03715 0.06899,-0.04246 0.100832,-0.07961 a 0.79604274,0.79604274 0 0 1 0.530695,0.249427 z m -15.782874,9.499443 a 1.8998887,1.8998887 0 0 0 0.228199,-0.26004 c 0.387408,-0.567844 -0.100832,0 0.260041,-0.615607 a 5.6572104,5.6572104 0 0 1 0.419249,-0.769507 c 0.323724,-0.530696 0.291882,-0.944638 0.87034,-2.15993 0.774815,-1.172837 1.294897,-2.377514 1.942344,-3.566271 0.387408,-0.737667 0.260041,-1.204679 0.870341,-0.833192 0.392714,0.233506 -0.127368,0.143288 -0.127368,0.727052 0.228199,-0.03184 -0.387407,0.636835 -0.323723,0.562537 0.196357,0.233506 0.06368,0.445784 -0.06368,0.626221 -0.291882,0.233505 0.06368,0.928716 -0.45109,0.838498 -0.424556,0.705825 -0.843806,0.92341 -1.135688,1.592086 -0.127366,0.530695 -0.419249,0.122059 0,0.482932 l -0.291882,0.398022 a 2.5048811,2.5048811 0 0 0 -0.610299,1.411648 c -0.06899,0.03715 -0.100832,0.0743 -0.100832,0.10614 -0.159209,0.249427 -0.286576,0.461704 -0.451092,0.679289 a 0.92871654,0.92871654 0 0 0 -0.191049,0.382101 4.378235,4.378235 0 0 1 -0.392715,0.865033 c -0.127367,0.212278 -0.254734,0.41925 -0.387408,0.599686 a 3.401756,3.401756 0 0 1 -0.647447,0.705824 4.2455613,4.2455613 0 0 1 -0.67929,0.610299 c -0.387408,0.249427 -0.679291,0.530696 -1.061391,0.73236 a 2.4411977,2.4411977 0 0 1 -0.127367,0.212278 2.0590972,2.0590972 0 0 1 -0.875647,-0.04246 c -0.642141,-0.169822 -0.679289,-0.03184 -1.225905,-0.604992 a 3.4123699,3.4123699 0 0 1 -1.09854,-1.172837 3.8528468,3.8528468 0 0 1 -0.456397,-1.061391 c -0.03184,-0.06368 -0.03184,-0.127366 -0.09552,-0.148594 a 0.53069516,0.53069516 0 0 1 -0.127367,-0.43517 3.1045666,3.1045666 0 0 0 -0.132674,-0.727052 7.0423247,7.0423247 0 0 1 -0.159206,-0.880955 1.4010352,1.4010352 0 0 1 -0.03184,-0.530695 c -0.03184,-0.05837 -0.100832,-0.08491 -0.100832,-0.148594 l -0.19105,0.222892 a 1.8574331,1.8574331 0 0 0 -0.323725,0.721745 1.6769967,1.6769967 0 0 1 -1.003014,1.273668 1.2152919,1.2152919 0 0 0 -0.419248,0.281269 1.0613903,1.0613903 0 0 1 -0.843806,0.31311 4.2455613,4.2455613 0 0 1 -1.225906,-0.281268 2.1227806,2.1227806 0 0 1 -1.231213,-1.156915 1.8786608,1.8786608 0 0 1 -0.26004,-1.09854 1.316124,1.316124 0 0 0 -0.06368,-0.344952 1.3267379,1.3267379 0 0 1 0,-0.355565 5.3441003,5.3441003 0 0 1 0.100832,-1.273669 9.5843542,9.5843542 0 0 1 0.742973,-2.335058 12.205989,12.205989 0 0 1 1.485947,-2.276683 6.3683418,6.3683418 0 0 1 2.329752,-1.777829 1.7884427,1.7884427 0 0 1 0.583764,-0.212277 0.7005176,0.7005176 0 0 1 0.254734,0.03184 c 0.196358,0.03715 0.387405,0.106139 0.530693,0.148595 1.162223,1.422263 0.93933,-1.103846 1.422263,-2.075018 0.06368,-0.137981 0.09553,-0.302497 0.159208,-0.440477 a 3.9271442,3.9271442 0 0 0 0.228199,-0.67929 c 0.127368,-0.307803 0.260041,-0.620913 0.355566,-0.923409 a 2.7649218,2.7649218 0 0 0 0.196358,-0.530695 c 0.254733,-0.48824 0.530694,-1.008321 0.742973,-1.523096 A 7.2227611,7.2227611 0 0 1 66.77099,10.82288 9.8550093,9.8550093 0 0 0 67.625409,9.9684613 c 0.100832,-0.111446 0.26004,-0.228199 0.392714,-0.344952 a 9.345542,9.345542 0 0 0 0.806657,-0.62622 1.1409946,1.1409946 0 0 1 1.263054,-0.17513 c 0.286576,0.116753 0.482933,0.350259 0.806657,0.498853 a 0.56253687,0.56253687 0 0 1 0.127367,0.244121 3.7148661,3.7148661 0 0 1 0.03184,1.0613897 c -0.03184,0.228199 -0.06368,0.461704 -0.09553,0.721745 a 1.5920855,1.5920855 0 0 1 -0.159209,0.833192 c -0.03184,0.06899 0,0.127366 -0.03184,0.196357 a 1.9635721,1.9635721 0 0 1 -0.196357,0.578458 5.3069516,5.3069516 0 0 0 -0.419249,0.833191 8.7936187,8.7936187 0 0 1 -0.323724,0.822578 4.9354649,4.9354649 0 0 0 -0.164516,0.573151 3.4282907,3.4282907 0 0 1 -0.387407,0.859726 2.4571186,2.4571186 0 0 0 -0.530695,0.949944 1.5230951,1.5230951 0 0 1 -0.48824,0.647449 2.6534758,2.6534758 0 0 0 -0.419249,0.57315 4.1341153,4.1341153 0 0 1 -0.742973,1.300203 c -0.26004,0.360873 -0.09553,0.43517 -0.26004,0.780122 a 0.67398285,0.67398285 0 0 0 -0.191051,0.3821 6.792898,6.792898 0 0 0 -0.164516,0.833192 4.2455613,4.2455613 0 0 1 -0.19105,0.801349 4.3039377,4.3039377 0 0 1 -0.03184,0.620913 0.22819892,0.22819892 0 0 1 -0.06899,0.233507 2.4995742,2.4995742 0 0 0 0,0.488239 1.4063421,1.4063421 0 0 1 0,0.647449 v 0.838498 c 0,0.06368 0,0.09552 0.03184,0.127366 0.100832,0.180437 0.03715,0.382101 0.06899,0.573152 a 5.3812489,5.3812489 0 0 0 0.286576,1.25244 0.40332832,0.40332832 0 0 1 0.196357,0.29719 c 0.06368,0.08491 0.127367,0.206971 0.09552,0.27596 a 0.41394222,0.41394222 0 0 0 0.164516,0.398022 2.8816747,2.8816747 0 0 0 0.902181,0.939331 c -0.09553,0.04777 -0.19105,0 -0.254734,0.132673 -0.03184,-0.05837 0,-0.159208 -0.100831,-0.212278 0,-0.03184 -0.03184,-0.05837 -0.127368,0 a 0.71113151,0.71113151 0 0 1 0.228199,0.19105 1.2099849,1.2099849 0 0 0 0.482933,0.196358 0.39271442,0.39271442 0 0 1 0.06368,-0.17513 h -0.01062 a 2.950665,2.950665 0 0 0 0.997707,-0.48824 z m -8.427436,-4.171264 c -0.06899,0.10614 -0.100833,0.206971 -0.164516,0.313111 -0.159208,0.31311 -0.291882,0.62622 -0.451091,0.971172 a 2.4411977,2.4411977 0 0 0 0.127367,1.793749 c 0,0.06368 0.06368,0.08491 0.100832,0.116753 a 2.0113347,2.0113347 0 0 0 0.578457,-0.530695 c 0.260041,-0.360873 0.583765,-0.727052 0.875648,-1.093232 a 3.0886458,3.0886458 0 0 0 0.482932,-0.742974 c 0,-0.06368 0.03184,-0.13798 0.03184,-0.201663 0.03184,-0.228199 0.03184,-0.424556 0.06368,-0.652755 a 2.4252769,2.4252769 0 0 1 0,-0.67929 c 0.530694,-1.889275 0.100833,-2.536723 -0.902181,-0.716438 a 6.7345216,6.7345216 0 0 0 -0.742973,1.422262 z m 3.714864,6.150757 c -0.03184,0 0,-0.09553 0,-0.127367 l -0.09553,-0.08491 -0.06368,0.04246 c 0,0.03184 0.03184,0.05837 0.09552,0.08491 a 0.09021818,0.09021818 0 0 0 0.03184,0.05837 c 0.06368,0.09022 0.06368,0.153901 0.132673,0.238812 a 2.1227806,2.1227806 0 0 0 1.257748,0.73236 c 0.03184,0 0.132674,0 0.26004,0 -0.09552,-0.07961 -0.127366,-0.143288 -0.228198,-0.191051 L 64.695949,30.63904 a 6.7504424,6.7504424 0 0 1 1.358579,-0.249427 z m 1.103845,0.398022 h 0.03184 c -0.03184,0 0,-0.03184 0,-0.03184 v -0.03184 a 0.03826911,0.03826911 0 0 0 -0.04246,0.06368 z m 0.355566,-2.897596 h -0.06899 c 0.100832,0 0.100832,0 0.100832,0.05306 v -0.03184 z m 0.09552,0.249427 v -0.03184 l -0.03184,0.03184 z m 0.127367,0.17513 -0.03184,0.03715 c 0.03184,0 0.03184,0 0.03184,0.05837 h 0.06368 c -0.01062,-0.04246 -0.0743,-0.06368 -0.0743,-0.106138 z m 0.530695,-0.85442 h 0.06368 c -0.03184,-0.03184 -0.03184,-0.06368 -0.06368,-0.09022 a 4.1500361,4.1500361 0 0 0 -0.228198,-0.583765 c -0.09553,-0.180437 -0.09553,-0.376794 -0.323725,-0.530695 a 3.1841709,3.1841709 0 0 0 0.48824,1.029549 c 0,0.03184 0,0.100832 0.06368,0.09022 0.06368,-0.01062 0.04246,0.04777 0.01062,0.08491 z m 0.615606,1.438184 c -0.03184,-0.06368 -0.164515,-0.143288 -0.26004,-0.222892 A 1.5920855,1.5920855 0 0 0 66.57992,28.266836 c -0.03184,0 -0.03184,-0.09022 -0.15921,0 0.260042,0.291882 0.451092,0.583764 0.711132,0.838498 0,0.100832 0.09553,0.116753 0.196357,0.169822 z M 68.38959,16.474789 a 13.373518,13.373518 0 0 0 0.774815,-1.241826 c 0.228199,-0.578458 0.482933,-1.130381 0.774815,-1.72476 a 1.2842822,1.2842822 0 0 0 0.09553,-0.498853 0.93933046,0.93933046 0 0 1 0.06899,-0.424557 7.1378499,7.1378499 0 0 0 0.387407,-2.483653 3.507895,3.507895 0 0 0 -0.06368,-0.5731497 c -0.132674,-0.270655 -0.26004,-0.286576 -0.48824,-0.127368 -0.06368,0.0743 -0.159208,0.12206 -0.19105,0.222892 a 3.6671035,3.6671035 0 0 1 -0.488239,0.8119637 1.1675293,1.1675293 0 0 0 -0.09553,0.302496 0.96586523,0.96586523 0 0 1 -0.196358,0.642142 2.0484833,2.0484833 0 0 1 -0.419249,0.673982 0.44578393,0.44578393 0 0 0 -0.228199,0.387408 1.0613903,1.0613903 0 0 1 -0.06368,0.55723 3.2213196,3.2213196 0 0 0 -0.222892,0.711132 19.879841,19.879841 0 0 0 -0.67929,2.260761 c -0.228199,1.098539 -0.971173,3.306231 0.387407,1.692917 a 13.484964,13.484964 0 0 1 0.631528,-1.188757 z m -17.741137,8.379677 c 0.127367,-0.504161 1.263054,-2.955972 1.485946,-3.375222 a 10.380397,10.380397 0 0 0 0.530695,-0.981786 6.9945622,6.9945622 0 0 0 0.530696,-0.880953 0.91810261,0.91810261 0 0 1 0.530695,-0.461706 c 0.228199,-0.03184 0.419249,-0.09022 0.615607,-0.116752 0.387407,-0.05307 0.615605,0.206971 0.806656,0.599685 v 0.127367 c 0.06368,0.413943 0.159208,0.854419 0.228199,1.294897 a 8.7087074,8.7087074 0 0 1 0.03184,1.289589 8.0347246,8.0347246 0 0 1 0,0.875647 c 0.159208,0.0743 0.127366,0.206971 0.159208,0.169823 0.03184,-0.03715 0.291883,0 0.355566,-0.07961 0.06368,-0.07961 0.100832,-0.111445 0.132674,-0.180436 a 2.9082094,2.9082094 0 0 0 0.387407,-0.408636 c 0.09553,-0.175129 0.191051,-0.191049 0.323724,-0.04777 a 0.329031,0.329031 0 0 1 -0.132673,0.275962 0.86503308,0.86503308 0 0 0 -0.09553,0.17513 0.42455613,0.42455613 0 0 1 -0.19105,0.254734 l -0.100832,0.111445 c -0.03184,0.03715 -0.09553,0.07961 -0.09553,0.111446 0,0.03184 -0.06368,0.03715 -0.09553,0.0743 a 0.53069516,0.53069516 0 0 1 -0.355566,0.212279 0.80134969,0.80134969 0 0 0 -0.291882,0.169822 c -0.100833,0.07961 -0.196358,0.09022 -0.260041,0.03715 a 4.5162158,4.5162158 0 0 0 -0.67927,-0.164511 1.087925,1.087925 0 0 1 -0.838498,-0.790736 3.826312,3.826312 0 0 1 -0.100833,-1.825591 7.2121472,7.2121472 0 0 0 0.100833,-0.822578 l 0.09553,-0.599685 a 0.4829326,0.4829326 0 0 0 0.03184,-0.360873 c -0.03184,0 -0.09553,0 -0.09553,0.04777 a 0.88095393,0.88095393 0 0 0 -0.132674,0.180436 c -0.127366,0.275962 -0.286575,0.55723 -0.45109,0.870341 a 1.8733539,1.8733539 0 0 0 -0.196357,0.610299 c 0.03715,0.12206 -0.06368,0.233505 -0.09553,0.334338 a 11.754898,11.754898 0 0 0 -0.742973,1.788442 c -0.159208,0.472319 -0.387407,0.891568 -0.583764,1.374501 -0.286576,0.716438 -0.647449,1.379807 -0.87034,2.12278 -0.06368,0.233506 -0.196357,0.530696 -0.291882,0.780123 a 15.21503,15.21503 0 0 1 -1.061391,2.059097 c 0,0.06368 -0.09553,0.111446 -0.164516,0.180436 a 1.2152919,1.2152919 0 0 1 -1.358579,0.578457 c -0.06368,0.0743 -0.127367,0 -0.191051,-0.03715 -0.530694,-0.05837 -0.774815,-0.530695 -0.907488,-1.135688 a 9.6958009,9.6958009 0 0 1 -0.09552,-1.666381 c 0.03184,-0.849112 0.06368,-1.692918 0.127366,-2.54203 a 10.661665,10.661665 0 0 1 0.291883,-1.788443 9.5047504,9.5047504 0 0 1 0.530695,-2.404049 5.5086158,5.5086158 0 0 1 0.222891,-0.647448 c 0.228199,-0.610299 0.424557,-1.156915 0.679291,-1.708839 0.132674,-0.440476 0.26004,-0.530695 0.583765,-0.504159 a 3.8210051,3.8210051 0 0 1 0.806656,0 1.0613903,1.0613903 0 0 1 0.647448,0.233505 5.7792703,5.7792703 0 0 0 0.875647,0.976479 1.5920855,1.5920855 0 0 1 0.159208,1.49656 c -0.159208,0.668676 -0.222891,0.196357 -0.387407,0.896875 -0.419249,1.416956 -1.194064,2.589793 -1.54963,3.868768 -0.477625,1.645155 1.013628,-0.07961 1.140995,-0.647448 z m -13.21431,4.219026 A 6.681452,6.681452 0 0 1 35.842058,29.65195 3.6352619,3.6352619 0 0 1 34.579004,29.535198 C 33.772347,29.163711 33.740505,28.940819 33.57599,27.900656 a 2.515495,2.515495 0 0 1 0.143288,-1.3745 c 0.159208,-0.764201 1.905195,-3.714867 2.197077,-4.410077 a 8.3690626,8.3690626 0 0 1 0.583765,-1.183451 0.98178607,0.98178607 0 0 1 0.419249,-0.445784 c 0.222892,-0.127366 0.451091,-0.159208 0.615607,-0.344951 0.482932,-0.323724 0.127366,-0.498853 0.45109,-0.578458 a 0.71113151,0.71113151 0 0 1 0.711132,0.260041 c 0.127367,0 0.127367,0.175129 0.26004,0.286575 0.132674,0.111447 0.06368,0.185744 0.06368,0.31311 -0.196357,0.833192 -0.907488,2.451812 -1.098539,3.258468 a 7.3235931,7.3235931 0 0 0 -0.291882,1.363887 3.8103912,3.8103912 0 0 1 -0.291882,0.981786 c -0.06368,0.265348 -0.228199,0.774815 -0.06368,0.880954 0.164515,0.106139 0.159208,0.684597 0.371486,0.573151 0.774815,-0.530695 1.809671,-0.705824 2.22892,-1.284282 0.26004,-0.387408 0.424556,-0.249427 0.67929,-0.610299 a 2.8763677,2.8763677 0 0 0 0.392715,-0.636835 c 0.191049,-0.445784 0.222891,-0.323724 0.387407,-0.700518 a 8.3584487,8.3584487 0 0 1 0.742973,-1.268361 2.9771998,2.9771998 0 0 1 0.419249,-0.80135 c 0.323724,-0.143288 0.291883,-0.106139 0.419249,-0.09022 0.488239,-0.100832 0.06899,0 0.355566,0.111446 0.06899,0.12206 0,0.26004 0.100832,0.31311 -0.228199,0.642141 -0.260041,1.294897 -0.530695,2.048484 -0.09553,0.238813 -0.03184,0 -0.228199,0.323724 a 1.7088384,1.7088384 0 0 1 -0.222892,0.774815 c -0.132674,0.307803 -0.100832,0.658061 -0.291882,0.944637 -0.260041,1.135687 -0.387407,1.735373 -0.387407,1.86274 -0.100833,0.43517 1.061389,0.567843 2.165235,0.05837 A 9.9770691,9.9770691 0 0 0 46.5621,25.56559 c 0.228199,-0.41925 0.419249,-0.833192 0.774815,-1.401036 0.355565,-0.567844 0.583764,0.307804 0.451091,0.530696 a 2.5367229,2.5367229 0 0 0 -0.19105,0.413942 c -0.260041,0.228199 -0.530695,1.30551 -0.774815,1.528402 -0.06899,0.0743 -0.03184,0.169822 -0.196358,0.254733 a 16.647907,16.647907 0 0 1 -1.910502,2.239534 3.3380725,3.3380725 0 0 0 -0.6103,0.376793 2.4199699,2.4199699 0 0 1 -0.583764,0.498855 0.96055822,0.96055822 0 0 0 -0.355566,0.27596 0.45109089,0.45109089 0 0 0 -0.419249,0.153902 c -0.615607,0.445784 -3.23724,0.934024 -3.428291,-0.13798 a 5.1742777,5.1742777 0 0 1 -0.03184,-2.653476 v -0.127367 a 15.108891,15.108891 0 0 1 -1.852126,1.554936 z m -2.50488,-3.18417 c 0,0.196357 -0.09553,0.206971 -0.06368,0.366179 a 6.5859269,6.5859269 0 0 1 -0.387407,1.247134 c -0.196357,0.530695 -0.424556,1.093232 -0.615606,1.639848 -0.291883,0.620913 -0.583765,1.178143 -0.875647,1.772522 -0.127367,0.24412 -1.645156,2.393435 -1.809671,2.547336 -0.419249,0.344952 -1.130381,1.289588 -1.517788,1.592083 a 8.331914,8.331914 0 0 1 -1.459412,0.753589 4.1871848,4.1871848 0 0 1 -1.257747,0.143289 c -0.67929,0 -1.682304,-0.865037 -2.006028,-1.470028 a 3.7467078,3.7467078 0 0 1 -0.451091,-0.806655 7.3819696,7.3819696 0 0 1 -0.26004,-1.54963 c 0,-2.717159 0.323723,-3.152329 1.098538,-5.880102 0.06368,-0.233505 0.09553,-0.429863 0.164516,-0.668675 a 4.494988,4.494988 0 0 1 0.191051,-0.673984 c 0.09552,-0.366179 0.196357,-0.737666 0.291882,-1.06139 0.159208,-0.737666 1.003014,-2.080325 0.228199,-2.122781 -0.228199,0 -0.424556,0.05837 -0.615607,-0.07961 -0.19105,-0.137981 -0.387407,-0.169822 -0.583764,-0.275961 a 0.41394222,0.41394222 0 0 1 -0.191051,-0.260042 0.65275504,0.65275504 0 0 1 0.159209,-0.09022 l 1.326738,-0.472319 a 8.0877942,8.0877942 0 0 1 0.93933,-0.260041 0.53069516,0.53069516 0 0 0 0.323724,-0.302496 8.0294177,8.0294177 0 0 0 0.323725,-0.822578 c 0.318416,-0.658062 0.530694,-1.337351 0.902181,-1.968878 a 7.8383674,7.8383674 0 0 1 1.061391,-1.507175 2.3297518,2.3297518 0 0 1 0.228199,-0.291882 0.56784382,0.56784382 0 0 1 0.419248,-0.185743 c 0.196357,0.03715 0.387408,-0.08491 0.615607,-0.116754 0.03184,0 0.03184,0 0.06368,-0.04246 0.451092,-0.159209 0.615607,0 0.742974,0.350259 a 1.9847999,1.9847999 0 0 1 0.212278,1.003014 2.4730394,2.4730394 0 0 0 0.06368,0.530694 1.0613903,1.0613903 0 0 1 0,0.451091 c -0.03184,0.164515 -0.06368,0.334338 -0.09552,0.530696 -0.03184,0.196357 -0.132674,0.530694 -0.196358,0.801349 a 0.75889407,0.75889407 0 0 1 -0.03184,0.265348 0.53069516,0.53069516 0 0 0 0.323724,0 l 1.199372,-0.265348 1.698224,-0.249427 a 4.8452468,4.8452468 0 0 1 0.615607,0 2.3669004,2.3669004 0 0 1 -0.127368,0.212279 1.2524406,1.2524406 0 0 1 -0.228199,0.196357 c -0.222891,0.127366 -0.482932,0.291882 -0.711131,0.419248 a 0.03714866,0.03714866 0 0 1 -0.03184,0.03715 6.5859269,6.5859269 0 0 1 -1.13038,0.318417 2.6534758,2.6534758 0 0 0 -0.679291,0.19105 2.409356,2.409356 0 0 1 -0.419248,0.159209 l -0.748281,0.196357 a 0.53069516,0.53069516 0 0 0 -0.254733,0.297188 c -0.03184,0.03715 -0.03184,0.06899 -0.06899,0.10614 -0.387407,1.151608 -0.902181,2.260761 -1.321431,3.385835 a 2.9188234,2.9188234 0 0 0 -0.164515,0.376794 5.9703205,5.9703205 0 0 0 -0.387407,1.024241 4.7762564,4.7762564 0 0 1 -0.41925,0.896875 c -0.132674,0.249427 -0.100831,0.530695 -0.26004,0.780122 a 15.39016,15.39016 0 0 0 -0.711132,4.59582 5.1955056,5.1955056 0 0 0 0.323725,1.443491 1.2312128,1.2312128 0 0 0 0.291882,0.344952 c 0.03184,0 0.06368,0 0.127366,0 a 2.5526437,2.5526437 0 0 0 1.16753,-0.323725 c 0.19105,-0.153901 1.162223,-1.06139 1.353272,-1.25244 a 16.191509,16.191509 0 0 0 1.910503,-2.595099 c 0.291882,-0.589072 0.451091,-1.326738 0.742973,-1.883968 0.132674,-0.339645 0.451091,-1.098539 0.615606,-1.475333 0.159209,0.05307 0.387408,-0.106138 0.355567,-0.02122 z m -5.01507,-4.09166 c 0.323724,-0.85442 0.424557,-1.512481 -0.642141,-0.684597 -0.360872,1.11446 -0.48824,1.878661 -0.780122,2.918823 -0.711132,2.78615 0.323724,0.636835 0.780122,-0.62622 a 14.923148,14.923148 0 0 1 0.642141,-1.592085 z m 1.003014,-3.858154 c 0.03184,-0.132674 0.06899,-0.302496 0.100832,-0.467011 0.03184,-0.265348 0.09553,-0.530696 0.127367,-0.796043 a 3.9271442,3.9271442 0 0 0 -0.03184,-0.870341 c -0.03184,-0.127367 -0.127368,-0.143287 -0.196358,-0.06899 a 0.89156785,0.89156785 0 0 0 -0.291883,0.360873 4.3039377,4.3039377 0 0 0 -0.318416,0.88626 c -0.03715,0.100833 -0.100832,0.206972 -0.132674,0.307804 -0.03184,0.100832 -0.127367,0.275961 -0.191051,0.451091 -0.06899,0.329031 -0.132674,0.69521 -0.228199,1.06139 -0.127366,0.859727 0.774815,0.769508 0.971173,0.159209 0.06368,-0.31311 0.127366,-0.642141 0.19105,-1.008322 z m -4.431305,9.32962 a 3.826312,3.826312 0 0 1 -0.530694,1.204679 c -0.09553,0.04777 -0.132674,0.148594 -0.196358,0.19105 a 4.8877024,4.8877024 0 0 1 -0.355566,0.467012 0.82257749,0.82257749 0 0 0 -0.19105,0.254733 1.1250737,1.1250737 0 0 1 -0.387408,0.440478 0.38740747,0.38740747 0 0 0 -0.164515,0.153901 c -0.196358,0.254733 -0.451091,0.482932 -0.647448,0.705825 a 2.0113347,2.0113347 0 0 1 -0.615607,0.408635 6.2515889,6.2515889 0 0 0 -0.806656,0.270655 5.8376467,5.8376467 0 0 1 -0.742974,0.265347 l -0.291882,0.04246 a 2.9135164,2.9135164 0 0 1 -1.103846,-0.302496 0.7005176,0.7005176 0 0 0 -0.164515,-0.0743 1.5920855,1.5920855 0 0 1 -0.774815,-0.440477 4.0704319,4.0704319 0 0 0 -0.679289,0.530695 2.5897923,2.5897923 0 0 0 -0.355566,0.275961 0.13798074,0.13798074 0 0 0 -0.06368,0.04246 1.5920855,1.5920855 0 0 1 -0.711131,0.482933 1.7141453,1.7141453 0 0 1 -1.326738,0.09022 2.85514,2.85514 0 0 0 -0.482929,-0.159214 1.9954138,1.9954138 0 0 1 -1.554937,-1.889275 2.6534758,2.6534758 0 0 1 0.275961,-1.507174 7.233375,7.233375 0 0 1 0.774815,-1.30551 0.18043635,0.18043635 0 0 1 0.06368,-0.100832 c 0.424555,-0.705827 0.93933,-1.395731 1.422262,-2.043179 a 6.4797878,6.4797878 0 0 1 1.231213,-1.172836 0.79604274,0.79604274 0 0 1 0.291883,-0.106139 3.8740747,3.8740747 0 0 1 0.615605,-0.148595 h 0.09553 a 3.8210051,3.8210051 0 0 0 0.67929,0.06899 0.40863527,0.40863527 0 0 0 0.19105,0.03715 c 0.164516,0 0.291883,0 0.360873,0.111446 a 0.11144598,0.11144598 0 0 0 0.06368,0 c 0.159208,0 0.286575,0.116752 0.45109,0.09553 a 0.21227806,0.21227806 0 0 1 0.159209,0.04246 2.5314159,2.5314159 0 0 1 0.530695,0.504161 c 0.03184,0.09552 0.06368,0.153902 0.09553,0.249426 a 0.57315077,0.57315077 0 0 1 -0.291882,0.684597 5.2698029,5.2698029 0 0 0 -0.806657,0.631527 v 0.03184 a 10.412239,10.412239 0 0 0 -1.06139,1.247132 5.3069516,5.3069516 0 0 1 -0.387407,0.472318 c -0.291882,0.36618 -0.530695,0.753587 -0.774815,1.146301 -0.100832,0.17513 -0.228199,0.355566 -0.323724,0.498854 a 0.75358713,0.75358713 0 0 0 -0.132674,0.206971 4.1712639,4.1712639 0 0 0 -0.387407,1.125074 c -0.03184,0.03715 0,0.06368 0,0.127367 a 0.76420102,0.76420102 0 0 0 0.132674,-0.116754 12.784447,12.784447 0 0 1 1.06139,-1.061389 2.4783463,2.4783463 0 0 0 0.482932,-0.615607 2.7012383,2.7012383 0 0 1 0.260041,-0.329031 7.4668809,7.4668809 0 0 0 0.530695,-0.790736 c 0.228199,-0.3821 0.456398,-0.774814 0.67929,-1.194064 a 0.66336895,0.66336895 0 0 1 0.711131,0.132674 l 0.196357,0.164515 a 1.4859464,1.4859464 0 0 1 0.291883,0.896875 0.39802137,0.39802137 0 0 1 -0.06368,0.169823 c -0.132674,0.31311 -0.291882,0.658062 -0.456397,0.971172 a 1.3267379,1.3267379 0 0 0 -0.09553,0.689904 3.5768853,3.5768853 0 0 0 0.291882,0.769507 0.29188234,0.29188234 0 0 0 0.291882,0.12206 3.0461902,3.0461902 0 0 0 0.721745,-0.270654 c 0.191051,-0.127367 0.41925,-0.254734 0.615607,-0.408636 0.196357,-0.153901 0.45109,-0.323724 0.711132,-0.530695 0.159208,-0.185743 0.355565,-0.339645 0.530695,-0.530694 0.419248,-0.477626 1.06139,-1.634541 1.485946,-2.122782 0.03715,-0.03184 0.06899,-0.03715 0.100832,-0.0743 a 0.81727054,0.81727054 0 0 1 0.530695,0.270654 z M 7.6303037,27.561012 a 1.4912534,1.4912534 0 0 0 0.2918824,0.122059 8.8519953,8.8519953 0 0 1 1.9423441,1.151609 4.9726136,4.9726136 0 0 1 1.8096708,2.754307 4.0279762,4.0279762 0 0 1 -0.482933,2.817988 5.5139227,5.5139227 0 0 1 -0.615606,1.061393 3.1841709,3.1841709 0 0 1 -0.419249,0.5307 7.3925835,7.3925835 0 0 1 -2.0378698,1.544318 2.1227806,2.1227806 0 0 1 -1.0985389,0.350262 1.7672149,1.7672149 0 0 0 -0.8438054,0.307803 5.9066371,5.9066371 0 0 1 -0.774815,0.398019 4.6860382,4.6860382 0 0 1 -1.8415121,0.35557 3.3593004,3.3593004 0 0 1 -2.2660682,-0.684598 C 0.81617826,37.819349 0.67819696,37.161284 0.97008006,36.216648 A 8.4062113,8.4062113 0 0 1 1.9094101,34.433517 9.7647906,9.7647906 0 0 1 3.1989997,32.788358 1.1516085,1.1516085 0 0 0 3.427198,32.464634 C 3.687239,31.93394 3.8146054,31.8278 4.3028447,31.8278 4.4938952,31.73758 4.626569,31.424472 4.8813026,31.488155 4.7539362,31.573065 4.658411,31.647364 4.462054,31.774731 a 2.0378694,2.0378694 0 0 0 0.3237234,0 2.1227806,2.1227806 0 0 0 0.031841,0.451091 c 0.031841,0.09022 0,0.19105 -0.095525,0.334337 -0.1963571,0.286576 -0.3555655,0.567844 -0.5837645,0.891568 a 3.1841709,3.1841709 0 0 0 -0.6156066,1.379809 7.557099,7.557099 0 0 0 -0.095525,0.886261 0.32372405,0.32372405 0 0 0 0.2918831,0.413944 1.6982245,1.6982245 0 0 0 0.9074879,-0.06372 8.2310819,8.2310819 0 0 0 1.7778289,-0.732364 C 6.982855,34.996012 7.5984613,34.6829 8.182226,34.311416 A 6.028697,6.028697 0 0 0 9.4452813,33.31905 C 9.7318567,33.053702 9.8326887,32.788354 9.7318567,32.597304 A 2.9029025,2.9029025 0 0 0 8.601476,30.883159 22.204285,22.204285 0 0 0 5.2687103,29.142479 11.87165,11.87165 0 0 1 3.2998318,28.012098 4.9036233,4.9036233 0 0 1 1.7077458,26.228963 C 0.96477286,25.103889 1.6440638,23.32606 2.6789186,21.925024 a 13.760925,13.760925 0 0 1 3.4442113,-3.11518 c 0.3874072,-0.217585 0.7748147,-0.366179 1.1303804,-0.578458 a 14.180175,14.180175 0 0 1 5.5988337,-1.42757 c 0.530695,0 1.06139,0 1.592086,0 a 2.7702287,2.7702287 0 0 1 1.554937,0.302496 0.36087271,0.36087271 0 0 1 0.159208,0.493547 0.57845772,0.57845772 0 0 0 -0.03184,0.228199 2.7543078,2.7543078 0 0 1 -0.09553,0.498853 5.2432681,5.2432681 0 0 0 -0.445784,1.72476 2.7702287,2.7702287 0 0 1 -0.355565,0.859726 c -0.127362,0.275965 -0.32372,0.49355 -0.451086,0.742977 a 1.650462,1.650462 0 0 1 -0.530696,0.583765 7.9604274,7.9604274 0 0 1 -1.003014,0.562537 0.53069516,0.53069516 0 0 1 -0.530695,0.0743 5.7633494,5.7633494 0 0 0 -1.491253,-0.169823 20.35216,20.35216 0 0 0 -3.184171,0.185744 6.1083013,6.1083013 0 0 0 -0.9977069,0.302496 c -0.3927145,0.116753 -0.74828,0.265347 -1.1038463,0.376793 -2.324444,0.907489 -0.9658645,2.398742 0.1963579,3.078032 a 13.676014,13.676014 0 0 1 1.49656,0.912796 z"
   />
</svg>