<?xml version="1.0" encoding="UTF-8" standalone="no"?>
<!-- Created with Inkscape (http://www.inkscape.org/) -->

<svg
   width="100"
   height="60"
   viewBox="0 0 100 60"
   xmlns="http://www.w3.org/2000/svg"
   xmlns:svg="http://www.w3.org/2000/svg">

   <path style="fill:#232020;stroke-width:0.683455"
      d="m 97.93752,30.423649 v 0.266547 h -8.392826 v -0.266547 c 1.271226,-0.369066 1.366909,-1.845328 1.366909,-3.547131 v -6.73203 c 0,-1.906838 -0.683455,-2.808999 -2.303242,-2.808999 a 2.6654738,2.6654738 0 0 0 -1.975185,1.305399 v 8.269803 c 0,1.838494 0.164029,3.178065 1.36691,3.512958 v 0.266547 h -8.372322 v -0.266547 c 1.271226,-0.369066 1.305399,-1.776983 1.305399,-3.512958 v -8.167284 c 0,-1.175543 -0.369066,-1.640292 -1.735975,-2.146049 v -0.266547 l 7.429154,-1.36691 v 3.239576 c 0.867987,-1.770148 2.638135,-3.239576 4.449291,-3.239576 2.679145,0 5.467634,1.06619 5.467634,5.084905 v 6.861885 c 0.02046,1.804321 0.218705,3.212238 1.394253,3.512958 z m -18.173065,-1.8795 c -0.471583,1.476262 -2.207559,2.467271 -4.319434,2.467271 0,0 -3.71116,0 -4.01188,-3.014036 -0.437411,1.74281 -2.146048,3.014036 -4.517636,3.014036 -1.271226,0 -4.182742,-0.567267 -4.182742,-3.417274 0,-3.342094 2.733818,-3.977707 8.666205,-5.385624 v -2.132379 c 0,-3.478785 -1.975184,-5.358285 -4.28526,-4.14857 0,0 -0.738132,0.430576 0.403238,0.833815 a 2.1528826,2.1528826 0 0 1 1.20288,1.264391 2.3715882,2.3715882 0 1 1 -4.380945,1.804321 2.3989263,2.3989263 0 0 1 0.403239,-2.487776 7.7435429,7.7435429 0 0 1 2.248566,-1.715471 6.6021734,6.6021734 0 0 1 3.143891,-0.683455 c 4.380945,0 6.834548,2.733819 6.834548,6.691022 v 4.982386 c 0,0 0,2.412595 1.606119,2.344249 0,0 0.833815,0 1.004678,-0.567268 z m -8.365487,-6.021237 c -2.73382,0.60144 -2.73382,2.64497 -2.73382,4.216916 0,0 0,2.207559 1.3054,2.207559 0.574102,0 1.038851,-0.46475 1.407917,-1.271226 z m -10.169806,0.170863 c 0,6.622677 -4.421952,8.317645 -8.707214,8.317645 -2.617632,0 -4.210082,-0.683455 -5.119077,-1.496766 -1.066189,0.683455 -4.647491,1.544608 -4.647491,1.004679 V 9.5372705 c 0,-1.1345357 -0.334894,-1.6402916 -1.708638,-2.1392144 V 7.1315091 L 48.40755,5.7235923 V 17.47218 c 0.970506,-1.674464 2.64497,-2.542451 5.75469,-2.542451 4.626989,0 7.066922,3.608641 7.066922,7.764046 z m -6.73203,0.464749 c 0,-3.916195 -0.936333,-7.230951 -3.342093,-7.230951 -2.241732,0 -2.73382,2.733819 -2.73382,5.324112 v 3.547131 c 0,3.813677 0.772304,5.89138 2.781661,5.89138 1.858997,0 3.294252,-2.173387 3.294252,-7.531672 z M 40.677677,20.11715 a 3.1643958,3.1643958 0 0 1 -4.415119,0.334894 2.9730284,2.9730284 0 0 1 -1.073024,-2.050365 c 0,-0.437411 -1.066189,-0.205036 -2.439933,1.872666 v 6.636346 c 0,1.838494 0.164029,3.178065 1.366909,3.512958 v 0.266547 h -8.365486 v -0.266547 c 1.278061,-0.369066 1.305398,-1.811156 1.305398,-3.512958 v -8.167284 c 0,-1.175543 -0.396403,-1.640292 -1.770148,-2.146049 v -0.266547 l 7.463327,-1.36691 v 4.681666 c 2.378422,-3.581304 3.376267,-3.984542 4.380945,-4.44929 a 3.1712303,3.1712303 0 0 1 3.212237,0.533094 3.1370576,3.1370576 0 0 1 0.334894,4.387779 z M 3.4293899,23.124352 V 10.377919 c 0,-2.0503638 0.1298564,-2.9456896 -1.36691,-2.9456896 V 7.1315091 h 9.5683671 v 0.3007203 c -1.435255,0 -1.366909,0.533094 -1.366909,2.9456896 v 12.985642 c 0,3.943534 2.050364,5.597494 5.248933,5.597494 3.581302,0 5.392458,-2.474106 5.392458,-5.624832 v -8.679876 c 0,-2.733819 -0.874822,-7.2241176 -4.052887,-7.2241176 V 7.1315091 h 8.768725 l 0.03418,0.3007203 c -3.77267,0 -4.456125,4.4834636 -4.456125,7.2241176 v 8.700379 c 0,4.421953 -2.938856,7.654694 -8.830236,7.654694 -4.551809,0 -8.9395894,-2.433099 -8.9395885,-7.887068 z"
   />
   <path
      style="fill:#c1d2db;stroke:#c1d2db;stroke-width:0;stroke-linecap:round;stroke-linejoin:round"
      d="m 81.468534,36.943983 -0.04784,0.492087 c -0.505756,0.157195 -0.109353,-0.293885 -0.601441,-0.273382 0,-0.403238 0.437412,-0.478418 0.833816,-0.505756 -0.355397,-0.05468 -0.683454,-0.355397 -0.861153,0.08202 -0.328058,-0.177698 0.05467,-0.492087 -0.348563,-0.683455 -0.287051,0.116188 -0.683454,0.498922 -1.004678,0.252879 v -0.06834 c -0.792807,-0.437411 -1.243888,0.574103 -1.96835,0.15036 l 0.08202,-0.136691 c -0.252878,-0.239209 -0.772304,0.06152 -1.237054,-0.198202 0.136692,0.08885 0.246044,0.382735 -0.041,0.416908 -0.533094,-0.259713 -0.90216,0 -1.291729,-0.341728 l -0.389569,0.382735 c -1.872667,-0.123022 -9.294984,0.252878 -11.181319,0.273381 l 0.07519,-0.06151 c -2.87051,0.123022 -8.768725,-0.04784 -11.748588,0.416906 -0.444247,-0.396403 -1.079858,-0.321223 -1.558277,-0.43741 0.259713,0.164029 0.164028,0.43741 -0.041,0.416907 -1.462593,-0.08202 -0.109353,0.266548 -1.585615,0.38957 -1.708637,0.321224 -8.201458,-0.246045 -9.698224,-0.61511 -0.826981,0.553599 -1.824824,0.09569 -2.631301,0.437412 l 0.08885,-0.136691 c -0.861153,0.198201 -5.672675,-0.451081 -6.670519,-0.273382 l 0.136691,0.08885 c -0.874822,0.334892 -0.744965,-0.287051 -1.414751,-0.498922 0.06834,0.642448 -0.683455,0.984175 -0.963672,1.025182 v -0.136708 a 14.127011,14.127011 0 0 1 -2.111892,0.683455 l 0.04101,-0.348562 c -0.594606,0.362231 -1.694969,0.177699 -2.118711,0.205037 -0.956836,-0.170864 -2.433099,-0.813311 -3.731663,-0.382735 l -0.806477,-1.018348 -0.123022,0.09569 c 0,0 -1.640292,12.008301 0,14.619098 l -0.03418,0.348562 0.334894,-0.041 c 0.403238,0.184534 0.601439,-0.218705 0.560432,0.129856 l -0.546764,-0.05467 c 0.403239,0.109353 0.109354,0.293885 -0.04784,0.485253 a 1.0046786,1.0046786 0 0 1 0.464749,0.191367 c 0.08202,-0.129856 -0.05467,-0.143526 -0.116187,-0.218706 0.218705,-0.123022 0.533095,-0.444246 0.792808,-0.273382 0.416908,0.04101 0,0.567268 0.498922,0.61511 a 55.626387,55.626387 0 0 0 7.606853,0.820145 c 0.05467,0.143526 0,0.136691 -0.08885,0.198202 0.772304,-0.143525 1.455758,-0.06834 2.193889,-0.198202 a 1.0525204,1.0525204 0 0 1 0.30072,0.526261 c -0.109352,-0.293886 3.923031,-0.218705 3.984541,-0.143526 l 0.06152,-0.628779 c 0.76547,0 0.205036,0.724463 0.91583,0.587772 0.300719,-0.888491 1.175542,0.123022 1.435255,-0.348563 0,0.07518 0.334893,0.109354 0.307554,0.38957 0.116188,-0.485252 0.362231,-0.109353 0.580937,-0.225541 0.08202,-0.129856 -0.05468,-0.143525 -0.109352,-0.293885 l 0.505757,-0.157194 c 0.191366,0.157194 0.232373,0.444245 0,0.492087 1.305397,0.205037 7.579512,0.82698 9.001099,0.615109 -0.177698,-0.369064 -0.615111,-0.129857 -0.76547,-0.683455 0.3759,-0.314388 0.546764,0.129857 0.683456,-0.205035 0.123022,0.854317 0.813311,0.225539 1.073023,1.093527 l 0.123015,-0.478423 0.177699,0.300721 c 1.65396,-0.46475 0.3759,-0.23921 1.831659,-0.08885 0.840648,-0.05468 1.257556,-0.717629 1.722306,-0.457916 -0.06834,0 -0.246044,-0.307554 0,-0.423742 0,0.423742 0.58777,-0.293884 0.683454,0.143526 0.211871,-0.05467 0.908995,0 0.683455,-0.567267 0.109353,0.293885 0.724462,0.423741 0.355396,0.683454 0.205037,0 0.403239,0.116188 0.560433,0 L 54.034674,53.15554 c 0.683454,-0.06834 1.079857,0.389569 1.55144,-0.123023 l -0.252877,-0.239208 c 0.416908,0 0.772303,-0.06152 0.922663,0.519425 l -0.437411,0.16403 a 3.417274,3.417274 0 0 0 1.708637,-0.31439 h -0.205035 c 0.751799,-0.560433 4.640658,-0.943168 5.337782,-1.647126 l -0.30072,-0.45108 0.594606,-0.362232 c -0.06834,0 -0.321224,1.44209 -0.3759,1.298564 1.257556,0 7.811887,-0.1982 8.966925,0.129857 0.457915,0.259713 0.06152,0.683456 0.05468,0.785974 0.574102,-0.157195 0.259712,-0.471584 0.744966,-0.416908 0.129857,0.08202 -0.041,0.348562 -0.116187,0.410072 0.218704,-0.04784 0.410072,0.109354 0.430576,-0.09569 -0.259713,-0.170864 -0.136691,-0.724462 -0.23921,-1.086693 l 0.621945,0.06834 v 0.348562 c 0.136691,0 0.3759,-0.950002 0.984174,-0.744966 1.025182,0.170864 2.152883,0.08202 3.191734,0.184533 0,0.211871 -0.246044,0.328057 -0.464749,0.444245 0.136691,0 0.355397,0 0.478418,0.123022 -0.246043,-0.3759 0.444246,-0.23921 0.246044,-0.396403 0.785973,-0.84065 1.749645,0 2.433099,-0.594607 0.08202,-0.772303 1.763314,-13.183842 1.790652,-14.099672 0.205036,0 0.416907,0.041 0.478419,0.116188 -0.08202,-0.232375 -0.485253,-0.321224 -0.710794,-0.232375 z m 0.451081,-0.30072 h -0.266547 a 0.49892201,0.49892201 0 0 0 0.266547,0 z M 18.829902,52.150852 Z M 17.975583,51.63826 a 1.0183476,1.0183476 0 0 0 0.847485,0.498923 0.86798757,0.86798757 0 0 0 -0.847485,-0.498923 z"
   />
   <path style="fill:#ffffff;stroke-width:0.683455"
      d="m 70.78728,47.810914 h -1.284895 v -1.701803 l -1.824824,-3.574468 h 1.455759 l 1.018347,2.385257 0.99101,-2.385257 h 1.455757 l -1.824823,3.574468 z M 60.952364,45.76055 v 2.050364 h -1.284895 v -5.276271 h 2.050365 a 2.0503644,2.0503644 0 0 1 1.42842,0.471585 1.496766,1.496766 0 0 1 0.51259,1.141368 1.6402915,1.6402915 0 0 1 -0.252877,0.881657 1.4762624,1.4762624 0 0 1 -0.908995,0.61511 l 1.29173,2.152882 h -1.53094 L 61.075386,45.74688 Z m 0,-2.248567 v 1.271226 h 0.792808 a 0.62194387,0.62194387 0 0 0 0.464749,-0.177697 0.61510932,0.61510932 0 0 0 0.170864,-0.451082 0.6834548,0.6834548 0 0 0 -0.177699,-0.464748 0.61510932,0.61510932 0 0 0 -0.457914,-0.177699 z M 55.11566,42.520974 v 0.97734 h -1.906839 v 1.134535 h 1.681298 v 0.97734 h -1.681298 v 1.223385 h 1.906839 v 0.97734 h -3.191734 v -5.28994 z m -11.564055,0.991009 v -0.97734 h 4.16224 v 0.97734 h -1.44209 v 4.298931 H 44.98686 V 43.511983 Z M 38.4667,47.810914 38.172816,46.922422 H 36.28648 l -0.293885,0.888492 h -1.366911 l 1.831659,-5.28994 h 1.565112 l 1.824824,5.28994 z m -1.865831,-1.865831 h 1.250723 l -0.628779,-1.879501 z m -6.034905,-3.424109 v 0.97734 h -1.90684 v 1.134535 h 1.681299 v 0.97734 h -1.681299 v 1.223385 h 1.90684 v 0.97734 h -3.164398 v -5.28994 z"
   />
</svg>