<svg xmlns="http://www.w3.org/2000/svg" width="64" height="64" viewBox="0 0 64 64" fill="none">
    <g clip-path="url(#clip0_241_1555)">
        <path
            d="M56.4881 26.6714C54.141 26.6714 52.2317 24.7563 52.2317 22.4027V4.26882C52.2317 3.80945 51.9388 3.40215 51.5046 3.25684L41.9239 0.0547597C41.3703 -0.130659 40.7725 0.165693 40.5818 0.718301L39.2559 4.56349C34.7342 5.57586 29.3114 5.57586 24.7898 4.56349L23.4638 0.718301C23.2737 0.166216 22.6785 -0.128579 22.1217 0.0547597L12.5411 3.25684C12.1069 3.40215 11.8139 3.80945 11.8139 4.26882V22.4027C11.8139 24.7563 9.90466 26.6714 7.55754 26.6714C6.97011 26.6714 6.49384 27.149 6.49384 27.7381V56.5298C6.49384 56.9199 6.70627 57.2792 7.04803 57.4662L18.7504 63.8699C19.0563 64.0365 19.424 64.0438 19.7357 63.8876L32.0228 57.7261L44.31 63.8876C44.4601 63.9626 44.6227 64.0001 44.7858 64.0001C44.9613 64.0001 45.1369 63.9563 45.2953 63.8699L56.9976 57.4662C57.3394 57.2792 57.5518 56.9199 57.5518 56.5298V27.7381C57.5518 27.149 57.0756 26.6714 56.4881 26.6714ZM32.0228 7.46414C34.2107 7.46414 36.396 7.278 38.4462 6.91159L32.0228 25.5386L25.5995 6.91159C27.6496 7.278 29.835 7.46414 32.0228 7.46414ZM19.2812 61.7303L8.62124 55.8964V28.7157C11.6368 28.2068 13.9413 25.5693 13.9413 22.4027V5.03758L21.7966 2.41205L30.9591 28.9824V34.1167H28.8312C28.2437 34.1167 27.7675 34.5943 27.7675 35.1834C27.7675 35.7725 28.2437 36.2501 28.8312 36.2501H30.9591V41.5881H28.8312C28.2437 41.5881 27.7675 42.0657 27.7675 42.6548C27.7675 43.2438 28.2437 43.7214 28.8312 43.7214H30.9591V49.0589H28.8312C28.2437 49.0589 27.7675 49.5365 27.7675 50.1256C27.7675 50.7147 28.2437 51.1923 28.8312 51.1923H30.9591V55.8741L19.2812 61.7303ZM55.4244 55.8964L44.7645 61.7303L33.0865 55.8741V51.1923H35.2145C35.8019 51.1923 36.2782 50.7147 36.2782 50.1256C36.2782 49.5365 35.8019 49.0589 35.2145 49.0589H33.0865V43.7214H35.2145C35.8019 43.7214 36.2782 43.2438 36.2782 42.6548C36.2782 42.0657 35.8019 41.5881 35.2145 41.5881H33.0865V36.2501H35.2145C35.8019 36.2501 36.2782 35.7725 36.2782 35.1834C36.2782 34.5943 35.8019 34.1167 35.2145 34.1167H33.0865V28.9824L42.2491 2.41205L50.1043 5.03758V22.4027C50.1043 25.5694 52.4088 28.2069 55.4244 28.7157V55.8964Z"
            fill="#111"
            style="stroke-dasharray: 588px, 590px; stroke-dashoffset: 0px;"></path>
        <path width="9.97227" height="2.66666" fill="#111"
            d="M 28.0367,34.1333 L 36.00897,34.1333 A 1,1,0,0,1,37.00897,35.1333 L 37.00897,35.79996 A 1,1,0,0,1,36.00897,36.79996 L 28.0367,36.79996 A 1,1,0,0,1,27.0367,35.79996 L 27.0367,35.1333 A 1,1,0,0,1,28.0367,34.1333"
            style="stroke-dasharray: 24px, 26px; stroke-dashoffset: 0px;"></path>
        <path width="9.97227" height="2.66667" fill="#111"
            d="M 28.0367,41.6001 L 36.00897,41.6001 A 1,1,0,0,1,37.00897,42.6001 L 37.00897,43.266769999999994 A 1,1,0,0,1,36.00897,44.266769999999994 L 28.0367,44.266769999999994 A 1,1,0,0,1,27.0367,43.266769999999994 L 27.0367,42.6001 A 1,1,0,0,1,28.0367,41.6001"
            style="stroke-dasharray: 24px, 26px; stroke-dashoffset: 0px;"></path>
        <path width="9.97227" height="2.66667" fill="#111"
            d="M 28.0367,49.0669 L 36.00897,49.0669 A 1,1,0,0,1,37.00897,50.0669 L 37.00897,50.73357 A 1,1,0,0,1,36.00897,51.73357 L 28.0367,51.73357 A 1,1,0,0,1,27.0367,50.73357 L 27.0367,50.0669 A 1,1,0,0,1,28.0367,49.0669"
            style="stroke-dasharray: 24px, 26px; stroke-dashoffset: 0px;"></path>
    </g>
    <defs>
        <clipPath id="clip0_241_1555">
            <path width="63.8225" height="64" fill="white" transform="translate(0.111572)"
                d="M0 0 L63.8225 0 L63.8225 64 L0 64 Z"
                style="stroke-dasharray: 256px, 258px; stroke-dashoffset: 0px;"></path>
        </clipPath>
    </defs>
</svg>