<svg xmlns="http://www.w3.org/2000/svg" width="65" height="64" viewBox="0 0 65 64" fill="none">
    <g clip-path="url(#clip0_241_1558)">
        <path
            d="M60.8439 9.60052H42.7608V3.2C42.7608 1.43541 41.3294 0 39.5697 0H3.40359C1.6439 0 0.212463 1.43541 0.212463 3.2V51.2C0.212463 52.9646 1.6439 54.4 3.40359 54.4H21.4866V60.8C21.4866 62.5646 22.9181 64 24.6778 64H42.7738C43.3612 64 43.837 63.5229 43.8375 62.9339C43.8432 52.3599 52.4272 43.7521 62.9718 43.7464C63.5592 43.7458 64.035 43.2688 64.035 42.6797V12.8005C64.035 11.0359 62.6036 9.60052 60.8439 9.60052ZM3.40359 52.2667C2.8172 52.2667 2.33988 51.788 2.33988 51.2V3.2C2.33988 2.61198 2.8172 2.13333 3.40359 2.13333H39.5697C40.1561 2.13333 40.6334 2.61198 40.6334 3.2V9.60052H24.6778C22.9181 9.60052 21.4866 11.0359 21.4866 12.8005V52.2667H3.40359ZM61.9076 41.6401C51.0342 42.1854 42.2809 50.963 41.7371 61.8667H24.6778C24.0914 61.8667 23.6141 61.388 23.6141 60.8V12.8005C23.6141 12.2125 24.0914 11.7339 24.6778 11.7339H60.8439C61.4303 11.7339 61.9076 12.2125 61.9076 12.8005V41.6401Z"
            fill="#111"
            style="stroke-dasharray: 581px, 583px; stroke-dashoffset: 0px;"></path>
        <path
            d="M38.506 57.6001H36.9104C36.323 57.6001 35.8467 58.0777 35.8467 58.6668C35.8467 59.2558 36.323 59.7334 36.9104 59.7334H38.506C39.0934 59.7334 39.5697 59.2558 39.5697 58.6668C39.5697 58.0777 39.0934 57.6001 38.506 57.6001Z"
            fill="#111"
            style="stroke-dasharray: 10px, 12px; stroke-dashoffset: 0px;"></path>
        <path
            d="M33.6377 57.6001H31.6739C31.0865 57.6001 30.6102 58.0777 30.6102 58.6668C30.6102 59.2558 31.0865 59.7334 31.6739 59.7334H33.6377C34.2252 59.7334 34.7015 59.2558 34.7015 58.6668C34.7015 58.0777 34.2252 57.6001 33.6377 57.6001Z"
            fill="#111"
            style="stroke-dasharray: 11px, 13px; stroke-dashoffset: 0px;"></path>
        <path
            d="M28.4008 57.6H27.8689V57.0667C27.8689 56.4776 27.3926 56 26.8052 56C26.2178 56 25.7415 56.4776 25.7415 57.0667V58.6667C25.7415 59.2557 26.2178 59.7333 26.8052 59.7333H28.4008C28.9882 59.7333 29.4645 59.2557 29.4645 58.6667C29.4645 58.0776 28.9882 57.6 28.4008 57.6Z"
            fill="#111"
            style="stroke-dasharray: 13px, 15px; stroke-dashoffset: 0px;"></path>
        <path
            d="M26.8052 26.3642C27.3926 26.3642 27.8689 25.8866 27.8689 25.2975V22.0105C27.8689 21.4214 27.3926 20.9438 26.8052 20.9438C26.2178 20.9438 25.7415 21.4214 25.7415 22.0105V25.2975C25.7415 25.8865 26.2178 26.3642 26.8052 26.3642Z"
            fill="#111"
            style="stroke-dasharray: 14px, 16px; stroke-dashoffset: 0px;"></path>
        <path
            d="M26.8052 43.8915C27.3926 43.8915 27.8689 43.4139 27.8689 42.8248V39.5383C27.8689 38.9493 27.3926 38.4717 26.8052 38.4717C26.2178 38.4717 25.7415 38.9493 25.7415 39.5383V42.8248C25.7415 43.4139 26.2178 43.8915 26.8052 43.8915Z"
            fill="#111"
            style="stroke-dasharray: 14px, 16px; stroke-dashoffset: 0px;"></path>
        <path
            d="M26.8052 52.6556C27.3926 52.6556 27.8689 52.178 27.8689 51.589V48.3025C27.8689 47.7134 27.3926 47.2358 26.8052 47.2358C26.2178 47.2358 25.7415 47.7134 25.7415 48.3025V51.589C25.7415 52.178 26.2178 52.6556 26.8052 52.6556Z"
            fill="#111"
            style="stroke-dasharray: 14px, 16px; stroke-dashoffset: 0px;"></path>
        <path
            d="M26.8052 35.1278C27.3926 35.1278 27.8689 34.6502 27.8689 34.0611V30.7747C27.8689 30.1856 27.3926 29.708 26.8052 29.708C26.2178 29.708 25.7415 30.1856 25.7415 30.7747V34.0611C25.7415 34.6502 26.2178 35.1278 26.8052 35.1278Z"
            fill="#111"
            style="stroke-dasharray: 14px, 16px; stroke-dashoffset: 0px;"></path>
        <path
            d="M28.4008 13.8667H26.8052C26.2178 13.8667 25.7415 14.3443 25.7415 14.9334V16.5334C25.7415 17.1224 26.2178 17.6 26.8052 17.6C27.3926 17.6 27.8689 17.1224 27.8689 16.5334V16H28.4008C28.9882 16 29.4645 15.5224 29.4645 14.9334C29.4645 14.3443 28.9882 13.8667 28.4008 13.8667Z"
            fill="#111"
            style="stroke-dasharray: 13px, 15px; stroke-dashoffset: 0px;"></path>
        <path
            d="M52.169 13.8667H49.1981C48.6107 13.8667 48.1344 14.3443 48.1344 14.9334C48.1344 15.5224 48.6107 16 49.1981 16H52.169C52.7565 16 53.2328 15.5224 53.2328 14.9334C53.2328 14.3443 52.7565 13.8667 52.169 13.8667Z"
            fill="#111"
            style="stroke-dasharray: 13px, 15px; stroke-dashoffset: 0px;"></path>
        <path
            d="M44.2463 13.8667H41.2754C40.6879 13.8667 40.2117 14.3443 40.2117 14.9334C40.2117 15.5224 40.6879 16 41.2754 16H44.2463C44.8337 16 45.31 15.5224 45.31 14.9334C45.31 14.3443 44.8337 13.8667 44.2463 13.8667Z"
            fill="#111"
            style="stroke-dasharray: 13px, 15px; stroke-dashoffset: 0px;"></path>
        <path
            d="M33.3526 16H36.3235C36.9109 16 37.3872 15.5224 37.3872 14.9334C37.3872 14.3443 36.9109 13.8667 36.3235 13.8667H33.3526C32.7652 13.8667 32.2889 14.3443 32.2889 14.9334C32.2889 15.5224 32.7652 16 33.3526 16Z"
            fill="#111"
            style="stroke-dasharray: 13px, 15px; stroke-dashoffset: 0px;"></path>
        <path
            d="M58.7165 13.8667H57.1209C56.5335 13.8667 56.0572 14.3443 56.0572 14.9334C56.0572 15.5224 56.5335 16 57.1209 16H57.6528V16.5334C57.6528 17.1224 58.129 17.6 58.7165 17.6C59.3039 17.6 59.7802 17.1224 59.7802 16.5334V14.9334C59.7802 14.3443 59.3039 13.8667 58.7165 13.8667Z"
            fill="#111"
            style="stroke-dasharray: 13px, 15px; stroke-dashoffset: 0px;"></path>
        <path
            d="M58.7164 20.292C58.129 20.292 57.6527 20.7696 57.6527 21.3587V24.254C57.6527 24.843 58.129 25.3206 58.7164 25.3206C59.3039 25.3206 59.7802 24.843 59.7802 24.254V21.3587C59.7802 20.7696 59.3039 20.292 58.7164 20.292Z"
            fill="#111"
            style="stroke-dasharray: 13px, 15px; stroke-dashoffset: 0px;"></path>
        <path
            d="M58.7164 28.0132C58.129 28.0132 57.6527 28.4908 57.6527 29.0799V31.9746C57.6527 32.5637 58.129 33.0413 58.7164 33.0413C59.3039 33.0413 59.7802 32.5637 59.7802 31.9746V29.0799C59.7802 28.4908 59.3039 28.0132 58.7164 28.0132Z"
            fill="#111"
            style="stroke-dasharray: 13px, 15px; stroke-dashoffset: 0px;"></path>
        <path
            d="M58.7164 35.7334C58.129 35.7334 57.6527 36.211 57.6527 36.8001V38.4001C57.6527 38.9891 58.129 39.4667 58.7164 39.4667C59.3039 39.4667 59.7802 38.9891 59.7802 38.4001V36.8001C59.7802 36.211 59.3039 35.7334 58.7164 35.7334Z"
            fill="#111"
            style="stroke-dasharray: 10px, 12px; stroke-dashoffset: 0px;"></path>
    </g>
    <defs>
        <clipPath id="clip0_241_1558">
            <path width="63.8225" height="64" fill="white" transform="translate(0.212463)"
                d="M0 0 L63.8225 0 L63.8225 64 L0 64 Z"
                style="stroke-dasharray: 256px, 258px; stroke-dashoffset: 0px;"></path>
        </clipPath>
    </defs>
</svg>