<svg xmlns="http://www.w3.org/2000/svg" width="65" height="64" viewBox="0 0 65 64" fill="none">
    <path
        d="M32.8832 0C18.2198 0 6.29047 11.4844 6.29047 25.6C6.29047 39.3722 17.648 50.634 31.8195 51.174V62.9333C31.8195 63.5224 32.2952 64 32.8832 64C33.4711 64 33.9469 63.5224 33.9469 62.9333V51.174C48.1183 50.634 59.4759 39.3722 59.4759 25.6C59.4759 11.4844 47.5466 0 32.8832 0ZM33.9469 49.0408V32.4411L38.9538 27.4203C39.3693 27.0036 39.3693 26.3286 38.9538 25.912C38.5383 25.4953 37.8652 25.4953 37.4496 25.912L33.9469 29.4245V20.2719C33.9469 19.6828 33.4711 19.2052 32.8832 19.2052C32.2952 19.2052 31.8195 19.6828 31.8195 20.2719V35.824L27.253 31.2448C26.8375 30.8281 26.1644 30.8281 25.7489 31.2448C25.3333 31.6615 25.3333 32.3365 25.7489 32.7531L31.8195 38.8406V49.0408C18.8208 48.5043 8.41788 38.1975 8.41788 25.6C8.41788 12.6604 19.3926 2.13333 32.8832 2.13333C46.3738 2.13333 57.3485 12.6604 57.3485 25.6C57.3485 38.1975 46.9456 48.5043 33.9469 49.0408Z"
        fill="#111"
        style="stroke-dasharray: 426px, 428px; stroke-dashoffset: 0px;"></path>
    <path width="2.1939" height="45" fill="#111"
        d="M 32.7862,19 L 32.9801,19 A 1,1,0,0,1,33.9801,20 L 33.9801,63 A 1,1,0,0,1,32.9801,64 L 32.7862,64 A 1,1,0,0,1,31.7862,63 L 31.7862,20 A 1,1,0,0,1,32.7862,19"
        style="stroke-dasharray: 93px, 95px; stroke-dashoffset: 0px;"></path>
    <path width="2.3294" height="10.615"
        transform="matrix(0.706124 0.708088 -0.706124 0.708088 39.0584 24)"
        fill="#111"
        d="M 1,0 L 1.3294000000000001,0 A 1,1,0,0,1,2.3294,1 L 2.3294,9.615 A 1,1,0,0,1,1.3294000000000001,10.615 L 1,10.615 A 1,1,0,0,1,0,9.615 L 0,1 A 1,1,0,0,1,1,0"
        style="stroke-dasharray: 25px, 27px; stroke-dashoffset: 0px;"></path>
    <path width="2.51016" height="11.2288"
        transform="matrix(-0.706124 0.708088 0.706124 0.708088 26.5502 30)"
        fill="#111"
        d="M 1,0 L 1.51016,0 A 1,1,0,0,1,2.51016,1 L 2.51016,10.2288 A 1,1,0,0,1,1.51016,11.2288 L 1,11.2288 A 1,1,0,0,1,0,10.2288 L 0,1 A 1,1,0,0,1,1,0"
        style="stroke-dasharray: 26px, 28px; stroke-dashoffset: 0px;"></path>
</svg>